{"glyphs":{"0":{"ha":865,"x_min":50,"x_max":817,"o":"m 433 -4 q 278 28 349 -4 q 156 120 207 60 q 78 267 106 181 q 50 460 50 353 q 76 663 50 576 q 153 808 103 750 q 275 895 204 867 q 433 924 346 924 q 588 892 518 924 q 709 799 658 860 q 788 653 760 739 q 817 460 817 568 q 788 264 817 350 q 709 118 760 178 q 588 27 658 58 q 433 -4 518 -4 m 432 125 q 567 167 513 125 q 650 286 622 210 q 678 463 678 363 q 650 637 678 563 q 567 753 622 711 q 432 794 513 794 q 297 752 351 794 q 216 635 243 710 q 189 460 189 560 q 216 285 189 361 q 297 167 243 210 q 432 125 351 125 z "},"1":{"ha":457,"x_min":74,"x_max":313,"o":"m 74 914 l 313 914 l 313 0 l 178 0 l 178 785 l 74 785 l 74 914 z "},"2":{"ha":757,"x_min":57,"x_max":697,"o":"m 74 0 q 243 169 163 86 q 388 331 324 253 q 490 481 453 408 q 528 622 528 554 q 513 701 528 668 q 473 754 497 733 q 418 785 449 775 q 356 796 388 796 q 278 781 310 796 q 226 743 246 767 q 197 693 206 719 q 188 640 188 667 q 201 558 188 594 q 242 493 215 521 l 158 419 q 103 478 126 440 q 69 559 81 515 q 57 638 57 603 q 94 778 57 713 q 202 885 131 844 q 376 925 274 925 q 529 885 464 925 q 631 778 594 844 q 667 633 667 713 q 639 497 667 564 q 565 365 611 431 q 462 237 518 300 q 350 110 406 174 l 292 129 l 697 129 l 697 0 l 74 0 z "},"3":{"ha":726,"x_min":74,"x_max":639,"o":"m 607 914 l 363 521 l 282 558 q 322 572 300 568 q 367 576 344 576 q 467 565 418 579 q 554 519 515 551 q 616 435 593 488 q 639 304 639 382 q 594 136 639 207 q 477 27 550 65 q 315 -11 404 -11 q 183 16 249 -11 q 74 88 117 43 l 142 199 q 215 143 168 168 q 311 118 261 118 q 406 142 364 118 q 474 209 449 165 q 500 311 500 253 q 453 438 500 392 q 326 483 407 483 q 258 477 286 483 q 208 463 231 471 l 204 468 l 419 803 l 461 785 l 126 785 l 126 914 l 607 914 z "},"4":{"ha":743,"x_min":18,"x_max":694,"o":"m 18 221 l 18 222 l 575 925 l 576 925 l 576 324 l 694 324 l 694 221 l 576 221 l 576 0 l 442 0 l 442 221 l 18 221 m 450 621 l 215 317 l 194 324 l 442 324 l 442 646 l 450 621 z "},"5":{"ha":726,"x_min":90,"x_max":642,"o":"m 340 -11 q 199 15 267 -11 q 90 83 132 42 l 163 188 q 237 136 190 156 q 329 117 283 117 q 420 140 381 117 q 482 202 460 163 q 504 293 504 242 q 484 392 504 349 q 424 459 464 435 q 325 483 385 483 q 235 470 276 483 q 149 431 193 457 l 147 431 l 147 914 l 585 914 l 585 785 l 264 785 l 264 551 l 246 579 q 299 592 269 588 q 357 597 329 597 q 513 556 450 597 q 609 447 576 515 q 642 297 642 379 q 603 141 642 211 q 496 30 564 71 q 340 -11 428 -11 z "},"6":{"ha":757,"x_min":53,"x_max":700,"o":"m 381 -11 q 215 33 289 -11 q 97 158 140 76 q 53 350 53 239 q 88 522 53 440 q 183 674 124 603 q 319 808 243 746 q 474 921 394 869 l 563 824 q 374 698 450 768 q 256 556 297 628 q 206 419 214 483 l 172 424 q 271 543 210 501 q 425 585 332 585 q 558 547 496 585 q 660 444 621 510 q 700 294 700 379 q 655 133 700 201 q 537 26 610 64 q 381 -11 464 -11 m 375 110 q 469 133 426 110 q 536 197 511 156 q 561 293 561 239 q 536 388 561 347 q 469 450 511 428 q 375 472 426 472 q 282 451 324 472 q 215 392 240 429 q 190 311 190 356 l 190 288 q 215 199 190 240 q 281 134 239 158 q 375 110 324 110 z "},"7":{"ha":679,"x_min":43,"x_max":640,"o":"m 640 914 l 275 0 l 124 0 l 453 804 l 500 785 l 43 785 l 43 914 l 640 914 z "},"8":{"ha":726,"x_min":39,"x_max":688,"o":"m 39 288 q 66 410 39 358 q 134 497 93 461 q 218 550 175 532 q 149 615 176 576 q 122 715 122 654 q 153 824 122 776 q 239 898 185 871 q 363 925 293 925 q 485 898 431 925 q 571 825 539 871 q 603 721 603 779 q 576 617 603 656 q 507 550 549 578 q 592 495 550 531 q 660 408 633 460 q 688 288 688 357 q 644 140 688 208 q 527 31 600 72 q 361 -11 454 -11 q 196 31 268 -11 q 81 140 124 72 q 39 288 39 208 l 39 288 m 176 294 q 201 199 176 242 q 268 129 226 156 q 361 103 310 103 q 458 129 414 103 q 527 199 501 156 q 553 293 553 242 q 528 388 553 346 q 460 457 503 431 q 367 483 418 483 q 272 459 315 485 q 203 390 229 433 q 176 294 176 347 l 176 294 m 253 699 q 287 626 253 656 q 365 596 321 596 q 442 626 410 596 q 475 699 475 656 q 442 781 475 749 q 365 813 410 813 q 286 781 319 813 q 253 699 253 749 l 253 699 z "},"9":{"ha":746,"x_min":53,"x_max":700,"o":"m 328 300 q 194 338 257 300 q 92 441 132 375 q 53 590 53 507 q 98 759 53 688 q 215 869 143 831 q 371 908 288 908 q 538 868 464 908 q 656 756 613 828 q 700 589 700 683 q 659 392 700 481 q 551 230 618 303 q 404 97 485 157 q 243 -18 324 36 l 154 81 q 354 206 269 140 q 488 337 439 271 q 544 461 536 403 l 583 460 q 484 341 542 382 q 328 300 426 300 m 376 414 q 510 461 458 414 q 563 583 563 508 l 563 608 q 536 700 561 660 q 469 764 511 740 q 376 788 428 788 q 283 764 325 788 q 216 698 240 740 q 192 599 192 656 q 217 501 192 543 q 283 436 242 458 q 376 414 325 414 z "},"A":{"ha":974,"x_min":44,"x_max":929,"o":"m 44 0 l 483 1046 l 492 1046 l 929 0 l 775 0 l 447 835 l 543 897 l 176 0 l 44 0 m 301 381 l 675 381 l 719 264 l 263 264 l 301 381 z "},"Á":{"ha":974,"x_min":44,"x_max":929,"o":"m 44 0 l 483 1046 l 492 1046 l 929 0 l 775 0 l 447 835 l 543 897 l 176 0 l 44 0 m 301 381 l 675 381 l 719 264 l 263 264 l 301 381 z "},"Ă":{"ha":974,"x_min":44,"x_max":929,"o":"m 44 0 l 483 1046 l 492 1046 l 929 0 l 775 0 l 447 835 l 543 897 l 176 0 l 44 0 m 301 381 l 675 381 l 719 264 l 263 264 l 301 381 z "},"Ắ":{"ha":974,"x_min":44,"x_max":929,"o":"m 44 0 l 483 1046 l 492 1046 l 929 0 l 775 0 l 447 835 l 543 897 l 176 0 l 44 0 m 301 381 l 675 381 l 719 264 l 263 264 l 301 381 z "},"Ặ":{"ha":974,"x_min":44,"x_max":929,"o":"m 44 0 l 483 1046 l 492 1046 l 929 0 l 775 0 l 447 835 l 543 897 l 176 0 l 44 0 m 301 381 l 675 381 l 719 264 l 263 264 l 301 381 z "},"Ằ":{"ha":974,"x_min":44,"x_max":929,"o":"m 44 0 l 483 1046 l 492 1046 l 929 0 l 775 0 l 447 835 l 543 897 l 176 0 l 44 0 m 301 381 l 675 381 l 719 264 l 263 264 l 301 381 z "},"Ẳ":{"ha":974,"x_min":44,"x_max":929,"o":"m 44 0 l 483 1046 l 492 1046 l 929 0 l 775 0 l 447 835 l 543 897 l 176 0 l 44 0 m 301 381 l 675 381 l 719 264 l 263 264 l 301 381 z "},"Ẵ":{"ha":974,"x_min":44,"x_max":929,"o":"m 44 0 l 483 1046 l 492 1046 l 929 0 l 775 0 l 447 835 l 543 897 l 176 0 l 44 0 m 301 381 l 675 381 l 719 264 l 263 264 l 301 381 m 592 1435 q 519 1455 547 1435 q 465 1497 490 1475 q 432 1526 449 1513 q 394 1539 415 1539 q 365 1526 378 1539 q 344 1490 351 1513 q 338 1433 338 1467 l 268 1435 q 280 1532 264 1489 q 327 1600 296 1575 q 401 1625 358 1625 q 464 1606 438 1625 q 513 1565 490 1586 q 550 1531 532 1546 q 589 1517 568 1517 q 628 1547 617 1517 q 640 1626 640 1576 l 710 1625 q 701 1525 715 1568 q 657 1458 686 1482 q 592 1435 628 1435 z "},"Â":{"ha":974,"x_min":44,"x_max":929,"o":"m 44 0 l 483 1046 l 492 1046 l 929 0 l 775 0 l 447 835 l 543 897 l 176 0 l 44 0 m 301 381 l 675 381 l 719 264 l 263 264 l 301 381 z "},"Ấ":{"ha":974,"x_min":44,"x_max":929,"o":"m 44 0 l 483 1046 l 492 1046 l 929 0 l 775 0 l 447 835 l 543 897 l 176 0 l 44 0 m 301 381 l 675 381 l 719 264 l 263 264 l 301 381 z "},"Ậ":{"ha":974,"x_min":44,"x_max":929,"o":"m 44 0 l 483 1046 l 492 1046 l 929 0 l 775 0 l 447 835 l 543 897 l 176 0 l 44 0 m 301 381 l 675 381 l 719 264 l 263 264 l 301 381 z "},"Ầ":{"ha":974,"x_min":44,"x_max":929,"o":"m 44 0 l 483 1046 l 492 1046 l 929 0 l 775 0 l 447 835 l 543 897 l 176 0 l 44 0 m 301 381 l 675 381 l 719 264 l 263 264 l 301 381 z "},"Ẩ":{"ha":974,"x_min":44,"x_max":929,"o":"m 44 0 l 483 1046 l 492 1046 l 929 0 l 775 0 l 447 835 l 543 897 l 176 0 l 44 0 m 301 381 l 675 381 l 719 264 l 263 264 l 301 381 z "},"Ẫ":{"ha":974,"x_min":44,"x_max":929,"o":"m 44 0 l 483 1046 l 492 1046 l 929 0 l 775 0 l 447 835 l 543 897 l 176 0 l 44 0 m 301 381 l 675 381 l 719 264 l 263 264 l 301 381 z "},"Ȁ":{"ha":974,"x_min":44,"x_max":929,"o":"m 44 0 l 483 1046 l 492 1046 l 929 0 l 775 0 l 447 835 l 543 897 l 176 0 l 44 0 m 301 381 l 675 381 l 719 264 l 263 264 l 301 381 z "},"Ä":{"ha":974,"x_min":44,"x_max":929,"o":"m 44 0 l 483 1046 l 492 1046 l 929 0 l 775 0 l 447 835 l 543 897 l 176 0 l 44 0 m 301 381 l 675 381 l 719 264 l 263 264 l 301 381 z "},"Ạ":{"ha":974,"x_min":44,"x_max":929,"o":"m 44 0 l 483 1046 l 492 1046 l 929 0 l 775 0 l 447 835 l 543 897 l 176 0 l 44 0 m 301 381 l 675 381 l 719 264 l 263 264 l 301 381 z "},"À":{"ha":974,"x_min":44,"x_max":929,"o":"m 44 0 l 483 1046 l 492 1046 l 929 0 l 775 0 l 447 835 l 543 897 l 176 0 l 44 0 m 301 381 l 675 381 l 719 264 l 263 264 l 301 381 z "},"Ả":{"ha":974,"x_min":44,"x_max":929,"o":"m 44 0 l 483 1046 l 492 1046 l 929 0 l 775 0 l 447 835 l 543 897 l 176 0 l 44 0 m 301 381 l 675 381 l 719 264 l 263 264 l 301 381 z "},"Ȃ":{"ha":974,"x_min":44,"x_max":929,"o":"m 44 0 l 483 1046 l 492 1046 l 929 0 l 775 0 l 447 835 l 543 897 l 176 0 l 44 0 m 301 381 l 675 381 l 719 264 l 263 264 l 301 381 m 481 1303 q 583 1274 540 1303 q 654 1191 626 1246 q 690 1058 682 1136 l 603 1058 q 582 1138 597 1103 q 542 1194 567 1174 q 481 1214 518 1214 q 421 1194 446 1214 q 381 1138 396 1174 q 361 1058 367 1103 l 272 1058 q 309 1192 282 1138 q 380 1275 336 1247 q 481 1303 424 1303 z "},"Ā":{"ha":974,"x_min":44,"x_max":929,"o":"m 44 0 l 483 1046 l 492 1046 l 929 0 l 775 0 l 447 835 l 543 897 l 176 0 l 44 0 m 301 381 l 675 381 l 719 264 l 263 264 l 301 381 z "},"Ą":{"ha":974,"x_min":44,"x_max":982,"o":"m 44 0 l 483 1046 l 492 1046 l 929 0 l 775 0 l 447 835 l 543 897 l 176 0 l 44 0 m 301 381 l 675 381 l 719 264 l 263 264 l 301 381 z "},"Å":{"ha":974,"x_min":44,"x_max":929,"o":"m 44 0 l 483 1046 l 492 1046 l 929 0 l 775 0 l 447 835 l 543 897 l 176 0 l 44 0 m 301 381 l 675 381 l 719 264 l 263 264 l 301 381 z "},"Ǻ":{"ha":974,"x_min":44,"x_max":929,"o":"m 44 0 l 483 1046 l 492 1046 l 929 0 l 775 0 l 447 835 l 543 897 l 176 0 l 44 0 m 301 381 l 675 381 l 719 264 l 263 264 l 301 381 z "},"Ã":{"ha":974,"x_min":44,"x_max":929,"o":"m 44 0 l 483 1046 l 492 1046 l 929 0 l 775 0 l 447 835 l 543 897 l 176 0 l 44 0 m 301 381 l 675 381 l 719 264 l 263 264 l 301 381 m 593 1131 q 520 1151 549 1131 q 467 1193 492 1171 q 433 1222 450 1208 q 396 1235 417 1235 q 366 1222 379 1235 q 346 1185 353 1208 q 339 1129 339 1163 l 269 1131 q 281 1228 265 1185 q 328 1296 297 1271 q 403 1321 360 1321 q 465 1301 439 1321 q 514 1261 492 1282 q 551 1227 533 1242 q 590 1213 569 1213 q 630 1242 618 1213 q 642 1322 642 1272 l 711 1321 q 702 1221 717 1264 q 658 1154 688 1178 q 593 1131 629 1131 z "},"Æ":{"ha":1319,"x_min":18,"x_max":1231,"o":"m 663 1004 l 1211 1004 l 1211 874 l 797 874 l 797 567 l 1154 567 l 1154 438 l 797 438 l 797 129 l 1231 129 l 1231 0 l 663 0 l 663 1004 m 682 854 q 674 824 679 840 q 668 806 669 808 l 172 0 l 18 0 l 663 1004 l 682 854 m 321 356 l 682 356 l 682 249 l 281 249 l 321 356 z "},"Ǽ":{"ha":1319,"x_min":18,"x_max":1231,"o":"m 663 1004 l 1211 1004 l 1211 874 l 797 874 l 797 567 l 1154 567 l 1154 438 l 797 438 l 797 129 l 1231 129 l 1231 0 l 663 0 l 663 1004 m 682 854 q 674 824 679 840 q 668 806 669 808 l 172 0 l 18 0 l 663 1004 l 682 854 m 321 356 l 682 356 l 682 249 l 281 249 l 321 356 z "},"B":{"ha":858,"x_min":144,"x_max":776,"o":"m 403 1004 q 641 942 554 1004 q 728 750 728 881 q 692 613 728 671 q 591 521 656 554 q 439 483 526 488 l 419 553 q 601 517 521 550 q 729 424 682 483 q 776 282 776 364 q 749 153 776 207 q 674 66 721 100 q 567 16 626 32 q 443 0 507 0 l 144 0 l 144 1004 l 403 1004 m 431 564 q 551 610 514 564 q 589 724 589 657 q 540 839 589 803 q 410 875 492 875 l 279 875 l 279 564 l 431 564 m 436 125 q 538 142 492 125 q 612 193 585 158 q 639 281 639 228 q 608 372 639 339 q 528 420 576 406 q 428 435 479 435 l 279 435 l 279 125 l 436 125 z "},"C":{"ha":964,"x_min":82,"x_max":882,"o":"m 882 75 q 814 38 857 58 q 713 3 771 17 q 588 -11 656 -11 q 377 31 471 -10 q 218 140 283 71 q 117 301 153 210 q 82 494 82 392 q 119 702 82 607 q 222 867 156 797 q 380 976 289 938 q 579 1015 471 1015 q 743 991 669 1015 q 869 933 817 967 l 815 808 q 715 861 774 836 q 583 886 656 886 q 444 857 510 886 q 329 775 379 828 q 251 652 279 722 q 222 501 222 582 q 248 349 222 419 q 322 228 274 279 q 438 147 369 176 q 590 118 506 118 q 726 142 667 118 q 825 194 786 165 l 882 75 z "},"Ć":{"ha":964,"x_min":82,"x_max":882,"o":"m 882 75 q 814 38 857 58 q 713 3 771 17 q 588 -11 656 -11 q 377 31 471 -10 q 218 140 283 71 q 117 301 153 210 q 82 494 82 392 q 119 702 82 607 q 222 867 156 797 q 380 976 289 938 q 579 1015 471 1015 q 743 991 669 1015 q 869 933 817 967 l 815 808 q 715 861 774 836 q 583 886 656 886 q 444 857 510 886 q 329 775 379 828 q 251 652 279 722 q 222 501 222 582 q 248 349 222 419 q 322 228 274 279 q 438 147 369 176 q 590 118 506 118 q 726 142 667 118 q 825 194 786 165 l 882 75 z "},"Č":{"ha":964,"x_min":82,"x_max":882,"o":"m 882 75 q 814 38 857 58 q 713 3 771 17 q 588 -11 656 -11 q 377 31 471 -10 q 218 140 283 71 q 117 301 153 210 q 82 494 82 392 q 119 702 82 607 q 222 867 156 797 q 380 976 289 938 q 579 1015 471 1015 q 743 991 669 1015 q 869 933 817 967 l 815 808 q 715 861 774 836 q 583 886 656 886 q 444 857 510 886 q 329 775 379 828 q 251 652 279 722 q 222 501 222 582 q 248 349 222 419 q 322 228 274 279 q 438 147 369 176 q 590 118 506 118 q 726 142 667 118 q 825 194 786 165 l 882 75 z "},"Ç":{"ha":964,"x_min":82,"x_max":882,"o":"m 882 75 q 814 38 857 58 q 713 3 771 17 q 588 -11 656 -11 q 377 31 471 -10 q 218 140 283 71 q 117 301 153 210 q 82 494 82 392 q 119 702 82 607 q 222 867 156 797 q 380 976 289 938 q 579 1015 471 1015 q 743 991 669 1015 q 869 933 817 967 l 815 808 q 715 861 774 836 q 583 886 656 886 q 444 857 510 886 q 329 775 379 828 q 251 652 279 722 q 222 501 222 582 q 248 349 222 419 q 322 228 274 279 q 438 147 369 176 q 590 118 506 118 q 726 142 667 118 q 825 194 786 165 l 882 75 z "},"Ĉ":{"ha":964,"x_min":82,"x_max":882,"o":"m 882 75 q 814 38 857 58 q 713 3 771 17 q 588 -11 656 -11 q 377 31 471 -10 q 218 140 283 71 q 117 301 153 210 q 82 494 82 392 q 119 702 82 607 q 222 867 156 797 q 380 976 289 938 q 579 1015 471 1015 q 743 991 669 1015 q 869 933 817 967 l 815 808 q 715 861 774 836 q 583 886 656 886 q 444 857 510 886 q 329 775 379 828 q 251 652 279 722 q 222 501 222 582 q 248 349 222 419 q 322 228 274 279 q 438 147 369 176 q 590 118 506 118 q 726 142 667 118 q 825 194 786 165 l 882 75 z "},"Ċ":{"ha":964,"x_min":82,"x_max":882,"o":"m 882 75 q 814 38 857 58 q 713 3 771 17 q 588 -11 656 -11 q 377 31 471 -10 q 218 140 283 71 q 117 301 153 210 q 82 494 82 392 q 119 702 82 607 q 222 867 156 797 q 380 976 289 938 q 579 1015 471 1015 q 743 991 669 1015 q 869 933 817 967 l 815 808 q 715 861 774 836 q 583 886 656 886 q 444 857 510 886 q 329 775 379 828 q 251 652 279 722 q 222 501 222 582 q 248 349 222 419 q 322 228 274 279 q 438 147 369 176 q 590 118 506 118 q 726 142 667 118 q 825 194 786 165 l 882 75 z "},"D":{"ha":1046,"x_min":144,"x_max":964,"o":"m 144 0 l 144 1004 l 418 1004 q 672 958 567 1004 q 840 838 776 913 q 934 672 904 763 q 964 490 964 581 q 924 286 964 376 q 815 132 885 196 q 656 34 746 68 q 467 0 567 0 l 144 0 m 279 129 l 440 129 q 594 154 524 129 q 716 226 664 179 q 797 342 768 274 q 826 499 826 411 q 796 662 826 592 q 713 779 765 732 q 593 851 660 826 q 453 875 526 875 l 279 875 l 279 129 z "},"Ǆ":{"ha":1971,"x_min":144,"x_max":1894,"o":"m 144 0 l 144 1004 l 418 1004 q 672 958 567 1004 q 840 838 776 913 q 934 672 904 763 q 964 490 964 581 q 924 286 964 376 q 815 132 885 196 q 656 34 746 68 q 467 0 567 0 l 144 0 m 279 129 l 440 129 q 594 154 524 129 q 716 226 664 179 q 797 342 768 274 q 826 499 826 411 q 796 662 826 592 q 713 779 765 732 q 593 851 660 826 q 453 875 526 875 l 279 875 l 279 129 z "},"Ð":{"ha":1046,"x_min":24,"x_max":964,"o":"m 144 0 l 144 1004 l 418 1004 q 672 958 567 1004 q 840 838 776 913 q 934 672 904 763 q 964 490 964 581 q 924 286 964 376 q 815 132 885 196 q 656 34 746 68 q 467 0 567 0 l 144 0 m 279 129 l 440 129 q 594 154 524 129 q 716 226 664 179 q 797 342 768 274 q 826 499 826 411 q 796 662 826 592 q 713 779 765 732 q 593 851 660 826 q 453 875 526 875 l 279 875 l 279 129 m 24 558 l 408 558 l 408 438 l 24 438 l 24 558 z "},"Ď":{"ha":1046,"x_min":144,"x_max":964,"o":"m 144 0 l 144 1004 l 418 1004 q 672 958 567 1004 q 840 838 776 913 q 934 672 904 763 q 964 490 964 581 q 924 286 964 376 q 815 132 885 196 q 656 34 746 68 q 467 0 567 0 l 144 0 m 279 129 l 440 129 q 594 154 524 129 q 716 226 664 179 q 797 342 768 274 q 826 499 826 411 q 796 662 826 592 q 713 779 765 732 q 593 851 660 826 q 453 875 526 875 l 279 875 l 279 129 z "},"Đ":{"ha":1056,"x_min":33,"x_max":974,"o":"m 154 0 l 154 1004 l 428 1004 q 681 958 576 1004 q 850 838 786 913 q 944 672 914 763 q 974 490 974 581 q 934 286 974 376 q 825 132 894 196 q 666 34 756 68 q 476 0 576 0 l 154 0 m 289 129 l 450 129 q 603 154 533 129 q 726 226 674 179 q 807 342 778 274 q 836 499 836 411 q 806 662 836 592 q 722 779 775 732 q 603 851 669 826 q 463 875 536 875 l 289 875 l 289 129 m 33 558 l 418 558 l 418 438 l 33 438 l 33 558 z "},"ǅ":{"ha":1689,"x_min":144,"x_max":1622,"o":"m 144 0 l 144 1004 l 418 1004 q 672 958 567 1004 q 840 838 776 913 q 934 672 904 763 q 964 490 964 581 q 924 286 964 376 q 815 132 885 196 q 656 34 746 68 q 467 0 567 0 l 144 0 m 279 129 l 440 129 q 594 154 524 129 q 716 226 664 179 q 797 342 768 274 q 826 499 826 411 q 796 662 826 592 q 713 779 765 732 q 593 851 660 826 q 453 875 526 875 l 279 875 l 279 129 z "},"E":{"ha":906,"x_min":144,"x_max":817,"o":"m 144 1004 l 797 1004 l 797 875 l 279 875 l 279 569 l 742 569 l 742 440 l 279 440 l 279 129 l 817 129 l 817 0 l 144 0 l 144 1004 z "},"É":{"ha":906,"x_min":144,"x_max":817,"o":"m 144 1004 l 797 1004 l 797 875 l 279 875 l 279 569 l 742 569 l 742 440 l 279 440 l 279 129 l 817 129 l 817 0 l 144 0 l 144 1004 z "},"Ĕ":{"ha":906,"x_min":144,"x_max":817,"o":"m 144 1004 l 797 1004 l 797 875 l 279 875 l 279 569 l 742 569 l 742 440 l 279 440 l 279 129 l 817 129 l 817 0 l 144 0 l 144 1004 z "},"Ě":{"ha":906,"x_min":144,"x_max":817,"o":"m 144 1004 l 797 1004 l 797 875 l 279 875 l 279 569 l 742 569 l 742 440 l 279 440 l 279 129 l 817 129 l 817 0 l 144 0 l 144 1004 z "},"Ê":{"ha":906,"x_min":144,"x_max":817,"o":"m 144 1004 l 797 1004 l 797 875 l 279 875 l 279 569 l 742 569 l 742 440 l 279 440 l 279 129 l 817 129 l 817 0 l 144 0 l 144 1004 z "},"Ế":{"ha":906,"x_min":144,"x_max":844,"o":"m 144 1004 l 797 1004 l 797 875 l 279 875 l 279 569 l 742 569 l 742 440 l 279 440 l 279 129 l 817 129 l 817 0 l 144 0 l 144 1004 z "},"Ệ":{"ha":906,"x_min":144,"x_max":817,"o":"m 144 1004 l 797 1004 l 797 875 l 279 875 l 279 569 l 742 569 l 742 440 l 279 440 l 279 129 l 817 129 l 817 0 l 144 0 l 144 1004 z "},"Ề":{"ha":906,"x_min":40,"x_max":817,"o":"m 144 1004 l 797 1004 l 797 875 l 279 875 l 279 569 l 742 569 l 742 440 l 279 440 l 279 129 l 817 129 l 817 0 l 144 0 l 144 1004 z "},"Ể":{"ha":906,"x_min":144,"x_max":817,"o":"m 144 1004 l 797 1004 l 797 875 l 279 875 l 279 569 l 742 569 l 742 440 l 279 440 l 279 129 l 817 129 l 817 0 l 144 0 l 144 1004 z "},"Ễ":{"ha":906,"x_min":144,"x_max":817,"o":"m 144 1004 l 797 1004 l 797 875 l 279 875 l 279 569 l 742 569 l 742 440 l 279 440 l 279 129 l 817 129 l 817 0 l 144 0 l 144 1004 z "},"Ȅ":{"ha":906,"x_min":144,"x_max":817,"o":"m 144 1004 l 797 1004 l 797 875 l 279 875 l 279 569 l 742 569 l 742 440 l 279 440 l 279 129 l 817 129 l 817 0 l 144 0 l 144 1004 z "},"Ë":{"ha":906,"x_min":144,"x_max":817,"o":"m 144 1004 l 797 1004 l 797 875 l 279 875 l 279 569 l 742 569 l 742 440 l 279 440 l 279 129 l 817 129 l 817 0 l 144 0 l 144 1004 z "},"Ė":{"ha":906,"x_min":144,"x_max":817,"o":"m 144 1004 l 797 1004 l 797 875 l 279 875 l 279 569 l 742 569 l 742 440 l 279 440 l 279 129 l 817 129 l 817 0 l 144 0 l 144 1004 z "},"Ẹ":{"ha":906,"x_min":144,"x_max":817,"o":"m 144 1004 l 797 1004 l 797 875 l 279 875 l 279 569 l 742 569 l 742 440 l 279 440 l 279 129 l 817 129 l 817 0 l 144 0 l 144 1004 z "},"È":{"ha":906,"x_min":144,"x_max":817,"o":"m 144 1004 l 797 1004 l 797 875 l 279 875 l 279 569 l 742 569 l 742 440 l 279 440 l 279 129 l 817 129 l 817 0 l 144 0 l 144 1004 z "},"Ẻ":{"ha":906,"x_min":144,"x_max":817,"o":"m 144 1004 l 797 1004 l 797 875 l 279 875 l 279 569 l 742 569 l 742 440 l 279 440 l 279 129 l 817 129 l 817 0 l 144 0 l 144 1004 z "},"Ȇ":{"ha":906,"x_min":144,"x_max":817,"o":"m 144 1004 l 797 1004 l 797 875 l 279 875 l 279 569 l 742 569 l 742 440 l 279 440 l 279 129 l 817 129 l 817 0 l 144 0 l 144 1004 m 458 1286 q 561 1258 518 1286 q 632 1174 604 1229 q 668 1042 660 1119 l 581 1042 q 560 1122 575 1086 q 520 1177 544 1157 q 458 1197 496 1197 q 399 1177 424 1197 q 359 1122 374 1157 q 339 1042 344 1086 l 250 1042 q 287 1176 260 1121 q 358 1258 314 1231 q 458 1286 401 1286 z "},"Ē":{"ha":906,"x_min":144,"x_max":817,"o":"m 144 1004 l 797 1004 l 797 875 l 279 875 l 279 569 l 742 569 l 742 440 l 279 440 l 279 129 l 817 129 l 817 0 l 144 0 l 144 1004 z "},"Ę":{"ha":906,"x_min":144,"x_max":868,"o":"m 144 1004 l 797 1004 l 797 875 l 279 875 l 279 569 l 742 569 l 742 440 l 279 440 l 279 129 l 817 129 l 817 0 l 144 0 l 144 1004 z "},"Ẽ":{"ha":906,"x_min":144,"x_max":817,"o":"m 144 1004 l 797 1004 l 797 875 l 279 875 l 279 569 l 742 569 l 742 440 l 279 440 l 279 129 l 817 129 l 817 0 l 144 0 l 144 1004 m 571 1114 q 498 1134 526 1114 q 444 1176 469 1154 q 411 1205 428 1192 q 374 1218 394 1218 q 344 1205 357 1218 q 324 1169 331 1192 q 317 1113 317 1146 l 247 1114 q 259 1211 243 1168 q 306 1279 275 1254 q 381 1304 338 1304 q 443 1285 417 1304 q 492 1244 469 1265 q 529 1210 511 1225 q 568 1196 547 1196 q 608 1226 596 1196 q 619 1306 619 1256 l 689 1304 q 680 1204 694 1247 q 636 1138 665 1161 q 571 1114 607 1114 z "},"F":{"ha":818,"x_min":144,"x_max":740,"o":"m 144 1004 l 740 1004 l 740 875 l 279 875 l 279 554 l 683 554 l 683 426 l 279 426 l 279 0 l 144 0 l 144 1004 z "},"G":{"ha":1043,"x_min":82,"x_max":931,"o":"m 931 86 q 872 51 910 68 q 790 19 835 33 q 697 -3 744 6 q 607 -11 649 -11 q 390 26 486 -11 q 224 131 293 64 q 119 288 156 197 q 82 483 82 378 q 123 708 82 608 q 235 876 164 807 q 400 980 307 944 q 597 1015 493 1015 q 760 994 685 1015 q 892 942 835 974 l 846 818 q 777 849 818 835 q 693 872 736 863 q 613 881 650 881 q 451 853 524 881 q 328 776 379 826 q 249 653 276 725 q 221 493 221 582 q 249 343 221 411 q 328 226 276 275 q 451 149 379 176 q 608 122 522 122 q 710 133 660 122 q 796 163 760 143 l 796 363 l 596 363 l 596 492 l 931 492 l 931 86 z "},"Ğ":{"ha":1043,"x_min":82,"x_max":931,"o":"m 931 86 q 872 51 910 68 q 790 19 835 33 q 697 -3 744 6 q 607 -11 649 -11 q 390 26 486 -11 q 224 131 293 64 q 119 288 156 197 q 82 483 82 378 q 123 708 82 608 q 235 876 164 807 q 400 980 307 944 q 597 1015 493 1015 q 760 994 685 1015 q 892 942 835 974 l 846 818 q 777 849 818 835 q 693 872 736 863 q 613 881 650 881 q 451 853 524 881 q 328 776 379 826 q 249 653 276 725 q 221 493 221 582 q 249 343 221 411 q 328 226 276 275 q 451 149 379 176 q 608 122 522 122 q 710 133 660 122 q 796 163 760 143 l 796 363 l 596 363 l 596 492 l 931 492 l 931 86 z "},"Ǧ":{"ha":1043,"x_min":82,"x_max":931,"o":"m 931 86 q 872 51 910 68 q 790 19 835 33 q 697 -3 744 6 q 607 -11 649 -11 q 390 26 486 -11 q 224 131 293 64 q 119 288 156 197 q 82 483 82 378 q 123 708 82 608 q 235 876 164 807 q 400 980 307 944 q 597 1015 493 1015 q 760 994 685 1015 q 892 942 835 974 l 846 818 q 777 849 818 835 q 693 872 736 863 q 613 881 650 881 q 451 853 524 881 q 328 776 379 826 q 249 653 276 725 q 221 493 221 582 q 249 343 221 411 q 328 226 276 275 q 451 149 379 176 q 608 122 522 122 q 710 133 660 122 q 796 163 760 143 l 796 363 l 596 363 l 596 492 l 931 492 l 931 86 z "},"Ĝ":{"ha":1043,"x_min":82,"x_max":931,"o":"m 931 86 q 872 51 910 68 q 790 19 835 33 q 697 -3 744 6 q 607 -11 649 -11 q 390 26 486 -11 q 224 131 293 64 q 119 288 156 197 q 82 483 82 378 q 123 708 82 608 q 235 876 164 807 q 400 980 307 944 q 597 1015 493 1015 q 760 994 685 1015 q 892 942 835 974 l 846 818 q 777 849 818 835 q 693 872 736 863 q 613 881 650 881 q 451 853 524 881 q 328 776 379 826 q 249 653 276 725 q 221 493 221 582 q 249 343 221 411 q 328 226 276 275 q 451 149 379 176 q 608 122 522 122 q 710 133 660 122 q 796 163 760 143 l 796 363 l 596 363 l 596 492 l 931 492 l 931 86 z "},"Ģ":{"ha":1043,"x_min":82,"x_max":931,"o":"m 931 86 q 872 51 910 68 q 790 19 835 33 q 697 -3 744 6 q 607 -11 649 -11 q 390 26 486 -11 q 224 131 293 64 q 119 288 156 197 q 82 483 82 378 q 123 708 82 608 q 235 876 164 807 q 400 980 307 944 q 597 1015 493 1015 q 760 994 685 1015 q 892 942 835 974 l 846 818 q 777 849 818 835 q 693 872 736 863 q 613 881 650 881 q 451 853 524 881 q 328 776 379 826 q 249 653 276 725 q 221 493 221 582 q 249 343 221 411 q 328 226 276 275 q 451 149 379 176 q 608 122 522 122 q 710 133 660 122 q 796 163 760 143 l 796 363 l 596 363 l 596 492 l 931 492 l 931 86 z "},"Ġ":{"ha":1043,"x_min":82,"x_max":931,"o":"m 931 86 q 872 51 910 68 q 790 19 835 33 q 697 -3 744 6 q 607 -11 649 -11 q 390 26 486 -11 q 224 131 293 64 q 119 288 156 197 q 82 483 82 378 q 123 708 82 608 q 235 876 164 807 q 400 980 307 944 q 597 1015 493 1015 q 760 994 685 1015 q 892 942 835 974 l 846 818 q 777 849 818 835 q 693 872 736 863 q 613 881 650 881 q 451 853 524 881 q 328 776 379 826 q 249 653 276 725 q 221 493 221 582 q 249 343 221 411 q 328 226 276 275 q 451 149 379 176 q 608 122 522 122 q 710 133 660 122 q 796 163 760 143 l 796 363 l 596 363 l 596 492 l 931 492 l 931 86 z "},"H":{"ha":1083,"x_min":144,"x_max":939,"o":"m 939 1004 l 939 0 l 806 0 l 806 440 l 279 440 l 279 0 l 144 0 l 144 1004 l 279 1004 l 279 568 l 806 568 l 806 1004 l 939 1004 z "},"Ħ":{"ha":1310,"x_min":144,"x_max":1165,"o":"m 144 790 l 1165 790 l 1165 689 l 144 689 l 144 790 m 1044 1004 l 1044 0 l 910 0 l 910 440 l 385 440 l 385 0 l 250 0 l 250 1004 l 385 1004 l 385 568 l 910 568 l 910 1004 l 1044 1004 z "},"Ĥ":{"ha":1083,"x_min":144,"x_max":939,"o":"m 939 1004 l 939 0 l 806 0 l 806 440 l 279 440 l 279 0 l 144 0 l 144 1004 l 279 1004 l 279 568 l 806 568 l 806 1004 l 939 1004 z "},"I":{"ha":424,"x_min":144,"x_max":279,"o":"m 144 1004 l 279 1004 l 279 0 l 144 0 l 144 1004 z "},"Ĳ":{"ha":931,"x_min":144,"x_max":786,"o":"m 144 1004 l 279 1004 l 279 0 l 144 0 l 144 1004 m 786 182 q 740 -26 786 60 q 613 -158 693 -112 q 428 -207 532 -203 l 428 -207 l 428 -76 q 588 -8 525 -71 q 651 186 651 56 l 651 1004 l 786 1004 l 786 182 z "},"Í":{"ha":424,"x_min":144,"x_max":426,"o":"m 144 1004 l 279 1004 l 279 0 l 144 0 l 144 1004 z "},"Ĭ":{"ha":424,"x_min":4,"x_max":422,"o":"m 144 1004 l 279 1004 l 279 0 l 144 0 l 144 1004 z "},"Î":{"ha":424,"x_min":-25,"x_max":438,"o":"m 144 1004 l 279 1004 l 279 0 l 144 0 l 144 1004 z "},"Ȉ":{"ha":424,"x_min":-65,"x_max":375,"o":"m 144 1004 l 279 1004 l 279 0 l 144 0 l 144 1004 z "},"Ï":{"ha":424,"x_min":4,"x_max":408,"o":"m 144 1004 l 279 1004 l 279 0 l 144 0 l 144 1004 z "},"İ":{"ha":424,"x_min":136,"x_max":289,"o":"m 144 1004 l 279 1004 l 279 0 l 144 0 l 144 1004 z "},"Ị":{"ha":424,"x_min":133,"x_max":286,"o":"m 144 1004 l 279 1004 l 279 0 l 144 0 l 144 1004 z "},"Ì":{"ha":424,"x_min":3,"x_max":279,"o":"m 144 1004 l 279 1004 l 279 0 l 144 0 l 144 1004 z "},"Ỉ":{"ha":424,"x_min":106,"x_max":342,"o":"m 144 1004 l 279 1004 l 279 0 l 144 0 l 144 1004 z "},"Ȋ":{"ha":424,"x_min":-1,"x_max":417,"o":"m 144 1004 l 279 1004 l 279 0 l 144 0 l 144 1004 m 206 1286 q 308 1258 265 1286 q 379 1174 351 1229 q 415 1042 407 1119 l 328 1042 q 307 1122 322 1086 q 267 1177 292 1157 q 206 1197 243 1197 q 146 1177 171 1197 q 106 1122 121 1157 q 86 1042 92 1086 l -3 1042 q 34 1176 7 1121 q 105 1258 61 1231 q 206 1286 149 1286 z "},"Ī":{"ha":424,"x_min":38,"x_max":379,"o":"m 144 1004 l 279 1004 l 279 0 l 144 0 l 144 1004 z "},"Į":{"ha":379,"x_min":19,"x_max":339,"o":"m 182 -299 q 67 -261 115 -299 q 19 -156 19 -224 q 54 -62 19 -107 q 144 7 89 -18 l 250 8 l 274 0 q 167 -62 206 -31 q 128 -137 128 -94 q 149 -190 128 -174 q 194 -206 169 -206 q 246 -188 222 -206 q 289 -140 269 -171 l 339 -206 q 270 -272 314 -246 q 182 -299 226 -299 m 144 1004 l 279 1004 l 279 0 l 144 0 l 144 1004 z "},"Ĩ":{"ha":424,"x_min":-10,"x_max":442,"o":"m 144 1004 l 279 1004 l 279 0 l 144 0 l 144 1004 m 318 1114 q 245 1134 274 1114 q 192 1176 217 1154 q 158 1205 175 1192 q 121 1218 142 1218 q 91 1205 104 1218 q 71 1169 78 1192 q 64 1113 64 1146 l -6 1114 q 6 1211 -10 1168 q 53 1279 22 1254 q 128 1304 85 1304 q 190 1285 164 1304 q 239 1244 217 1265 q 276 1210 258 1225 q 315 1196 294 1196 q 355 1226 343 1196 q 367 1306 367 1256 l 436 1304 q 427 1204 442 1247 q 383 1138 413 1161 q 318 1114 354 1114 z "},"J":{"ha":507,"x_min":4,"x_max":363,"o":"m 363 182 q 316 -26 363 60 q 189 -158 269 -112 q 4 -207 108 -203 l 4 -207 l 4 -76 q 165 -8 101 -71 q 228 186 228 56 l 228 1004 l 363 1004 l 363 182 z "},"Ĵ":{"ha":507,"x_min":4,"x_max":519,"o":"m 363 182 q 316 -26 363 60 q 189 -158 269 -112 q 4 -207 108 -203 l 4 -207 l 4 -76 q 165 -8 101 -71 q 228 186 228 56 l 228 1004 l 363 1004 l 363 182 z "},"K":{"ha":943,"x_min":144,"x_max":903,"o":"m 281 600 l 276 550 l 294 575 l 706 1004 l 879 1004 l 464 574 l 903 0 l 732 0 l 365 488 l 281 406 l 281 0 l 144 0 l 144 1004 l 281 1004 l 281 600 z "},"Ķ":{"ha":943,"x_min":144,"x_max":903,"o":"m 281 600 l 276 550 l 294 575 l 706 1004 l 879 1004 l 464 574 l 903 0 l 732 0 l 365 488 l 281 406 l 281 0 l 144 0 l 144 1004 l 281 1004 l 281 600 z "},"L":{"ha":864,"x_min":144,"x_max":789,"o":"m 144 1004 l 279 1004 l 279 129 l 789 129 l 789 0 l 144 0 l 144 1004 z "},"Ǉ":{"ha":1371,"x_min":144,"x_max":1226,"o":"m 144 1004 l 279 1004 l 279 129 l 789 129 l 789 0 l 144 0 l 144 1004 m 1226 182 q 1180 -26 1226 60 q 1053 -158 1133 -112 q 868 -207 972 -203 l 868 -207 l 868 -76 q 1028 -8 965 -71 q 1092 186 1092 56 l 1092 1004 l 1226 1004 l 1226 182 z "},"Ĺ":{"ha":864,"x_min":144,"x_max":789,"o":"m 144 1004 l 279 1004 l 279 129 l 789 129 l 789 0 l 144 0 l 144 1004 z "},"Ľ":{"ha":853,"x_min":144,"x_max":789,"o":"m 144 1004 l 279 1004 l 279 129 l 789 129 l 789 0 l 144 0 l 144 1004 m 572 783 l 507 817 q 553 893 536 844 q 561 990 571 942 l 664 1000 q 661 919 672 961 q 626 840 650 876 q 572 783 603 804 l 572 783 z "},"Ļ":{"ha":864,"x_min":144,"x_max":789,"o":"m 144 1004 l 279 1004 l 279 129 l 789 129 l 789 0 l 144 0 l 144 1004 z "},"Ŀ":{"ha":874,"x_min":144,"x_max":810,"o":"m 144 1004 l 279 1004 l 279 129 l 789 129 l 789 0 l 144 0 l 144 1004 z "},"ǈ":{"ha":1224,"x_min":144,"x_max":1133,"o":"m 144 1004 l 279 1004 l 279 129 l 789 129 l 789 0 l 144 0 l 144 1004 z "},"Ł":{"ha":853,"x_min":22,"x_max":789,"o":"m 538 642 l 564 536 l 47 367 l 22 472 l 538 642 m 144 1004 l 279 1004 l 279 129 l 789 129 l 789 0 l 144 0 l 144 1004 z "},"M":{"ha":1288,"x_min":144,"x_max":1143,"o":"m 144 0 l 144 1036 l 146 1036 l 672 289 l 615 300 l 1140 1036 l 1143 1036 l 1143 0 l 1010 0 l 1010 731 l 1018 663 l 639 126 l 636 126 l 251 663 l 275 725 l 275 0 l 144 0 z "},"N":{"ha":1163,"x_min":144,"x_max":1018,"o":"m 1014 -32 l 238 756 l 276 746 l 279 0 l 144 0 l 144 1035 l 151 1035 l 919 244 l 888 251 l 885 1004 l 1018 1004 l 1018 -32 l 1014 -32 z "},"Ǌ":{"ha":1669,"x_min":144,"x_max":1525,"o":"m 1014 -32 l 238 756 l 276 746 l 279 0 l 144 0 l 144 1035 l 151 1035 l 919 244 l 888 251 l 885 1004 l 1018 1004 l 1018 -32 l 1014 -32 m 1525 182 q 1478 -26 1525 60 q 1351 -158 1432 -112 q 1167 -207 1271 -203 l 1167 -207 l 1167 -76 q 1327 -8 1264 -71 q 1390 186 1390 56 l 1390 1004 l 1525 1004 l 1525 182 z "},"Ń":{"ha":1163,"x_min":144,"x_max":1018,"o":"m 1014 -32 l 238 756 l 276 746 l 279 0 l 144 0 l 144 1035 l 151 1035 l 919 244 l 888 251 l 885 1004 l 1018 1004 l 1018 -32 l 1014 -32 z "},"Ň":{"ha":1163,"x_min":144,"x_max":1018,"o":"m 1014 -32 l 238 756 l 276 746 l 279 0 l 144 0 l 144 1035 l 151 1035 l 919 244 l 888 251 l 885 1004 l 1018 1004 l 1018 -32 l 1014 -32 z "},"Ņ":{"ha":1163,"x_min":144,"x_max":1018,"o":"m 1014 -32 l 238 756 l 276 746 l 279 0 l 144 0 l 144 1035 l 151 1035 l 919 244 l 888 251 l 885 1004 l 1018 1004 l 1018 -32 l 1014 -32 z "},"Ŋ":{"ha":1119,"x_min":124,"x_max":996,"o":"m 992 -32 l 217 758 l 254 746 l 257 0 l 124 0 l 124 1035 l 129 1035 l 897 242 l 865 251 l 863 1004 l 996 1004 l 996 -3 l 992 -32 m 996 58 l 996 -4 q 963 -165 996 -96 q 861 -276 929 -233 l 785 -197 q 846 -115 824 -164 q 868 1 868 -65 l 868 175 l 996 58 z "},"Ɲ":{"ha":1140,"x_min":40,"x_max":996,"o":"m 992 -32 l 217 757 l 254 746 l 257 0 l 124 0 l 124 1035 l 129 1035 l 897 244 l 865 251 l 863 1004 l 996 1004 l 996 -3 l 992 -32 m 257 58 l 257 -4 q 224 -165 257 -96 q 122 -276 192 -233 l 40 -197 q 101 -115 79 -164 q 124 1 124 -65 l 124 175 l 257 58 z "},"ǋ":{"ha":1524,"x_min":144,"x_max":1432,"o":"m 1014 -32 l 238 756 l 276 746 l 279 0 l 144 0 l 144 1035 l 151 1035 l 919 244 l 888 251 l 885 1004 l 1018 1004 l 1018 -32 l 1014 -32 z "},"Ñ":{"ha":1163,"x_min":144,"x_max":1018,"o":"m 1014 -32 l 238 756 l 276 746 l 279 0 l 144 0 l 144 1035 l 151 1035 l 919 244 l 888 251 l 885 1004 l 1018 1004 l 1018 -32 l 1014 -32 m 671 1096 q 598 1116 626 1096 q 544 1158 569 1136 q 511 1187 528 1174 q 474 1200 494 1200 q 444 1187 457 1200 q 424 1151 431 1174 q 417 1094 417 1128 l 347 1096 q 359 1193 343 1150 q 406 1261 375 1236 q 481 1286 438 1286 q 543 1267 517 1286 q 592 1226 569 1247 q 629 1192 611 1207 q 668 1178 647 1178 q 708 1208 696 1178 q 719 1288 719 1238 l 789 1286 q 780 1186 794 1229 q 736 1119 765 1143 q 671 1096 707 1096 z "},"O":{"ha":1190,"x_min":82,"x_max":1108,"o":"m 82 501 q 122 698 82 606 q 232 862 161 790 q 395 974 303 933 q 594 1015 488 1015 q 792 974 700 1015 q 956 862 885 933 q 1068 698 1028 790 q 1108 501 1108 606 q 1068 301 1108 394 q 956 138 1028 208 q 792 28 885 68 q 594 -11 700 -11 q 395 28 488 -11 q 232 136 303 67 q 122 299 161 206 q 82 501 82 392 m 221 500 q 250 352 221 421 q 331 231 279 283 q 450 148 382 178 q 597 118 518 118 q 743 148 675 118 q 861 231 811 178 q 940 352 911 283 q 969 501 969 421 q 940 651 969 581 q 860 774 911 721 q 740 856 808 826 q 594 886 672 886 q 447 856 515 886 q 328 772 379 825 q 249 649 276 719 q 221 500 221 579 z "},"Ó":{"ha":1190,"x_min":82,"x_max":1108,"o":"m 82 501 q 122 698 82 606 q 232 862 161 790 q 395 974 303 933 q 594 1015 488 1015 q 792 974 700 1015 q 956 862 885 933 q 1068 698 1028 790 q 1108 501 1108 606 q 1068 301 1108 394 q 956 138 1028 208 q 792 28 885 68 q 594 -11 700 -11 q 395 28 488 -11 q 232 136 303 67 q 122 299 161 206 q 82 501 82 392 m 221 500 q 250 352 221 421 q 331 231 279 283 q 450 148 382 178 q 597 118 518 118 q 743 148 675 118 q 861 231 811 178 q 940 352 911 283 q 969 501 969 421 q 940 651 969 581 q 860 774 911 721 q 740 856 808 826 q 594 886 672 886 q 447 856 515 886 q 328 772 379 825 q 249 649 276 719 q 221 500 221 579 z "},"Ŏ":{"ha":1190,"x_min":82,"x_max":1108,"o":"m 82 501 q 122 698 82 606 q 232 862 161 790 q 395 974 303 933 q 594 1015 488 1015 q 792 974 700 1015 q 956 862 885 933 q 1068 698 1028 790 q 1108 501 1108 606 q 1068 301 1108 394 q 956 138 1028 208 q 792 28 885 68 q 594 -11 700 -11 q 395 28 488 -11 q 232 136 303 67 q 122 299 161 206 q 82 501 82 392 m 221 500 q 250 352 221 421 q 331 231 279 283 q 450 148 382 178 q 597 118 518 118 q 743 148 675 118 q 861 231 811 178 q 940 352 911 283 q 969 501 969 421 q 940 651 969 581 q 860 774 911 721 q 740 856 808 826 q 594 886 672 886 q 447 856 515 886 q 328 772 379 825 q 249 649 276 719 q 221 500 221 579 z "},"Ô":{"ha":1190,"x_min":82,"x_max":1108,"o":"m 82 501 q 122 698 82 606 q 232 862 161 790 q 395 974 303 933 q 594 1015 488 1015 q 792 974 700 1015 q 956 862 885 933 q 1068 698 1028 790 q 1108 501 1108 606 q 1068 301 1108 394 q 956 138 1028 208 q 792 28 885 68 q 594 -11 700 -11 q 395 28 488 -11 q 232 136 303 67 q 122 299 161 206 q 82 501 82 392 m 221 500 q 250 352 221 421 q 331 231 279 283 q 450 148 382 178 q 597 118 518 118 q 743 148 675 118 q 861 231 811 178 q 940 352 911 283 q 969 501 969 421 q 940 651 969 581 q 860 774 911 721 q 740 856 808 826 q 594 886 672 886 q 447 856 515 886 q 328 772 379 825 q 249 649 276 719 q 221 500 221 579 z "},"Ố":{"ha":1190,"x_min":82,"x_max":1108,"o":"m 82 501 q 122 698 82 606 q 232 862 161 790 q 395 974 303 933 q 594 1015 488 1015 q 792 974 700 1015 q 956 862 885 933 q 1068 698 1028 790 q 1108 501 1108 606 q 1068 301 1108 394 q 956 138 1028 208 q 792 28 885 68 q 594 -11 700 -11 q 395 28 488 -11 q 232 136 303 67 q 122 299 161 206 q 82 501 82 392 m 221 500 q 250 352 221 421 q 331 231 279 283 q 450 148 382 178 q 597 118 518 118 q 743 148 675 118 q 861 231 811 178 q 940 352 911 283 q 969 501 969 421 q 940 651 969 581 q 860 774 911 721 q 740 856 808 826 q 594 886 672 886 q 447 856 515 886 q 328 772 379 825 q 249 649 276 719 q 221 500 221 579 z "},"Ộ":{"ha":1190,"x_min":82,"x_max":1108,"o":"m 82 501 q 122 698 82 606 q 232 862 161 790 q 395 974 303 933 q 594 1015 488 1015 q 792 974 700 1015 q 956 862 885 933 q 1068 698 1028 790 q 1108 501 1108 606 q 1068 301 1108 394 q 956 138 1028 208 q 792 28 885 68 q 594 -11 700 -11 q 395 28 488 -11 q 232 136 303 67 q 122 299 161 206 q 82 501 82 392 m 221 500 q 250 352 221 421 q 331 231 279 283 q 450 148 382 178 q 597 118 518 118 q 743 148 675 118 q 861 231 811 178 q 940 352 911 283 q 969 501 969 421 q 940 651 969 581 q 860 774 911 721 q 740 856 808 826 q 594 886 672 886 q 447 856 515 886 q 328 772 379 825 q 249 649 276 719 q 221 500 221 579 z "},"Ồ":{"ha":1190,"x_min":82,"x_max":1108,"o":"m 82 501 q 122 698 82 606 q 232 862 161 790 q 395 974 303 933 q 594 1015 488 1015 q 792 974 700 1015 q 956 862 885 933 q 1068 698 1028 790 q 1108 501 1108 606 q 1068 301 1108 394 q 956 138 1028 208 q 792 28 885 68 q 594 -11 700 -11 q 395 28 488 -11 q 232 136 303 67 q 122 299 161 206 q 82 501 82 392 m 221 500 q 250 352 221 421 q 331 231 279 283 q 450 148 382 178 q 597 118 518 118 q 743 148 675 118 q 861 231 811 178 q 940 352 911 283 q 969 501 969 421 q 940 651 969 581 q 860 774 911 721 q 740 856 808 826 q 594 886 672 886 q 447 856 515 886 q 328 772 379 825 q 249 649 276 719 q 221 500 221 579 z "},"Ổ":{"ha":1190,"x_min":82,"x_max":1108,"o":"m 82 501 q 122 698 82 606 q 232 862 161 790 q 395 974 303 933 q 594 1015 488 1015 q 792 974 700 1015 q 956 862 885 933 q 1068 698 1028 790 q 1108 501 1108 606 q 1068 301 1108 394 q 956 138 1028 208 q 792 28 885 68 q 594 -11 700 -11 q 395 28 488 -11 q 232 136 303 67 q 122 299 161 206 q 82 501 82 392 m 221 500 q 250 352 221 421 q 331 231 279 283 q 450 148 382 178 q 597 118 518 118 q 743 148 675 118 q 861 231 811 178 q 940 352 911 283 q 969 501 969 421 q 940 651 969 581 q 860 774 911 721 q 740 856 808 826 q 594 886 672 886 q 447 856 515 886 q 328 772 379 825 q 249 649 276 719 q 221 500 221 579 z "},"Ỗ":{"ha":1190,"x_min":82,"x_max":1108,"o":"m 82 501 q 122 698 82 606 q 232 862 161 790 q 395 974 303 933 q 594 1015 488 1015 q 792 974 700 1015 q 956 862 885 933 q 1068 698 1028 790 q 1108 501 1108 606 q 1068 301 1108 394 q 956 138 1028 208 q 792 28 885 68 q 594 -11 700 -11 q 395 28 488 -11 q 232 136 303 67 q 122 299 161 206 q 82 501 82 392 m 221 500 q 250 352 221 421 q 331 231 279 283 q 450 148 382 178 q 597 118 518 118 q 743 148 675 118 q 861 231 811 178 q 940 352 911 283 q 969 501 969 421 q 940 651 969 581 q 860 774 911 721 q 740 856 808 826 q 594 886 672 886 q 447 856 515 886 q 328 772 379 825 q 249 649 276 719 q 221 500 221 579 z "},"Ȍ":{"ha":1190,"x_min":82,"x_max":1108,"o":"m 82 501 q 122 698 82 606 q 232 862 161 790 q 395 974 303 933 q 594 1015 488 1015 q 792 974 700 1015 q 956 862 885 933 q 1068 698 1028 790 q 1108 501 1108 606 q 1068 301 1108 394 q 956 138 1028 208 q 792 28 885 68 q 594 -11 700 -11 q 395 28 488 -11 q 232 136 303 67 q 122 299 161 206 q 82 501 82 392 m 221 500 q 250 352 221 421 q 331 231 279 283 q 450 148 382 178 q 597 118 518 118 q 743 148 675 118 q 861 231 811 178 q 940 352 911 283 q 969 501 969 421 q 940 651 969 581 q 860 774 911 721 q 740 856 808 826 q 594 886 672 886 q 447 856 515 886 q 328 772 379 825 q 249 649 276 719 q 221 500 221 579 z "},"Ö":{"ha":1190,"x_min":82,"x_max":1108,"o":"m 82 501 q 122 698 82 606 q 232 862 161 790 q 395 974 303 933 q 594 1015 488 1015 q 792 974 700 1015 q 956 862 885 933 q 1068 698 1028 790 q 1108 501 1108 606 q 1068 301 1108 394 q 956 138 1028 208 q 792 28 885 68 q 594 -11 700 -11 q 395 28 488 -11 q 232 136 303 67 q 122 299 161 206 q 82 501 82 392 m 221 500 q 250 352 221 421 q 331 231 279 283 q 450 148 382 178 q 597 118 518 118 q 743 148 675 118 q 861 231 811 178 q 940 352 911 283 q 969 501 969 421 q 940 651 969 581 q 860 774 911 721 q 740 856 808 826 q 594 886 672 886 q 447 856 515 886 q 328 772 379 825 q 249 649 276 719 q 221 500 221 579 z "},"Ȫ":{"ha":1190,"x_min":82,"x_max":1108,"o":"m 82 501 q 122 698 82 606 q 232 862 161 790 q 395 974 303 933 q 594 1015 488 1015 q 792 974 700 1015 q 956 862 885 933 q 1068 698 1028 790 q 1108 501 1108 606 q 1068 301 1108 394 q 956 138 1028 208 q 792 28 885 68 q 594 -11 700 -11 q 395 28 488 -11 q 232 136 303 67 q 122 299 161 206 q 82 501 82 392 m 221 500 q 250 352 221 421 q 331 231 279 283 q 450 148 382 178 q 597 118 518 118 q 743 148 675 118 q 861 231 811 178 q 940 352 911 283 q 969 501 969 421 q 940 651 969 581 q 860 774 911 721 q 740 856 808 826 q 594 886 672 886 q 447 856 515 886 q 328 772 379 825 q 249 649 276 719 q 221 500 221 579 z "},"Ȱ":{"ha":1190,"x_min":82,"x_max":1108,"o":"m 82 501 q 122 698 82 606 q 232 862 161 790 q 395 974 303 933 q 594 1015 488 1015 q 792 974 700 1015 q 956 862 885 933 q 1068 698 1028 790 q 1108 501 1108 606 q 1068 301 1108 394 q 956 138 1028 208 q 792 28 885 68 q 594 -11 700 -11 q 395 28 488 -11 q 232 136 303 67 q 122 299 161 206 q 82 501 82 392 m 221 500 q 250 352 221 421 q 331 231 279 283 q 450 148 382 178 q 597 118 518 118 q 743 148 675 118 q 861 231 811 178 q 940 352 911 283 q 969 501 969 421 q 940 651 969 581 q 860 774 911 721 q 740 856 808 826 q 594 886 672 886 q 447 856 515 886 q 328 772 379 825 q 249 649 276 719 q 221 500 221 579 z "},"Ọ":{"ha":1190,"x_min":82,"x_max":1108,"o":"m 82 501 q 122 698 82 606 q 232 862 161 790 q 395 974 303 933 q 594 1015 488 1015 q 792 974 700 1015 q 956 862 885 933 q 1068 698 1028 790 q 1108 501 1108 606 q 1068 301 1108 394 q 956 138 1028 208 q 792 28 885 68 q 594 -11 700 -11 q 395 28 488 -11 q 232 136 303 67 q 122 299 161 206 q 82 501 82 392 m 221 500 q 250 352 221 421 q 331 231 279 283 q 450 148 382 178 q 597 118 518 118 q 743 148 675 118 q 861 231 811 178 q 940 352 911 283 q 969 501 969 421 q 940 651 969 581 q 860 774 911 721 q 740 856 808 826 q 594 886 672 886 q 447 856 515 886 q 328 772 379 825 q 249 649 276 719 q 221 500 221 579 z "},"Ò":{"ha":1190,"x_min":82,"x_max":1108,"o":"m 82 501 q 122 698 82 606 q 232 862 161 790 q 395 974 303 933 q 594 1015 488 1015 q 792 974 700 1015 q 956 862 885 933 q 1068 698 1028 790 q 1108 501 1108 606 q 1068 301 1108 394 q 956 138 1028 208 q 792 28 885 68 q 594 -11 700 -11 q 395 28 488 -11 q 232 136 303 67 q 122 299 161 206 q 82 501 82 392 m 221 500 q 250 352 221 421 q 331 231 279 283 q 450 148 382 178 q 597 118 518 118 q 743 148 675 118 q 861 231 811 178 q 940 352 911 283 q 969 501 969 421 q 940 651 969 581 q 860 774 911 721 q 740 856 808 826 q 594 886 672 886 q 447 856 515 886 q 328 772 379 825 q 249 649 276 719 q 221 500 221 579 z "},"Ỏ":{"ha":1190,"x_min":82,"x_max":1108,"o":"m 82 501 q 122 698 82 606 q 232 862 161 790 q 395 974 303 933 q 594 1015 488 1015 q 792 974 700 1015 q 956 862 885 933 q 1068 698 1028 790 q 1108 501 1108 606 q 1068 301 1108 394 q 956 138 1028 208 q 792 28 885 68 q 594 -11 700 -11 q 395 28 488 -11 q 232 136 303 67 q 122 299 161 206 q 82 501 82 392 m 221 500 q 250 352 221 421 q 331 231 279 283 q 450 148 382 178 q 597 118 518 118 q 743 148 675 118 q 861 231 811 178 q 940 352 911 283 q 969 501 969 421 q 940 651 969 581 q 860 774 911 721 q 740 856 808 826 q 594 886 672 886 q 447 856 515 886 q 328 772 379 825 q 249 649 276 719 q 221 500 221 579 z "},"Ơ":{"ha":1190,"x_min":82,"x_max":1108,"o":"m 82 501 q 122 698 82 606 q 232 862 161 790 q 395 974 303 933 q 594 1015 488 1015 q 792 974 700 1015 q 956 862 885 933 q 1068 698 1028 790 q 1108 501 1108 606 q 1068 301 1108 394 q 956 138 1028 208 q 792 28 885 68 q 594 -11 700 -11 q 395 28 488 -11 q 232 136 303 67 q 122 299 161 206 q 82 501 82 392 m 221 500 q 250 352 221 421 q 331 231 279 283 q 450 148 382 178 q 597 118 518 118 q 743 148 675 118 q 861 231 811 178 q 940 352 911 283 q 969 501 969 421 q 940 651 969 581 q 860 774 911 721 q 740 856 808 826 q 594 886 672 886 q 447 856 515 886 q 328 772 379 825 q 249 649 276 719 q 221 500 221 579 m 694 1004 q 777 1031 753 1004 q 808 1131 801 1058 l 906 1131 q 868 999 896 1043 q 797 940 840 954 q 694 925 753 925 l 694 1004 z "},"Ớ":{"ha":1190,"x_min":82,"x_max":1108,"o":"m 82 501 q 122 698 82 606 q 232 862 161 790 q 395 974 303 933 q 594 1015 488 1015 q 792 974 700 1015 q 956 862 885 933 q 1068 698 1028 790 q 1108 501 1108 606 q 1068 301 1108 394 q 956 138 1028 208 q 792 28 885 68 q 594 -11 700 -11 q 395 28 488 -11 q 232 136 303 67 q 122 299 161 206 q 82 501 82 392 m 221 500 q 250 352 221 421 q 331 231 279 283 q 450 148 382 178 q 597 118 518 118 q 743 148 675 118 q 861 231 811 178 q 940 352 911 283 q 969 501 969 421 q 940 651 969 581 q 860 774 911 721 q 740 856 808 826 q 594 886 672 886 q 447 856 515 886 q 328 772 379 825 q 249 649 276 719 q 221 500 221 579 m 694 1004 q 777 1031 753 1004 q 808 1131 801 1058 l 906 1131 q 868 999 896 1043 q 797 940 840 954 q 694 925 753 925 l 694 1004 z "},"Ợ":{"ha":1190,"x_min":82,"x_max":1108,"o":"m 82 501 q 122 698 82 606 q 232 862 161 790 q 395 974 303 933 q 594 1015 488 1015 q 792 974 700 1015 q 956 862 885 933 q 1068 698 1028 790 q 1108 501 1108 606 q 1068 301 1108 394 q 956 138 1028 208 q 792 28 885 68 q 594 -11 700 -11 q 395 28 488 -11 q 232 136 303 67 q 122 299 161 206 q 82 501 82 392 m 221 500 q 250 352 221 421 q 331 231 279 283 q 450 148 382 178 q 597 118 518 118 q 743 148 675 118 q 861 231 811 178 q 940 352 911 283 q 969 501 969 421 q 940 651 969 581 q 860 774 911 721 q 740 856 808 826 q 594 886 672 886 q 447 856 515 886 q 328 772 379 825 q 249 649 276 719 q 221 500 221 579 m 694 1004 q 777 1031 753 1004 q 808 1131 801 1058 l 906 1131 q 868 999 896 1043 q 797 940 840 954 q 694 925 753 925 l 694 1004 z "},"Ờ":{"ha":1190,"x_min":82,"x_max":1108,"o":"m 82 501 q 122 698 82 606 q 232 862 161 790 q 395 974 303 933 q 594 1015 488 1015 q 792 974 700 1015 q 956 862 885 933 q 1068 698 1028 790 q 1108 501 1108 606 q 1068 301 1108 394 q 956 138 1028 208 q 792 28 885 68 q 594 -11 700 -11 q 395 28 488 -11 q 232 136 303 67 q 122 299 161 206 q 82 501 82 392 m 221 500 q 250 352 221 421 q 331 231 279 283 q 450 148 382 178 q 597 118 518 118 q 743 148 675 118 q 861 231 811 178 q 940 352 911 283 q 969 501 969 421 q 940 651 969 581 q 860 774 911 721 q 740 856 808 826 q 594 886 672 886 q 447 856 515 886 q 328 772 379 825 q 249 649 276 719 q 221 500 221 579 m 694 1004 q 777 1031 753 1004 q 808 1131 801 1058 l 906 1131 q 868 999 896 1043 q 797 940 840 954 q 694 925 753 925 l 694 1004 z "},"Ở":{"ha":1190,"x_min":82,"x_max":1108,"o":"m 82 501 q 122 698 82 606 q 232 862 161 790 q 395 974 303 933 q 594 1015 488 1015 q 792 974 700 1015 q 956 862 885 933 q 1068 698 1028 790 q 1108 501 1108 606 q 1068 301 1108 394 q 956 138 1028 208 q 792 28 885 68 q 594 -11 700 -11 q 395 28 488 -11 q 232 136 303 67 q 122 299 161 206 q 82 501 82 392 m 221 500 q 250 352 221 421 q 331 231 279 283 q 450 148 382 178 q 597 118 518 118 q 743 148 675 118 q 861 231 811 178 q 940 352 911 283 q 969 501 969 421 q 940 651 969 581 q 860 774 911 721 q 740 856 808 826 q 594 886 672 886 q 447 856 515 886 q 328 772 379 825 q 249 649 276 719 q 221 500 221 579 m 694 1004 q 777 1031 753 1004 q 808 1131 801 1058 l 906 1131 q 868 999 896 1043 q 797 940 840 954 q 694 925 753 925 l 694 1004 z "},"Ỡ":{"ha":1190,"x_min":82,"x_max":1108,"o":"m 82 501 q 122 698 82 606 q 232 862 161 790 q 395 974 303 933 q 594 1015 488 1015 q 792 974 700 1015 q 956 862 885 933 q 1068 698 1028 790 q 1108 501 1108 606 q 1068 301 1108 394 q 956 138 1028 208 q 792 28 885 68 q 594 -11 700 -11 q 395 28 488 -11 q 232 136 303 67 q 122 299 161 206 q 82 501 82 392 m 221 500 q 250 352 221 421 q 331 231 279 283 q 450 148 382 178 q 597 118 518 118 q 743 148 675 118 q 861 231 811 178 q 940 352 911 283 q 969 501 969 421 q 940 651 969 581 q 860 774 911 721 q 740 856 808 826 q 594 886 672 886 q 447 856 515 886 q 328 772 379 825 q 249 649 276 719 q 221 500 221 579 m 694 1004 q 777 1031 753 1004 q 808 1131 801 1058 l 906 1131 q 868 999 896 1043 q 797 940 840 954 q 694 925 753 925 l 694 1004 m 701 1104 q 628 1124 657 1104 q 575 1167 600 1144 q 542 1195 558 1182 q 504 1208 525 1208 q 474 1195 488 1208 q 454 1159 461 1182 q 447 1103 447 1136 l 378 1104 q 390 1201 374 1158 q 437 1269 406 1244 q 511 1294 468 1294 q 574 1275 547 1294 q 622 1235 600 1256 q 660 1201 642 1215 q 699 1186 678 1186 q 738 1216 726 1186 q 750 1296 750 1246 l 819 1294 q 810 1194 825 1238 q 767 1128 796 1151 q 701 1104 738 1104 z "},"Ő":{"ha":1190,"x_min":82,"x_max":1108,"o":"m 82 501 q 122 698 82 606 q 232 862 161 790 q 395 974 303 933 q 594 1015 488 1015 q 792 974 700 1015 q 956 862 885 933 q 1068 698 1028 790 q 1108 501 1108 606 q 1068 301 1108 394 q 956 138 1028 208 q 792 28 885 68 q 594 -11 700 -11 q 395 28 488 -11 q 232 136 303 67 q 122 299 161 206 q 82 501 82 392 m 221 500 q 250 352 221 421 q 331 231 279 283 q 450 148 382 178 q 597 118 518 118 q 743 148 675 118 q 861 231 811 178 q 940 352 911 283 q 969 501 969 421 q 940 651 969 581 q 860 774 911 721 q 740 856 808 826 q 594 886 672 886 q 447 856 515 886 q 328 772 379 825 q 249 649 276 719 q 221 500 221 579 z "},"Ȏ":{"ha":1190,"x_min":82,"x_max":1108,"o":"m 82 501 q 122 698 82 606 q 232 862 161 790 q 395 974 303 933 q 594 1015 488 1015 q 792 974 700 1015 q 956 862 885 933 q 1068 698 1028 790 q 1108 501 1108 606 q 1068 301 1108 394 q 956 138 1028 208 q 792 28 885 68 q 594 -11 700 -11 q 395 28 488 -11 q 232 136 303 67 q 122 299 161 206 q 82 501 82 392 m 221 500 q 250 352 221 421 q 331 231 279 283 q 450 148 382 178 q 597 118 518 118 q 743 148 675 118 q 861 231 811 178 q 940 352 911 283 q 969 501 969 421 q 940 651 969 581 q 860 774 911 721 q 740 856 808 826 q 594 886 672 886 q 447 856 515 886 q 328 772 379 825 q 249 649 276 719 q 221 500 221 579 m 589 1276 q 692 1248 649 1276 q 763 1165 735 1219 q 799 1032 790 1110 l 711 1032 q 690 1112 706 1076 q 651 1167 675 1147 q 589 1188 626 1188 q 529 1167 554 1188 q 490 1112 504 1147 q 469 1032 475 1076 l 381 1032 q 417 1166 390 1111 q 488 1249 444 1221 q 589 1276 532 1276 z "},"Ō":{"ha":1190,"x_min":82,"x_max":1108,"o":"m 82 501 q 122 698 82 606 q 232 862 161 790 q 395 974 303 933 q 594 1015 488 1015 q 792 974 700 1015 q 956 862 885 933 q 1068 698 1028 790 q 1108 501 1108 606 q 1068 301 1108 394 q 956 138 1028 208 q 792 28 885 68 q 594 -11 700 -11 q 395 28 488 -11 q 232 136 303 67 q 122 299 161 206 q 82 501 82 392 m 221 500 q 250 352 221 421 q 331 231 279 283 q 450 148 382 178 q 597 118 518 118 q 743 148 675 118 q 861 231 811 178 q 940 352 911 283 q 969 501 969 421 q 940 651 969 581 q 860 774 911 721 q 740 856 808 826 q 594 886 672 886 q 447 856 515 886 q 328 772 379 825 q 249 649 276 719 q 221 500 221 579 z "},"Ǫ":{"ha":1190,"x_min":82,"x_max":1108,"o":"m 594 -11 q 395 28 488 -11 q 232 136 303 67 q 122 299 161 206 q 82 501 82 392 q 122 698 82 606 q 232 862 161 790 q 395 974 303 933 q 594 1015 488 1015 q 792 974 700 1015 q 956 862 885 933 q 1068 698 1028 790 q 1108 500 1108 606 q 1080 321 1108 399 q 1007 187 1051 243 q 913 90 963 131 q 828 27 869 54 q 753 -24 788 0 q 698 -74 718 -47 q 678 -136 678 -100 q 699 -190 678 -174 q 744 -206 719 -206 q 797 -188 774 -206 q 839 -140 819 -171 l 889 -206 q 820 -272 864 -246 q 733 -299 776 -299 q 618 -261 665 -299 q 571 -156 571 -224 q 589 -86 571 -118 q 638 -29 607 -54 q 706 11 668 -4 l 818 47 q 713 4 771 19 q 594 -11 654 -11 m 599 119 q 744 149 676 119 q 862 230 811 178 q 941 351 913 282 q 969 501 969 421 q 940 649 969 579 q 860 770 911 718 q 740 852 808 822 q 594 882 672 882 q 447 852 515 882 q 328 769 379 822 q 249 647 276 717 q 221 500 221 578 q 250 352 221 421 q 331 231 279 283 q 451 149 382 178 q 599 119 519 119 z "},"Ø":{"ha":1190,"x_min":82,"x_max":1108,"o":"m 1046 954 l 214 -19 l 129 57 l 963 1032 l 1046 954 m 82 501 q 122 698 82 606 q 232 862 161 790 q 395 974 303 933 q 594 1015 488 1015 q 792 974 700 1015 q 956 862 885 933 q 1068 698 1028 790 q 1108 501 1108 606 q 1068 301 1108 394 q 956 138 1028 208 q 792 28 885 68 q 594 -11 700 -11 q 395 28 488 -11 q 232 136 303 67 q 122 299 161 206 q 82 501 82 392 m 221 500 q 250 352 221 421 q 331 231 279 283 q 450 148 382 178 q 597 118 518 118 q 743 148 675 118 q 861 231 811 178 q 940 352 911 283 q 969 501 969 421 q 940 651 969 581 q 860 774 911 721 q 740 856 808 826 q 594 886 672 886 q 447 856 515 886 q 328 772 379 825 q 249 649 276 719 q 221 500 221 579 z "},"Ǿ":{"ha":1190,"x_min":82,"x_max":1108,"o":"m 1046 954 l 214 -19 l 129 57 l 963 1032 l 1046 954 m 82 501 q 122 698 82 606 q 232 862 161 790 q 395 974 303 933 q 594 1015 488 1015 q 792 974 700 1015 q 956 862 885 933 q 1068 698 1028 790 q 1108 501 1108 606 q 1068 301 1108 394 q 956 138 1028 208 q 792 28 885 68 q 594 -11 700 -11 q 395 28 488 -11 q 232 136 303 67 q 122 299 161 206 q 82 501 82 392 m 221 500 q 250 352 221 421 q 331 231 279 283 q 450 148 382 178 q 597 118 518 118 q 743 148 675 118 q 861 231 811 178 q 940 352 911 283 q 969 501 969 421 q 940 651 969 581 q 860 774 911 721 q 740 856 808 826 q 594 886 672 886 q 447 856 515 886 q 328 772 379 825 q 249 649 276 719 q 221 500 221 579 z "},"Õ":{"ha":1190,"x_min":82,"x_max":1108,"o":"m 82 501 q 122 698 82 606 q 232 862 161 790 q 395 974 303 933 q 594 1015 488 1015 q 792 974 700 1015 q 956 862 885 933 q 1068 698 1028 790 q 1108 501 1108 606 q 1068 301 1108 394 q 956 138 1028 208 q 792 28 885 68 q 594 -11 700 -11 q 395 28 488 -11 q 232 136 303 67 q 122 299 161 206 q 82 501 82 392 m 221 500 q 250 352 221 421 q 331 231 279 283 q 450 148 382 178 q 597 118 518 118 q 743 148 675 118 q 861 231 811 178 q 940 352 911 283 q 969 501 969 421 q 940 651 969 581 q 860 774 911 721 q 740 856 808 826 q 594 886 672 886 q 447 856 515 886 q 328 772 379 825 q 249 649 276 719 q 221 500 221 579 m 701 1104 q 628 1124 657 1104 q 575 1167 600 1144 q 542 1195 558 1182 q 504 1208 525 1208 q 474 1195 488 1208 q 454 1159 461 1182 q 447 1103 447 1136 l 378 1104 q 390 1201 374 1158 q 437 1269 406 1244 q 511 1294 468 1294 q 574 1275 547 1294 q 622 1235 600 1256 q 660 1201 642 1215 q 699 1186 678 1186 q 738 1216 726 1186 q 750 1296 750 1246 l 819 1294 q 810 1194 825 1238 q 767 1128 796 1151 q 701 1104 738 1104 z "},"Ȭ":{"ha":1190,"x_min":82,"x_max":1108,"o":"m 82 501 q 122 698 82 606 q 232 862 161 790 q 395 974 303 933 q 594 1015 488 1015 q 792 974 700 1015 q 956 862 885 933 q 1068 698 1028 790 q 1108 501 1108 606 q 1068 301 1108 394 q 956 138 1028 208 q 792 28 885 68 q 594 -11 700 -11 q 395 28 488 -11 q 232 136 303 67 q 122 299 161 206 q 82 501 82 392 m 221 500 q 250 352 221 421 q 331 231 279 283 q 450 148 382 178 q 597 118 518 118 q 743 148 675 118 q 861 231 811 178 q 940 352 911 283 q 969 501 969 421 q 940 651 969 581 q 860 774 911 721 q 740 856 808 826 q 594 886 672 886 q 447 856 515 886 q 328 772 379 825 q 249 649 276 719 q 221 500 221 579 m 701 1104 q 628 1124 657 1104 q 575 1167 600 1144 q 542 1195 558 1182 q 504 1208 525 1208 q 474 1195 488 1208 q 454 1159 461 1182 q 447 1103 447 1136 l 378 1104 q 390 1201 374 1158 q 437 1269 406 1244 q 511 1294 468 1294 q 574 1275 547 1294 q 622 1235 600 1256 q 660 1201 642 1215 q 699 1186 678 1186 q 738 1216 726 1186 q 750 1296 750 1246 l 819 1294 q 810 1194 825 1238 q 767 1128 796 1151 q 701 1104 738 1104 z "},"Œ":{"ha":1411,"x_min":93,"x_max":1307,"o":"m 688 872 q 647 880 668 878 q 606 882 626 882 q 460 852 528 882 q 340 769 392 822 q 260 647 289 717 q 231 500 231 578 q 260 352 231 421 q 341 231 289 283 q 462 149 393 178 q 608 119 531 119 q 690 129 650 119 l 731 4 q 668 -7 700 -3 q 604 -11 636 -11 q 406 28 499 -11 q 242 138 313 68 q 133 301 172 208 q 93 501 93 394 q 133 698 93 606 q 242 863 172 790 q 406 975 313 935 q 604 1015 499 1015 q 671 1010 639 1015 q 733 997 703 1006 l 688 872 m 678 1004 l 1288 1004 l 1288 879 l 815 879 l 815 567 l 1232 567 l 1232 440 l 815 440 l 815 129 l 1307 129 l 1307 0 l 678 0 l 678 1004 z "},"P":{"ha":826,"x_min":144,"x_max":763,"o":"m 413 1004 q 600 967 522 1004 q 720 861 678 931 q 763 693 763 792 q 744 576 763 633 q 687 472 726 518 q 583 397 647 425 q 428 369 519 369 l 279 369 l 279 0 l 144 0 l 144 1004 l 413 1004 m 426 499 q 525 518 486 499 q 586 567 564 538 q 618 631 608 597 q 628 690 628 664 q 618 753 628 721 q 585 813 608 786 q 526 858 563 840 q 435 875 489 875 l 279 875 l 279 499 l 426 499 z "},"Þ":{"ha":826,"x_min":144,"x_max":763,"o":"m 438 814 q 573 794 513 814 q 675 734 633 774 q 740 637 717 694 q 763 503 763 579 q 745 386 763 443 q 691 283 728 329 q 591 208 654 236 q 436 179 528 179 l 283 179 l 283 0 l 144 0 l 144 997 l 283 997 l 283 814 l 438 814 m 424 310 q 517 326 479 310 q 578 372 554 343 q 613 433 601 400 q 624 500 624 467 q 602 590 624 549 q 537 658 581 632 q 425 685 493 685 l 283 685 l 283 310 l 424 310 z "},"Q":{"ha":1232,"x_min":82,"x_max":1150,"o":"m 806 131 l 1150 131 l 1150 0 l 626 0 l 806 131 m 82 501 q 122 698 82 606 q 232 862 161 790 q 395 974 303 933 q 594 1015 488 1015 q 792 974 700 1015 q 956 862 885 933 q 1068 698 1028 790 q 1108 501 1108 606 q 1068 301 1108 394 q 956 138 1028 208 q 792 28 885 68 q 594 -11 700 -11 q 395 28 488 -11 q 232 136 303 67 q 122 299 161 206 q 82 501 82 392 m 221 500 q 250 352 221 421 q 331 231 279 283 q 450 149 382 178 q 597 119 518 119 q 743 149 675 119 q 861 231 811 178 q 940 352 911 283 q 969 501 969 421 q 940 649 969 579 q 860 770 911 718 q 740 852 808 822 q 594 882 672 882 q 447 852 515 882 q 328 769 379 822 q 249 647 276 717 q 221 500 221 578 z "},"R":{"ha":915,"x_min":144,"x_max":853,"o":"m 411 1004 q 552 984 488 1004 q 665 924 617 964 q 740 827 713 885 q 767 693 767 769 q 749 576 767 633 q 692 473 732 519 q 587 398 651 426 q 428 369 522 369 l 279 369 l 279 0 l 144 0 l 144 1004 l 411 1004 m 425 499 q 524 517 485 499 q 586 563 564 535 q 618 625 608 592 q 628 688 628 658 q 617 751 628 718 q 584 811 607 783 q 524 857 561 839 q 435 875 488 875 l 279 875 l 279 499 l 425 499 m 590 422 l 853 0 l 697 0 l 431 418 l 590 422 z "},"Ŕ":{"ha":915,"x_min":144,"x_max":853,"o":"m 411 1004 q 552 984 488 1004 q 665 924 617 964 q 740 827 713 885 q 767 693 767 769 q 749 576 767 633 q 692 473 732 519 q 587 398 651 426 q 428 369 522 369 l 279 369 l 279 0 l 144 0 l 144 1004 l 411 1004 m 425 499 q 524 517 485 499 q 586 563 564 535 q 618 625 608 592 q 628 688 628 658 q 617 751 628 718 q 584 811 607 783 q 524 857 561 839 q 435 875 488 875 l 279 875 l 279 499 l 425 499 m 590 422 l 853 0 l 697 0 l 431 418 l 590 422 z "},"Ř":{"ha":915,"x_min":144,"x_max":853,"o":"m 411 1004 q 552 984 488 1004 q 665 924 617 964 q 740 827 713 885 q 767 693 767 769 q 749 576 767 633 q 692 473 732 519 q 587 398 651 426 q 428 369 522 369 l 279 369 l 279 0 l 144 0 l 144 1004 l 411 1004 m 425 499 q 524 517 485 499 q 586 563 564 535 q 618 625 608 592 q 628 688 628 658 q 617 751 628 718 q 584 811 607 783 q 524 857 561 839 q 435 875 488 875 l 279 875 l 279 499 l 425 499 m 590 422 l 853 0 l 697 0 l 431 418 l 590 422 z "},"Ŗ":{"ha":915,"x_min":144,"x_max":853,"o":"m 411 1004 q 552 984 488 1004 q 665 924 617 964 q 740 827 713 885 q 767 693 767 769 q 749 576 767 633 q 692 473 732 519 q 587 398 651 426 q 428 369 522 369 l 279 369 l 279 0 l 144 0 l 144 1004 l 411 1004 m 425 499 q 524 517 485 499 q 586 563 564 535 q 618 625 608 592 q 628 688 628 658 q 617 751 628 718 q 584 811 607 783 q 524 857 561 839 q 435 875 488 875 l 279 875 l 279 499 l 425 499 m 590 422 l 853 0 l 697 0 l 431 418 l 590 422 z "},"Ȑ":{"ha":915,"x_min":138,"x_max":853,"o":"m 411 1004 q 552 984 488 1004 q 665 924 617 964 q 740 827 713 885 q 767 693 767 769 q 749 576 767 633 q 692 473 732 519 q 587 398 651 426 q 428 369 522 369 l 279 369 l 279 0 l 144 0 l 144 1004 l 411 1004 m 425 499 q 524 517 485 499 q 586 563 564 535 q 618 625 608 592 q 628 688 628 658 q 617 751 628 718 q 584 811 607 783 q 524 857 561 839 q 435 875 488 875 l 279 875 l 279 499 l 425 499 m 590 422 l 853 0 l 697 0 l 431 418 l 590 422 z "},"Ȓ":{"ha":915,"x_min":144,"x_max":853,"o":"m 411 1004 q 552 984 488 1004 q 665 924 617 964 q 740 827 713 885 q 767 693 767 769 q 749 576 767 633 q 692 473 732 519 q 587 398 651 426 q 428 369 522 369 l 279 369 l 279 0 l 144 0 l 144 1004 l 411 1004 m 425 499 q 524 517 485 499 q 586 563 564 535 q 618 625 608 592 q 628 688 628 658 q 617 751 628 718 q 584 811 607 783 q 524 857 561 839 q 435 875 488 875 l 279 875 l 279 499 l 425 499 m 590 422 l 853 0 l 697 0 l 431 418 l 590 422 m 408 1286 q 511 1258 468 1286 q 582 1174 554 1229 q 618 1042 610 1119 l 531 1042 q 510 1122 525 1086 q 470 1177 494 1157 q 408 1197 446 1197 q 349 1177 374 1197 q 309 1122 324 1157 q 289 1042 294 1086 l 200 1042 q 237 1176 210 1121 q 308 1258 264 1231 q 408 1286 351 1286 z "},"S":{"ha":808,"x_min":68,"x_max":726,"o":"m 664 825 q 551 871 613 851 q 432 890 490 890 q 303 853 351 890 q 256 753 256 815 q 286 673 256 706 q 367 617 317 640 q 471 572 417 593 q 564 532 518 554 q 647 476 610 510 q 705 394 683 443 q 726 274 726 346 q 687 129 726 194 q 574 26 647 64 q 399 -11 500 -11 q 272 4 332 -11 q 160 44 211 19 q 68 94 108 68 l 128 200 q 204 155 161 176 q 294 120 247 133 q 386 107 342 107 q 480 124 433 107 q 557 178 526 142 q 588 274 588 214 q 560 359 588 325 q 489 417 533 393 q 394 461 444 442 q 299 501 347 479 q 208 553 250 522 q 142 631 167 585 q 117 742 117 676 q 155 880 117 821 q 260 973 193 939 q 413 1010 326 1007 q 584 986 510 1010 q 715 928 658 963 l 664 825 z "},"Ś":{"ha":808,"x_min":68,"x_max":726,"o":"m 664 825 q 551 871 613 851 q 432 890 490 890 q 303 853 351 890 q 256 753 256 815 q 286 673 256 706 q 367 617 317 640 q 471 572 417 593 q 564 532 518 554 q 647 476 610 510 q 705 394 683 443 q 726 274 726 346 q 687 129 726 194 q 574 26 647 64 q 399 -11 500 -11 q 272 4 332 -11 q 160 44 211 19 q 68 94 108 68 l 128 200 q 204 155 161 176 q 294 120 247 133 q 386 107 342 107 q 480 124 433 107 q 557 178 526 142 q 588 274 588 214 q 560 359 588 325 q 489 417 533 393 q 394 461 444 442 q 299 501 347 479 q 208 553 250 522 q 142 631 167 585 q 117 742 117 676 q 155 880 117 821 q 260 973 193 939 q 413 1010 326 1007 q 584 986 510 1010 q 715 928 658 963 l 664 825 z "},"Š":{"ha":808,"x_min":68,"x_max":726,"o":"m 664 825 q 551 871 613 851 q 432 890 490 890 q 303 853 351 890 q 256 753 256 815 q 286 673 256 706 q 367 617 317 640 q 471 572 417 593 q 564 532 518 554 q 647 476 610 510 q 705 394 683 443 q 726 274 726 346 q 687 129 726 194 q 574 26 647 64 q 399 -11 500 -11 q 272 4 332 -11 q 160 44 211 19 q 68 94 108 68 l 128 200 q 204 155 161 176 q 294 120 247 133 q 386 107 342 107 q 480 124 433 107 q 557 178 526 142 q 588 274 588 214 q 560 359 588 325 q 489 417 533 393 q 394 461 444 442 q 299 501 347 479 q 208 553 250 522 q 142 631 167 585 q 117 742 117 676 q 155 880 117 821 q 260 973 193 939 q 413 1010 326 1007 q 584 986 510 1010 q 715 928 658 963 l 664 825 z "},"Ş":{"ha":808,"x_min":68,"x_max":726,"o":"m 664 825 q 551 871 613 851 q 432 890 490 890 q 303 853 351 890 q 256 753 256 815 q 286 673 256 706 q 367 617 317 640 q 471 572 417 593 q 564 532 518 554 q 647 476 610 510 q 705 394 683 443 q 726 274 726 346 q 687 129 726 194 q 574 26 647 64 q 399 -11 500 -11 q 272 4 332 -11 q 160 44 211 19 q 68 94 108 68 l 128 200 q 204 155 161 176 q 294 120 247 133 q 386 107 342 107 q 480 124 433 107 q 557 178 526 142 q 588 274 588 214 q 560 359 588 325 q 489 417 533 393 q 394 461 444 442 q 299 501 347 479 q 208 553 250 522 q 142 631 167 585 q 117 742 117 676 q 155 880 117 821 q 260 973 193 939 q 413 1010 326 1007 q 584 986 510 1010 q 715 928 658 963 l 664 825 z "},"Ŝ":{"ha":808,"x_min":68,"x_max":726,"o":"m 664 825 q 551 871 613 851 q 432 890 490 890 q 303 853 351 890 q 256 753 256 815 q 286 673 256 706 q 367 617 317 640 q 471 572 417 593 q 564 532 518 554 q 647 476 610 510 q 705 394 683 443 q 726 274 726 346 q 687 129 726 194 q 574 26 647 64 q 399 -11 500 -11 q 272 4 332 -11 q 160 44 211 19 q 68 94 108 68 l 128 200 q 204 155 161 176 q 294 120 247 133 q 386 107 342 107 q 480 124 433 107 q 557 178 526 142 q 588 274 588 214 q 560 359 588 325 q 489 417 533 393 q 394 461 444 442 q 299 501 347 479 q 208 553 250 522 q 142 631 167 585 q 117 742 117 676 q 155 880 117 821 q 260 973 193 939 q 413 1010 326 1007 q 584 986 510 1010 q 715 928 658 963 l 664 825 z "},"Ș":{"ha":808,"x_min":68,"x_max":726,"o":"m 664 825 q 551 871 613 851 q 432 890 490 890 q 303 853 351 890 q 256 753 256 815 q 286 673 256 706 q 367 617 317 640 q 471 572 417 593 q 564 532 518 554 q 647 476 610 510 q 705 394 683 443 q 726 274 726 346 q 687 129 726 194 q 574 26 647 64 q 399 -11 500 -11 q 272 4 332 -11 q 160 44 211 19 q 68 94 108 68 l 128 200 q 204 155 161 176 q 294 120 247 133 q 386 107 342 107 q 480 124 433 107 q 557 178 526 142 q 588 274 588 214 q 560 359 588 325 q 489 417 533 393 q 394 461 444 442 q 299 501 347 479 q 208 553 250 522 q 142 631 167 585 q 117 742 117 676 q 155 880 117 821 q 260 973 193 939 q 413 1010 326 1007 q 584 986 510 1010 q 715 928 658 963 l 664 825 z "},"ẞ":{"ha":1165,"x_min":144,"x_max":1088,"o":"m 794 -11 q 628 13 707 -11 q 483 81 549 38 l 543 186 q 659 130 593 153 q 785 107 725 107 q 859 122 821 107 q 923 169 897 138 q 949 251 949 201 q 925 319 949 292 q 865 370 901 347 q 786 417 828 393 q 680 481 732 444 q 593 568 628 517 q 558 689 558 619 q 586 812 558 758 q 668 898 614 865 q 800 935 722 931 q 863 925 840 935 q 903 901 886 915 l 861 836 q 733 917 806 890 q 583 944 660 944 q 422 902 490 944 q 317 770 354 860 q 279 539 279 681 l 279 0 l 144 0 l 144 544 q 192 809 144 694 q 335 988 240 924 q 568 1051 431 1051 q 723 1031 647 1051 q 860 977 799 1010 q 953 907 921 944 l 915 808 q 881 830 906 817 q 819 843 856 843 q 754 826 783 843 q 709 779 725 808 q 693 713 693 750 q 718 635 693 667 q 782 578 743 603 q 863 528 821 553 q 942 482 901 506 q 1015 428 982 458 q 1067 355 1047 397 q 1088 253 1088 313 q 1053 122 1088 182 q 953 26 1018 63 q 794 -11 888 -11 z "},"Ə":{"ha":1104,"x_min":67,"x_max":1022,"o":"m 521 1014 q 726 976 633 1014 q 884 871 818 939 q 986 712 950 803 q 1022 515 1022 621 q 983 310 1022 404 q 874 145 944 215 q 713 35 804 75 q 519 -4 622 -4 q 310 45 401 -4 q 156 185 218 94 q 67 400 94 276 l 893 696 l 924 596 l 182 324 l 224 367 q 337 186 260 257 q 528 115 414 115 q 664 146 600 115 q 776 230 728 176 q 853 355 825 283 q 881 508 881 426 q 852 656 881 588 q 773 776 824 725 q 658 855 722 826 q 519 883 593 883 q 413 867 467 883 q 311 824 358 851 q 232 760 264 796 l 165 868 q 267 942 207 908 q 395 994 328 975 q 521 1014 463 1014 z "},"T":{"ha":807,"x_min":71,"x_max":738,"o":"m 71 1004 l 738 1004 l 738 875 l 468 875 l 468 0 l 333 0 l 333 875 l 71 875 l 71 1004 z "},"Ŧ":{"ha":807,"x_min":71,"x_max":738,"o":"m 71 1004 l 738 1004 l 738 875 l 468 875 l 468 0 l 333 0 l 333 875 l 71 875 l 71 1004 m 207 558 l 592 558 l 592 438 l 207 438 l 207 558 z "},"Ť":{"ha":807,"x_min":71,"x_max":738,"o":"m 71 1004 l 738 1004 l 738 875 l 468 875 l 468 0 l 333 0 l 333 875 l 71 875 l 71 1004 z "},"Ţ":{"ha":807,"x_min":71,"x_max":738,"o":"m 71 1004 l 738 1004 l 738 875 l 468 875 l 468 0 l 333 0 l 333 875 l 71 875 l 71 1004 z "},"Ț":{"ha":807,"x_min":71,"x_max":738,"o":"m 71 1004 l 738 1004 l 738 875 l 468 875 l 468 0 l 333 0 l 333 875 l 71 875 l 71 1004 z "},"U":{"ha":1015,"x_min":132,"x_max":885,"o":"m 265 356 q 298 234 265 288 q 385 150 331 181 q 507 119 439 119 q 633 150 578 119 q 721 234 689 181 q 753 356 753 288 l 753 1004 l 885 1004 l 885 351 q 834 160 885 242 q 698 33 783 78 q 507 -11 613 -11 l 507 -11 q 317 33 401 -11 q 182 160 232 78 q 132 351 132 242 l 132 1004 l 265 1004 l 265 356 z "},"Ú":{"ha":1015,"x_min":132,"x_max":885,"o":"m 265 356 q 298 234 265 288 q 385 150 331 181 q 507 119 439 119 q 633 150 578 119 q 721 234 689 181 q 753 356 753 288 l 753 1004 l 885 1004 l 885 351 q 834 160 885 242 q 698 33 783 78 q 507 -11 613 -11 l 507 -11 q 317 33 401 -11 q 182 160 232 78 q 132 351 132 242 l 132 1004 l 265 1004 l 265 356 z "},"Ŭ":{"ha":1015,"x_min":132,"x_max":885,"o":"m 265 356 q 298 234 265 288 q 385 150 331 181 q 507 119 439 119 q 633 150 578 119 q 721 234 689 181 q 753 356 753 288 l 753 1004 l 885 1004 l 885 351 q 834 160 885 242 q 698 33 783 78 q 507 -11 613 -11 l 507 -11 q 317 33 401 -11 q 182 160 232 78 q 132 351 132 242 l 132 1004 l 265 1004 l 265 356 z "},"Ǔ":{"ha":1015,"x_min":132,"x_max":885,"o":"m 265 356 q 298 234 265 288 q 385 150 331 181 q 507 119 439 119 q 633 150 578 119 q 721 234 689 181 q 753 356 753 288 l 753 1004 l 885 1004 l 885 351 q 834 160 885 242 q 698 33 783 78 q 507 -11 613 -11 l 507 -11 q 317 33 401 -11 q 182 160 232 78 q 132 351 132 242 l 132 1004 l 265 1004 l 265 356 z "},"Û":{"ha":1015,"x_min":132,"x_max":885,"o":"m 265 356 q 298 234 265 288 q 385 150 331 181 q 507 119 439 119 q 633 150 578 119 q 721 234 689 181 q 753 356 753 288 l 753 1004 l 885 1004 l 885 351 q 834 160 885 242 q 698 33 783 78 q 507 -11 613 -11 l 507 -11 q 317 33 401 -11 q 182 160 232 78 q 132 351 132 242 l 132 1004 l 265 1004 l 265 356 z "},"Ȕ":{"ha":1015,"x_min":132,"x_max":885,"o":"m 265 356 q 298 234 265 288 q 385 150 331 181 q 507 119 439 119 q 633 150 578 119 q 721 234 689 181 q 753 356 753 288 l 753 1004 l 885 1004 l 885 351 q 834 160 885 242 q 698 33 783 78 q 507 -11 613 -11 l 507 -11 q 317 33 401 -11 q 182 160 232 78 q 132 351 132 242 l 132 1004 l 265 1004 l 265 356 z "},"Ü":{"ha":1015,"x_min":132,"x_max":885,"o":"m 265 356 q 298 234 265 288 q 385 150 331 181 q 507 119 439 119 q 633 150 578 119 q 721 234 689 181 q 753 356 753 288 l 753 1004 l 885 1004 l 885 351 q 834 160 885 242 q 698 33 783 78 q 507 -11 613 -11 l 507 -11 q 317 33 401 -11 q 182 160 232 78 q 132 351 132 242 l 132 1004 l 265 1004 l 265 356 z "},"Ụ":{"ha":1015,"x_min":132,"x_max":885,"o":"m 265 356 q 298 234 265 288 q 385 150 331 181 q 507 119 439 119 q 633 150 578 119 q 721 234 689 181 q 753 356 753 288 l 753 1004 l 885 1004 l 885 351 q 834 160 885 242 q 698 33 783 78 q 507 -11 613 -11 l 507 -11 q 317 33 401 -11 q 182 160 232 78 q 132 351 132 242 l 132 1004 l 265 1004 l 265 356 z "},"Ù":{"ha":1015,"x_min":132,"x_max":885,"o":"m 265 356 q 298 234 265 288 q 385 150 331 181 q 507 119 439 119 q 633 150 578 119 q 721 234 689 181 q 753 356 753 288 l 753 1004 l 885 1004 l 885 351 q 834 160 885 242 q 698 33 783 78 q 507 -11 613 -11 l 507 -11 q 317 33 401 -11 q 182 160 232 78 q 132 351 132 242 l 132 1004 l 265 1004 l 265 356 z "},"Ủ":{"ha":1015,"x_min":132,"x_max":885,"o":"m 265 356 q 298 234 265 288 q 385 150 331 181 q 507 119 439 119 q 633 150 578 119 q 721 234 689 181 q 753 356 753 288 l 753 1004 l 885 1004 l 885 351 q 834 160 885 242 q 698 33 783 78 q 507 -11 613 -11 l 507 -11 q 317 33 401 -11 q 182 160 232 78 q 132 351 132 242 l 132 1004 l 265 1004 l 265 356 z "},"Ư":{"ha":1040,"x_min":132,"x_max":1069,"o":"m 265 356 q 298 234 265 288 q 385 150 331 181 q 507 119 439 119 q 633 150 578 119 q 721 234 689 181 q 753 356 753 288 l 753 1004 l 885 1004 l 885 351 q 834 160 885 242 q 698 33 783 78 q 507 -11 613 -11 l 507 -11 q 317 33 401 -11 q 182 160 232 78 q 132 351 132 242 l 132 1004 l 265 1004 l 265 356 m 858 942 q 941 969 917 942 q 972 1068 965 996 l 1069 1068 q 1032 936 1060 981 q 960 877 1004 892 q 858 863 917 863 l 858 942 z "},"Ứ":{"ha":1040,"x_min":132,"x_max":1069,"o":"m 265 356 q 298 234 265 288 q 385 150 331 181 q 507 119 439 119 q 633 150 578 119 q 721 234 689 181 q 753 356 753 288 l 753 1004 l 885 1004 l 885 351 q 834 160 885 242 q 698 33 783 78 q 507 -11 613 -11 l 507 -11 q 317 33 401 -11 q 182 160 232 78 q 132 351 132 242 l 132 1004 l 265 1004 l 265 356 m 858 942 q 941 969 917 942 q 972 1068 965 996 l 1069 1068 q 1032 936 1060 981 q 960 877 1004 892 q 858 863 917 863 l 858 942 z "},"Ự":{"ha":1040,"x_min":132,"x_max":1069,"o":"m 265 356 q 298 234 265 288 q 385 150 331 181 q 507 119 439 119 q 633 150 578 119 q 721 234 689 181 q 753 356 753 288 l 753 1004 l 885 1004 l 885 351 q 834 160 885 242 q 698 33 783 78 q 507 -11 613 -11 l 507 -11 q 317 33 401 -11 q 182 160 232 78 q 132 351 132 242 l 132 1004 l 265 1004 l 265 356 m 858 942 q 941 969 917 942 q 972 1068 965 996 l 1069 1068 q 1032 936 1060 981 q 960 877 1004 892 q 858 863 917 863 l 858 942 z "},"Ừ":{"ha":1040,"x_min":132,"x_max":1069,"o":"m 265 356 q 298 234 265 288 q 385 150 331 181 q 507 119 439 119 q 633 150 578 119 q 721 234 689 181 q 753 356 753 288 l 753 1004 l 885 1004 l 885 351 q 834 160 885 242 q 698 33 783 78 q 507 -11 613 -11 l 507 -11 q 317 33 401 -11 q 182 160 232 78 q 132 351 132 242 l 132 1004 l 265 1004 l 265 356 m 858 942 q 941 969 917 942 q 972 1068 965 996 l 1069 1068 q 1032 936 1060 981 q 960 877 1004 892 q 858 863 917 863 l 858 942 z "},"Ử":{"ha":1040,"x_min":132,"x_max":1069,"o":"m 265 356 q 298 234 265 288 q 385 150 331 181 q 507 119 439 119 q 633 150 578 119 q 721 234 689 181 q 753 356 753 288 l 753 1004 l 885 1004 l 885 351 q 834 160 885 242 q 698 33 783 78 q 507 -11 613 -11 l 507 -11 q 317 33 401 -11 q 182 160 232 78 q 132 351 132 242 l 132 1004 l 265 1004 l 265 356 m 858 942 q 941 969 917 942 q 972 1068 965 996 l 1069 1068 q 1032 936 1060 981 q 960 877 1004 892 q 858 863 917 863 l 858 942 z "},"Ữ":{"ha":1040,"x_min":132,"x_max":1069,"o":"m 265 356 q 298 234 265 288 q 385 150 331 181 q 507 119 439 119 q 633 150 578 119 q 721 234 689 181 q 753 356 753 288 l 753 1004 l 885 1004 l 885 351 q 834 160 885 242 q 698 33 783 78 q 507 -11 613 -11 l 507 -11 q 317 33 401 -11 q 182 160 232 78 q 132 351 132 242 l 132 1004 l 265 1004 l 265 356 m 858 942 q 941 969 917 942 q 972 1068 965 996 l 1069 1068 q 1032 936 1060 981 q 960 877 1004 892 q 858 863 917 863 l 858 942 m 614 1114 q 541 1134 569 1114 q 488 1176 513 1154 q 454 1205 471 1192 q 417 1218 438 1218 q 387 1205 400 1218 q 367 1169 374 1192 q 360 1113 360 1146 l 290 1114 q 302 1211 286 1168 q 349 1279 318 1254 q 424 1304 381 1304 q 486 1285 460 1304 q 535 1244 513 1265 q 572 1210 554 1225 q 611 1196 590 1196 q 651 1226 639 1196 q 663 1306 663 1256 l 732 1304 q 723 1204 738 1247 q 679 1138 708 1161 q 614 1114 650 1114 z "},"Ű":{"ha":1015,"x_min":132,"x_max":885,"o":"m 265 356 q 298 234 265 288 q 385 150 331 181 q 507 119 439 119 q 633 150 578 119 q 721 234 689 181 q 753 356 753 288 l 753 1004 l 885 1004 l 885 351 q 834 160 885 242 q 698 33 783 78 q 507 -11 613 -11 l 507 -11 q 317 33 401 -11 q 182 160 232 78 q 132 351 132 242 l 132 1004 l 265 1004 l 265 356 z "},"Ȗ":{"ha":1015,"x_min":132,"x_max":885,"o":"m 265 356 q 298 234 265 288 q 385 150 331 181 q 507 119 439 119 q 633 150 578 119 q 721 234 689 181 q 753 356 753 288 l 753 1004 l 885 1004 l 885 351 q 834 160 885 242 q 698 33 783 78 q 507 -11 613 -11 l 507 -11 q 317 33 401 -11 q 182 160 232 78 q 132 351 132 242 l 132 1004 l 265 1004 l 265 356 m 501 1286 q 604 1258 561 1286 q 675 1174 647 1229 q 711 1042 703 1119 l 624 1042 q 603 1122 618 1086 q 563 1177 588 1157 q 501 1197 539 1197 q 442 1177 467 1197 q 402 1122 417 1157 q 382 1042 388 1086 l 293 1042 q 330 1176 303 1121 q 401 1258 357 1231 q 501 1286 444 1286 z "},"Ū":{"ha":1015,"x_min":132,"x_max":885,"o":"m 265 356 q 298 234 265 288 q 385 150 331 181 q 507 119 439 119 q 633 150 578 119 q 721 234 689 181 q 753 356 753 288 l 753 1004 l 885 1004 l 885 351 q 834 160 885 242 q 698 33 783 78 q 507 -11 613 -11 l 507 -11 q 317 33 401 -11 q 182 160 232 78 q 132 351 132 242 l 132 1004 l 265 1004 l 265 356 z "},"Ų":{"ha":1015,"x_min":132,"x_max":885,"o":"m 650 -299 q 535 -257 583 -299 q 488 -147 488 -215 q 516 -56 488 -101 q 594 15 544 -11 l 633 67 l 646 13 q 507 -11 582 -11 q 310 34 394 -11 q 179 160 226 79 q 132 351 132 242 l 132 1004 l 265 1004 l 265 356 q 298 234 265 288 q 385 150 331 181 q 507 119 439 119 q 633 150 578 119 q 721 234 689 181 q 753 356 753 288 l 753 1004 l 885 1004 l 885 343 q 860 210 885 267 q 797 111 836 153 q 715 38 758 69 q 630 -45 664 -4 q 596 -137 596 -86 q 617 -190 596 -174 q 663 -206 638 -206 q 714 -188 690 -206 q 757 -140 738 -171 l 807 -206 q 738 -272 782 -246 q 650 -299 694 -299 z "},"Ů":{"ha":1015,"x_min":132,"x_max":885,"o":"m 265 356 q 298 234 265 288 q 385 150 331 181 q 507 119 439 119 q 633 150 578 119 q 721 234 689 181 q 753 356 753 288 l 753 1004 l 885 1004 l 885 351 q 834 160 885 242 q 698 33 783 78 q 507 -11 613 -11 l 507 -11 q 317 33 401 -11 q 182 160 232 78 q 132 351 132 242 l 132 1004 l 265 1004 l 265 356 z "},"Ũ":{"ha":1015,"x_min":132,"x_max":885,"o":"m 265 356 q 298 234 265 288 q 385 150 331 181 q 507 119 439 119 q 633 150 578 119 q 721 234 689 181 q 753 356 753 288 l 753 1004 l 885 1004 l 885 351 q 834 160 885 242 q 698 33 783 78 q 507 -11 613 -11 l 507 -11 q 317 33 401 -11 q 182 160 232 78 q 132 351 132 242 l 132 1004 l 265 1004 l 265 356 m 614 1114 q 541 1134 569 1114 q 488 1176 513 1154 q 454 1205 471 1192 q 417 1218 438 1218 q 387 1205 400 1218 q 367 1169 374 1192 q 360 1113 360 1146 l 290 1114 q 302 1211 286 1168 q 349 1279 318 1254 q 424 1304 381 1304 q 486 1285 460 1304 q 535 1244 513 1265 q 572 1210 554 1225 q 611 1196 590 1196 q 651 1226 639 1196 q 663 1306 663 1256 l 732 1304 q 723 1204 738 1247 q 679 1138 708 1161 q 614 1114 650 1114 z "},"V":{"ha":999,"x_min":57,"x_max":942,"o":"m 217 1004 l 547 174 l 471 189 l 785 1004 l 942 1004 l 499 -46 l 57 1004 l 217 1004 z "},"W":{"ha":1400,"x_min":57,"x_max":1343,"o":"m 57 999 l 213 999 l 485 232 l 461 242 l 660 756 l 722 574 l 457 -46 l 57 999 m 539 999 l 674 999 l 968 243 l 940 249 l 1200 999 l 1343 999 l 949 -44 l 539 999 z "},"Ẃ":{"ha":1400,"x_min":57,"x_max":1343,"o":"m 57 999 l 213 999 l 485 232 l 461 242 l 660 756 l 722 574 l 457 -46 l 57 999 m 539 999 l 674 999 l 968 243 l 940 249 l 1200 999 l 1343 999 l 949 -44 l 539 999 z "},"Ŵ":{"ha":1400,"x_min":57,"x_max":1343,"o":"m 57 999 l 213 999 l 485 232 l 461 242 l 660 756 l 722 574 l 457 -46 l 57 999 m 539 999 l 674 999 l 968 243 l 940 249 l 1200 999 l 1343 999 l 949 -44 l 539 999 z "},"Ẅ":{"ha":1400,"x_min":57,"x_max":1343,"o":"m 57 999 l 213 999 l 485 232 l 461 242 l 660 756 l 722 574 l 457 -46 l 57 999 m 539 999 l 674 999 l 968 243 l 940 249 l 1200 999 l 1343 999 l 949 -44 l 539 999 z "},"Ẁ":{"ha":1400,"x_min":57,"x_max":1343,"o":"m 57 999 l 213 999 l 485 232 l 461 242 l 660 756 l 722 574 l 457 -46 l 57 999 m 539 999 l 674 999 l 968 243 l 940 249 l 1200 999 l 1343 999 l 949 -44 l 539 999 z "},"X":{"ha":933,"x_min":47,"x_max":886,"o":"m 61 1004 l 232 1004 l 886 0 l 714 0 l 61 1004 m 47 0 l 396 546 l 461 415 l 214 0 l 47 0 m 465 594 l 710 1004 l 872 1004 l 538 482 l 465 594 z "},"Y":{"ha":960,"x_min":39,"x_max":921,"o":"m 411 335 l 39 1004 l 204 1004 l 503 450 l 461 447 l 757 1004 l 921 1004 l 546 335 l 546 0 l 411 0 l 411 335 z "},"Ý":{"ha":960,"x_min":39,"x_max":921,"o":"m 411 335 l 39 1004 l 204 1004 l 503 450 l 461 447 l 757 1004 l 921 1004 l 546 335 l 546 0 l 411 0 l 411 335 z "},"Ŷ":{"ha":960,"x_min":39,"x_max":921,"o":"m 411 335 l 39 1004 l 204 1004 l 503 450 l 461 447 l 757 1004 l 921 1004 l 546 335 l 546 0 l 411 0 l 411 335 z "},"Ÿ":{"ha":960,"x_min":39,"x_max":921,"o":"m 411 335 l 39 1004 l 204 1004 l 503 450 l 461 447 l 757 1004 l 921 1004 l 546 335 l 546 0 l 411 0 l 411 335 z "},"Ỵ":{"ha":960,"x_min":39,"x_max":921,"o":"m 411 335 l 39 1004 l 204 1004 l 503 450 l 461 447 l 757 1004 l 921 1004 l 546 335 l 546 0 l 411 0 l 411 335 z "},"Ỳ":{"ha":960,"x_min":39,"x_max":921,"o":"m 411 335 l 39 1004 l 204 1004 l 503 450 l 461 447 l 757 1004 l 921 1004 l 546 335 l 546 0 l 411 0 l 411 335 z "},"Ỷ":{"ha":960,"x_min":39,"x_max":921,"o":"m 411 335 l 39 1004 l 204 1004 l 503 450 l 461 447 l 757 1004 l 921 1004 l 546 335 l 546 0 l 411 0 l 411 335 z "},"Ȳ":{"ha":960,"x_min":39,"x_max":921,"o":"m 411 335 l 39 1004 l 204 1004 l 503 450 l 461 447 l 757 1004 l 921 1004 l 546 335 l 546 0 l 411 0 l 411 335 z "},"Ỹ":{"ha":960,"x_min":39,"x_max":921,"o":"m 411 335 l 39 1004 l 204 1004 l 503 450 l 461 447 l 757 1004 l 921 1004 l 546 335 l 546 0 l 411 0 l 411 335 m 604 1110 q 531 1130 560 1110 q 478 1172 503 1150 q 444 1201 461 1188 q 407 1214 428 1214 q 377 1201 390 1214 q 357 1165 364 1188 q 350 1108 350 1142 l 281 1110 q 292 1207 276 1164 q 340 1275 308 1250 q 414 1300 371 1300 q 476 1281 450 1300 q 525 1240 503 1261 q 563 1206 544 1221 q 601 1192 581 1192 q 641 1222 629 1192 q 653 1301 653 1251 l 722 1300 q 713 1200 728 1243 q 669 1133 699 1157 q 604 1110 640 1110 z "},"Z":{"ha":989,"x_min":71,"x_max":914,"o":"m 71 0 q 117 68 86 22 q 190 176 149 114 q 280 311 232 239 q 378 458 328 383 q 477 605 429 533 q 567 738 525 676 q 640 845 608 800 q 686 911 671 890 l 704 875 l 240 875 q 188 885 214 875 q 144 914 161 894 q 128 960 128 933 l 128 1054 l 253 1054 l 253 1036 q 263 1008 253 1011 q 296 1004 272 1004 l 897 1004 l 290 113 l 282 129 l 914 129 l 914 0 l 71 0 z "},"Ź":{"ha":989,"x_min":71,"x_max":914,"o":"m 71 0 q 117 68 86 22 q 190 176 149 114 q 280 311 232 239 q 378 458 328 383 q 477 605 429 533 q 567 738 525 676 q 640 845 608 800 q 686 911 671 890 l 704 875 l 240 875 q 188 885 214 875 q 144 914 161 894 q 128 960 128 933 l 128 1054 l 253 1054 l 253 1036 q 263 1008 253 1011 q 296 1004 272 1004 l 897 1004 l 290 113 l 282 129 l 914 129 l 914 0 l 71 0 z "},"Ž":{"ha":989,"x_min":71,"x_max":914,"o":"m 71 0 q 117 68 86 22 q 190 176 149 114 q 280 311 232 239 q 378 458 328 383 q 477 605 429 533 q 567 738 525 676 q 640 845 608 800 q 686 911 671 890 l 704 875 l 240 875 q 188 885 214 875 q 144 914 161 894 q 128 960 128 933 l 128 1054 l 253 1054 l 253 1036 q 263 1008 253 1011 q 296 1004 272 1004 l 897 1004 l 290 113 l 282 129 l 914 129 l 914 0 l 71 0 z "},"Ż":{"ha":989,"x_min":71,"x_max":914,"o":"m 71 0 q 117 68 86 22 q 190 176 149 114 q 280 311 232 239 q 378 458 328 383 q 477 605 429 533 q 567 738 525 676 q 640 845 608 800 q 686 911 671 890 l 704 875 l 240 875 q 188 885 214 875 q 144 914 161 894 q 128 960 128 933 l 128 1054 l 253 1054 l 253 1036 q 263 1008 253 1011 q 296 1004 272 1004 l 897 1004 l 290 113 l 282 129 l 914 129 l 914 0 l 71 0 z "},"a":{"ha":814,"x_min":63,"x_max":703,"o":"m 351 -14 q 205 21 271 -14 q 101 123 139 56 q 63 288 63 190 q 103 453 63 383 q 210 561 143 524 q 358 599 278 599 q 494 562 439 599 q 579 475 550 525 l 571 453 l 583 575 l 703 575 l 703 0 l 574 0 l 574 150 l 588 117 q 563 81 582 103 q 513 38 544 60 q 442 1 482 15 q 351 -14 401 -14 m 386 93 q 474 111 435 93 q 538 162 513 129 q 574 240 564 194 l 574 353 q 535 426 563 394 q 468 474 507 457 q 382 492 429 492 q 288 467 331 492 q 219 397 244 442 q 193 293 193 353 q 219 192 193 238 q 290 119 246 146 q 386 93 335 93 z "},"á":{"ha":814,"x_min":63,"x_max":703,"o":"m 351 -14 q 205 21 271 -14 q 101 123 139 56 q 63 288 63 190 q 103 453 63 383 q 210 561 143 524 q 358 599 278 599 q 494 562 439 599 q 579 475 550 525 l 571 453 l 583 575 l 703 575 l 703 0 l 574 0 l 574 150 l 588 117 q 563 81 582 103 q 513 38 544 60 q 442 1 482 15 q 351 -14 401 -14 m 386 93 q 474 111 435 93 q 538 162 513 129 q 574 240 564 194 l 574 353 q 535 426 563 394 q 468 474 507 457 q 382 492 429 492 q 288 467 331 492 q 219 397 244 442 q 193 293 193 353 q 219 192 193 238 q 290 119 246 146 q 386 93 335 93 z "},"ă":{"ha":814,"x_min":63,"x_max":703,"o":"m 351 -14 q 205 21 271 -14 q 101 123 139 56 q 63 288 63 190 q 103 453 63 383 q 210 561 143 524 q 358 599 278 599 q 494 562 439 599 q 579 475 550 525 l 571 453 l 583 575 l 703 575 l 703 0 l 574 0 l 574 150 l 588 117 q 563 81 582 103 q 513 38 544 60 q 442 1 482 15 q 351 -14 401 -14 m 386 93 q 474 111 435 93 q 538 162 513 129 q 574 240 564 194 l 574 353 q 535 426 563 394 q 468 474 507 457 q 382 492 429 492 q 288 467 331 492 q 219 397 244 442 q 193 293 193 353 q 219 192 193 238 q 290 119 246 146 q 386 93 335 93 z "},"ắ":{"ha":814,"x_min":63,"x_max":703,"o":"m 351 -14 q 205 21 271 -14 q 101 123 139 56 q 63 288 63 190 q 103 453 63 383 q 210 561 143 524 q 358 599 278 599 q 494 562 439 599 q 579 475 550 525 l 571 453 l 583 575 l 703 575 l 703 0 l 574 0 l 574 150 l 588 117 q 563 81 582 103 q 513 38 544 60 q 442 1 482 15 q 351 -14 401 -14 m 386 93 q 474 111 435 93 q 538 162 513 129 q 574 240 564 194 l 574 353 q 535 426 563 394 q 468 474 507 457 q 382 492 429 492 q 288 467 331 492 q 219 397 244 442 q 193 293 193 353 q 219 192 193 238 q 290 119 246 146 q 386 93 335 93 z "},"ặ":{"ha":814,"x_min":63,"x_max":703,"o":"m 351 -14 q 205 21 271 -14 q 101 123 139 56 q 63 288 63 190 q 103 453 63 383 q 210 561 143 524 q 358 599 278 599 q 494 562 439 599 q 579 475 550 525 l 571 453 l 583 575 l 703 575 l 703 0 l 574 0 l 574 150 l 588 117 q 563 81 582 103 q 513 38 544 60 q 442 1 482 15 q 351 -14 401 -14 m 386 93 q 474 111 435 93 q 538 162 513 129 q 574 240 564 194 l 574 353 q 535 426 563 394 q 468 474 507 457 q 382 492 429 492 q 288 467 331 492 q 219 397 244 442 q 193 293 193 353 q 219 192 193 238 q 290 119 246 146 q 386 93 335 93 m 339 -144 q 360 -100 339 -118 q 407 -82 381 -82 q 451 -100 431 -82 q 472 -144 472 -118 q 451 -190 472 -172 q 407 -207 431 -207 q 360 -189 381 -207 q 339 -144 339 -171 z "},"ằ":{"ha":814,"x_min":63,"x_max":703,"o":"m 351 -14 q 205 21 271 -14 q 101 123 139 56 q 63 288 63 190 q 103 453 63 383 q 210 561 143 524 q 358 599 278 599 q 494 562 439 599 q 579 475 550 525 l 571 453 l 583 575 l 703 575 l 703 0 l 574 0 l 574 150 l 588 117 q 563 81 582 103 q 513 38 544 60 q 442 1 482 15 q 351 -14 401 -14 m 386 93 q 474 111 435 93 q 538 162 513 129 q 574 240 564 194 l 574 353 q 535 426 563 394 q 468 474 507 457 q 382 492 429 492 q 288 467 331 492 q 219 397 244 442 q 193 293 193 353 q 219 192 193 238 q 290 119 246 146 q 386 93 335 93 z "},"ẳ":{"ha":814,"x_min":63,"x_max":703,"o":"m 351 -14 q 205 21 271 -14 q 101 123 139 56 q 63 288 63 190 q 103 453 63 383 q 210 561 143 524 q 358 599 278 599 q 494 562 439 599 q 579 475 550 525 l 571 453 l 583 575 l 703 575 l 703 0 l 574 0 l 574 150 l 588 117 q 563 81 582 103 q 513 38 544 60 q 442 1 482 15 q 351 -14 401 -14 m 386 93 q 474 111 435 93 q 538 162 513 129 q 574 240 564 194 l 574 353 q 535 426 563 394 q 468 474 507 457 q 382 492 429 492 q 288 467 331 492 q 219 397 244 442 q 193 293 193 353 q 219 192 193 238 q 290 119 246 146 q 386 93 335 93 z "},"ẵ":{"ha":814,"x_min":63,"x_max":703,"o":"m 351 -14 q 205 21 271 -14 q 101 123 139 56 q 63 288 63 190 q 103 453 63 383 q 210 561 143 524 q 358 599 278 599 q 494 562 439 599 q 579 475 550 525 l 571 453 l 583 575 l 703 575 l 703 0 l 574 0 l 574 150 l 588 117 q 563 81 582 103 q 513 38 544 60 q 442 1 482 15 q 351 -14 401 -14 m 386 93 q 474 111 435 93 q 538 162 513 129 q 574 240 564 194 l 574 353 q 535 426 563 394 q 468 474 507 457 q 382 492 429 492 q 288 467 331 492 q 219 397 244 442 q 193 293 193 353 q 219 192 193 238 q 290 119 246 146 q 386 93 335 93 z "},"â":{"ha":814,"x_min":63,"x_max":703,"o":"m 351 -14 q 205 21 271 -14 q 101 123 139 56 q 63 288 63 190 q 103 453 63 383 q 210 561 143 524 q 358 599 278 599 q 494 562 439 599 q 579 475 550 525 l 571 453 l 583 575 l 703 575 l 703 0 l 574 0 l 574 150 l 588 117 q 563 81 582 103 q 513 38 544 60 q 442 1 482 15 q 351 -14 401 -14 m 386 93 q 474 111 435 93 q 538 162 513 129 q 574 240 564 194 l 574 353 q 535 426 563 394 q 468 474 507 457 q 382 492 429 492 q 288 467 331 492 q 219 397 244 442 q 193 293 193 353 q 219 192 193 238 q 290 119 246 146 q 386 93 335 93 z "},"ấ":{"ha":814,"x_min":63,"x_max":806,"o":"m 351 -14 q 205 21 271 -14 q 101 123 139 56 q 63 288 63 190 q 103 453 63 383 q 210 561 143 524 q 358 599 278 599 q 494 562 439 599 q 579 475 550 525 l 571 453 l 583 575 l 703 575 l 703 0 l 574 0 l 574 150 l 588 117 q 563 81 582 103 q 513 38 544 60 q 442 1 482 15 q 351 -14 401 -14 m 386 93 q 474 111 435 93 q 538 162 513 129 q 574 240 564 194 l 574 353 q 535 426 563 394 q 468 474 507 457 q 382 492 429 492 q 288 467 331 492 q 219 397 244 442 q 193 293 193 353 q 219 192 193 238 q 290 119 246 146 q 386 93 335 93 z "},"ậ":{"ha":814,"x_min":63,"x_max":703,"o":"m 351 -14 q 205 21 271 -14 q 101 123 139 56 q 63 288 63 190 q 103 453 63 383 q 210 561 143 524 q 358 599 278 599 q 494 562 439 599 q 579 475 550 525 l 571 453 l 583 575 l 703 575 l 703 0 l 574 0 l 574 150 l 588 117 q 563 81 582 103 q 513 38 544 60 q 442 1 482 15 q 351 -14 401 -14 m 386 93 q 474 111 435 93 q 538 162 513 129 q 574 240 564 194 l 574 353 q 535 426 563 394 q 468 474 507 457 q 382 492 429 492 q 288 467 331 492 q 219 397 244 442 q 193 293 193 353 q 219 192 193 238 q 290 119 246 146 q 386 93 335 93 m 339 -144 q 360 -100 339 -118 q 407 -82 381 -82 q 451 -100 431 -82 q 472 -144 472 -118 q 451 -190 472 -172 q 407 -207 431 -207 q 360 -189 381 -207 q 339 -144 339 -171 z "},"ầ":{"ha":814,"x_min":1,"x_max":703,"o":"m 351 -14 q 205 21 271 -14 q 101 123 139 56 q 63 288 63 190 q 103 453 63 383 q 210 561 143 524 q 358 599 278 599 q 494 562 439 599 q 579 475 550 525 l 571 453 l 583 575 l 703 575 l 703 0 l 574 0 l 574 150 l 588 117 q 563 81 582 103 q 513 38 544 60 q 442 1 482 15 q 351 -14 401 -14 m 386 93 q 474 111 435 93 q 538 162 513 129 q 574 240 564 194 l 574 353 q 535 426 563 394 q 468 474 507 457 q 382 492 429 492 q 288 467 331 492 q 219 397 244 442 q 193 293 193 353 q 219 192 193 238 q 290 119 246 146 q 386 93 335 93 z "},"ẩ":{"ha":814,"x_min":63,"x_max":775,"o":"m 351 -14 q 205 21 271 -14 q 101 123 139 56 q 63 288 63 190 q 103 453 63 383 q 210 561 143 524 q 358 599 278 599 q 494 562 439 599 q 579 475 550 525 l 571 453 l 583 575 l 703 575 l 703 0 l 574 0 l 574 150 l 588 117 q 563 81 582 103 q 513 38 544 60 q 442 1 482 15 q 351 -14 401 -14 m 386 93 q 474 111 435 93 q 538 162 513 129 q 574 240 564 194 l 574 353 q 535 426 563 394 q 468 474 507 457 q 382 492 429 492 q 288 467 331 492 q 219 397 244 442 q 193 293 193 353 q 219 192 193 238 q 290 119 246 146 q 386 93 335 93 z "},"ẫ":{"ha":814,"x_min":63,"x_max":703,"o":"m 351 -14 q 205 21 271 -14 q 101 123 139 56 q 63 288 63 190 q 103 453 63 383 q 210 561 143 524 q 358 599 278 599 q 494 562 439 599 q 579 475 550 525 l 571 453 l 583 575 l 703 575 l 703 0 l 574 0 l 574 150 l 588 117 q 563 81 582 103 q 513 38 544 60 q 442 1 482 15 q 351 -14 401 -14 m 386 93 q 474 111 435 93 q 538 162 513 129 q 574 240 564 194 l 574 353 q 535 426 563 394 q 468 474 507 457 q 382 492 429 492 q 288 467 331 492 q 219 397 244 442 q 193 293 193 353 q 219 192 193 238 q 290 119 246 146 q 386 93 335 93 z "},"ȁ":{"ha":814,"x_min":63,"x_max":703,"o":"m 351 -14 q 205 21 271 -14 q 101 123 139 56 q 63 288 63 190 q 103 453 63 383 q 210 561 143 524 q 358 599 278 599 q 494 562 439 599 q 579 475 550 525 l 571 453 l 583 575 l 703 575 l 703 0 l 574 0 l 574 150 l 588 117 q 563 81 582 103 q 513 38 544 60 q 442 1 482 15 q 351 -14 401 -14 m 386 93 q 474 111 435 93 q 538 162 513 129 q 574 240 564 194 l 574 353 q 535 426 563 394 q 468 474 507 457 q 382 492 429 492 q 288 467 331 492 q 219 397 244 442 q 193 293 193 353 q 219 192 193 238 q 290 119 246 146 q 386 93 335 93 z "},"ä":{"ha":814,"x_min":63,"x_max":703,"o":"m 351 -14 q 205 21 271 -14 q 101 123 139 56 q 63 288 63 190 q 103 453 63 383 q 210 561 143 524 q 358 599 278 599 q 494 562 439 599 q 579 475 550 525 l 571 453 l 583 575 l 703 575 l 703 0 l 574 0 l 574 150 l 588 117 q 563 81 582 103 q 513 38 544 60 q 442 1 482 15 q 351 -14 401 -14 m 386 93 q 474 111 435 93 q 538 162 513 129 q 574 240 564 194 l 574 353 q 535 426 563 394 q 468 474 507 457 q 382 492 429 492 q 288 467 331 492 q 219 397 244 442 q 193 293 193 353 q 219 192 193 238 q 290 119 246 146 q 386 93 335 93 z "},"ạ":{"ha":814,"x_min":63,"x_max":703,"o":"m 351 -14 q 205 21 271 -14 q 101 123 139 56 q 63 288 63 190 q 103 453 63 383 q 210 561 143 524 q 358 599 278 599 q 494 562 439 599 q 579 475 550 525 l 571 453 l 583 575 l 703 575 l 703 0 l 574 0 l 574 150 l 588 117 q 563 81 582 103 q 513 38 544 60 q 442 1 482 15 q 351 -14 401 -14 m 386 93 q 474 111 435 93 q 538 162 513 129 q 574 240 564 194 l 574 353 q 535 426 563 394 q 468 474 507 457 q 382 492 429 492 q 288 467 331 492 q 219 397 244 442 q 193 293 193 353 q 219 192 193 238 q 290 119 246 146 q 386 93 335 93 m 339 -144 q 360 -100 339 -118 q 407 -82 381 -82 q 451 -100 431 -82 q 472 -144 472 -118 q 451 -190 472 -172 q 407 -207 431 -207 q 360 -189 381 -207 q 339 -144 339 -171 z "},"à":{"ha":814,"x_min":63,"x_max":703,"o":"m 351 -14 q 205 21 271 -14 q 101 123 139 56 q 63 288 63 190 q 103 453 63 383 q 210 561 143 524 q 358 599 278 599 q 494 562 439 599 q 579 475 550 525 l 571 453 l 583 575 l 703 575 l 703 0 l 574 0 l 574 150 l 588 117 q 563 81 582 103 q 513 38 544 60 q 442 1 482 15 q 351 -14 401 -14 m 386 93 q 474 111 435 93 q 538 162 513 129 q 574 240 564 194 l 574 353 q 535 426 563 394 q 468 474 507 457 q 382 492 429 492 q 288 467 331 492 q 219 397 244 442 q 193 293 193 353 q 219 192 193 238 q 290 119 246 146 q 386 93 335 93 z "},"ả":{"ha":814,"x_min":63,"x_max":703,"o":"m 351 -14 q 205 21 271 -14 q 101 123 139 56 q 63 288 63 190 q 103 453 63 383 q 210 561 143 524 q 358 599 278 599 q 494 562 439 599 q 579 475 550 525 l 571 453 l 583 575 l 703 575 l 703 0 l 574 0 l 574 150 l 588 117 q 563 81 582 103 q 513 38 544 60 q 442 1 482 15 q 351 -14 401 -14 m 386 93 q 474 111 435 93 q 538 162 513 129 q 574 240 564 194 l 574 353 q 535 426 563 394 q 468 474 507 457 q 382 492 429 492 q 288 467 331 492 q 219 397 244 442 q 193 293 193 353 q 219 192 193 238 q 290 119 246 146 q 386 93 335 93 m 397 699 q 441 738 424 719 q 458 783 458 757 q 447 818 458 804 q 414 832 436 832 q 376 820 392 832 q 349 789 361 808 l 300 821 q 358 886 324 865 q 431 907 392 907 q 488 892 465 907 q 523 853 511 878 q 535 799 535 828 q 503 717 535 750 q 429 658 472 685 l 397 699 z "},"ȃ":{"ha":814,"x_min":63,"x_max":703,"o":"m 351 -14 q 205 21 271 -14 q 101 123 139 56 q 63 288 63 190 q 103 453 63 383 q 210 561 143 524 q 358 599 278 599 q 494 562 439 599 q 579 475 550 525 l 571 453 l 583 575 l 703 575 l 703 0 l 574 0 l 574 150 l 588 117 q 563 81 582 103 q 513 38 544 60 q 442 1 482 15 q 351 -14 401 -14 m 386 93 q 474 111 435 93 q 538 162 513 129 q 574 240 564 194 l 574 353 q 535 426 563 394 q 468 474 507 457 q 382 492 429 492 q 288 467 331 492 q 219 397 244 442 q 193 293 193 353 q 219 192 193 238 q 290 119 246 146 q 386 93 335 93 m 429 900 q 531 872 488 900 q 602 788 575 843 q 639 656 629 733 l 551 656 q 531 736 546 701 q 490 791 515 771 q 429 811 465 811 q 368 791 393 811 q 329 736 343 771 q 310 656 315 701 l 221 656 q 258 790 231 735 q 328 872 285 844 q 429 900 371 900 z "},"ā":{"ha":814,"x_min":63,"x_max":703,"o":"m 351 -14 q 205 21 271 -14 q 101 123 139 56 q 63 288 63 190 q 103 453 63 383 q 210 561 143 524 q 358 599 278 599 q 494 562 439 599 q 579 475 550 525 l 571 453 l 583 575 l 703 575 l 703 0 l 574 0 l 574 150 l 588 117 q 563 81 582 103 q 513 38 544 60 q 442 1 482 15 q 351 -14 401 -14 m 386 93 q 474 111 435 93 q 538 162 513 129 q 574 240 564 194 l 574 353 q 535 426 563 394 q 468 474 507 457 q 382 492 429 492 q 288 467 331 492 q 219 397 244 442 q 193 293 193 353 q 219 192 193 238 q 290 119 246 146 q 386 93 335 93 z "},"ą":{"ha":821,"x_min":65,"x_max":778,"o":"m 351 -14 q 207 21 272 -14 q 103 123 142 56 q 65 288 65 190 q 105 453 65 383 q 210 561 144 524 q 351 599 275 599 q 454 582 411 599 q 528 538 497 565 q 578 475 558 510 l 588 575 l 706 575 l 706 1 q 606 -62 644 -29 q 567 -137 567 -94 q 588 -190 567 -174 q 633 -206 608 -206 q 685 -188 661 -206 q 728 -140 708 -171 l 778 -206 q 709 -272 753 -246 q 622 -299 665 -299 q 506 -257 554 -299 q 458 -147 458 -215 q 492 -56 458 -100 q 582 14 526 -11 l 593 -6 l 576 -22 l 576 149 l 586 117 q 538 61 569 92 q 460 8 506 31 q 351 -14 414 -14 m 386 93 q 474 111 435 93 q 540 162 514 129 q 576 240 567 194 l 576 353 q 538 426 565 394 q 472 474 511 457 q 386 492 432 492 q 291 467 335 492 q 222 397 247 442 q 196 293 196 353 q 222 192 196 238 q 291 119 247 146 q 386 93 335 93 z "},"å":{"ha":814,"x_min":63,"x_max":703,"o":"m 351 -14 q 205 21 271 -14 q 101 123 139 56 q 63 288 63 190 q 103 453 63 383 q 210 561 143 524 q 358 599 278 599 q 494 562 439 599 q 579 475 550 525 l 571 453 l 583 575 l 703 575 l 703 0 l 574 0 l 574 150 l 588 117 q 563 81 582 103 q 513 38 544 60 q 442 1 482 15 q 351 -14 401 -14 m 386 93 q 474 111 435 93 q 538 162 513 129 q 574 240 564 194 l 574 353 q 535 426 563 394 q 468 474 507 457 q 382 492 429 492 q 288 467 331 492 q 219 397 244 442 q 193 293 193 353 q 219 192 193 238 q 290 119 246 146 q 386 93 335 93 z "},"ǻ":{"ha":814,"x_min":63,"x_max":703,"o":"m 351 -14 q 205 21 271 -14 q 101 123 139 56 q 63 288 63 190 q 103 453 63 383 q 210 561 143 524 q 358 599 278 599 q 494 562 439 599 q 579 475 550 525 l 571 453 l 583 575 l 703 575 l 703 0 l 574 0 l 574 150 l 588 117 q 563 81 582 103 q 513 38 544 60 q 442 1 482 15 q 351 -14 401 -14 m 386 93 q 474 111 435 93 q 538 162 513 129 q 574 240 564 194 l 574 353 q 535 426 563 394 q 468 474 507 457 q 382 492 429 492 q 288 467 331 492 q 219 397 244 442 q 193 293 193 353 q 219 192 193 238 q 290 119 246 146 q 386 93 335 93 z "},"ã":{"ha":814,"x_min":63,"x_max":703,"o":"m 351 -14 q 205 21 271 -14 q 101 123 139 56 q 63 288 63 190 q 103 453 63 383 q 210 561 143 524 q 358 599 278 599 q 494 562 439 599 q 579 475 550 525 l 571 453 l 583 575 l 703 575 l 703 0 l 574 0 l 574 150 l 588 117 q 563 81 582 103 q 513 38 544 60 q 442 1 482 15 q 351 -14 401 -14 m 386 93 q 474 111 435 93 q 538 162 513 129 q 574 240 564 194 l 574 353 q 535 426 563 394 q 468 474 507 457 q 382 492 429 492 q 288 467 331 492 q 219 397 244 442 q 193 293 193 353 q 219 192 193 238 q 290 119 246 146 q 386 93 335 93 m 531 656 q 458 676 486 656 q 404 718 429 696 q 371 747 388 733 q 333 760 354 760 q 303 747 317 760 q 283 710 290 733 q 276 654 276 686 l 207 654 q 219 752 203 708 q 266 821 235 796 q 340 846 297 846 q 403 826 376 846 q 451 785 429 806 q 489 752 471 767 q 528 738 507 738 q 567 767 556 738 q 579 846 579 796 l 649 846 q 640 744 654 788 q 596 678 625 701 q 531 656 567 656 z "},"æ":{"ha":1131,"x_min":63,"x_max":1082,"o":"m 288 -15 q 159 8 208 -15 q 86 72 110 32 q 63 163 63 113 q 96 259 63 219 q 183 319 129 299 q 296 340 236 340 q 423 318 361 340 q 518 261 485 296 l 496 186 q 416 238 454 221 q 325 254 378 254 q 265 245 293 254 q 221 217 238 236 q 204 167 204 197 q 234 101 204 126 q 322 76 264 76 q 378 85 349 76 q 435 109 408 93 q 479 144 463 125 l 479 232 l 535 232 l 536 89 q 465 28 507 51 q 377 -5 424 6 q 288 -15 331 -15 m 471 274 l 471 365 q 449 444 471 417 q 397 481 426 471 q 340 490 367 490 q 242 465 286 490 q 164 400 197 439 l 99 482 q 207 563 143 529 q 358 597 271 597 q 483 574 429 597 q 566 508 536 551 q 596 400 596 465 l 596 357 l 471 274 m 788 -14 q 619 26 690 -14 q 510 134 549 65 q 471 292 471 203 q 514 446 471 376 q 629 557 557 515 q 790 599 701 599 q 979 532 904 599 q 1082 349 1054 465 l 608 182 l 576 258 l 965 400 l 939 382 q 883 462 921 428 q 781 496 844 496 q 687 470 728 496 q 622 400 646 444 q 599 299 599 356 q 623 194 599 239 q 691 123 647 149 q 790 97 735 97 q 865 111 829 97 q 931 147 900 125 l 990 51 q 892 4 946 22 q 788 -14 839 -14 z "},"ǽ":{"ha":1131,"x_min":63,"x_max":1082,"o":"m 288 -15 q 159 8 208 -15 q 86 72 110 32 q 63 163 63 113 q 96 259 63 219 q 183 319 129 299 q 296 340 236 340 q 423 318 361 340 q 518 261 485 296 l 496 186 q 416 238 454 221 q 325 254 378 254 q 265 245 293 254 q 221 217 238 236 q 204 167 204 197 q 234 101 204 126 q 322 76 264 76 q 378 85 349 76 q 435 109 408 93 q 479 144 463 125 l 479 232 l 535 232 l 536 89 q 465 28 507 51 q 377 -5 424 6 q 288 -15 331 -15 m 471 274 l 471 365 q 449 444 471 417 q 397 481 426 471 q 340 490 367 490 q 242 465 286 490 q 164 400 197 439 l 99 482 q 207 563 143 529 q 358 597 271 597 q 483 574 429 597 q 566 508 536 551 q 596 400 596 465 l 596 357 l 471 274 m 788 -14 q 619 26 690 -14 q 510 134 549 65 q 471 292 471 203 q 514 446 471 376 q 629 557 557 515 q 790 599 701 599 q 979 532 904 599 q 1082 349 1054 465 l 608 182 l 576 258 l 965 400 l 939 382 q 883 462 921 428 q 781 496 844 496 q 687 470 728 496 q 622 400 646 444 q 599 299 599 356 q 623 194 599 239 q 691 123 647 149 q 790 97 735 97 q 865 111 829 97 q 931 147 900 125 l 990 51 q 892 4 946 22 q 788 -14 839 -14 z "},"b":{"ha":824,"x_min":113,"x_max":761,"o":"m 463 -14 q 323 21 383 -14 q 226 108 263 56 l 242 149 l 242 0 l 113 0 l 113 1075 l 240 1075 l 240 443 l 236 492 q 335 569 271 539 q 479 599 400 599 q 621 561 557 599 q 723 456 685 524 q 761 296 761 389 q 720 129 761 199 q 611 23 679 60 q 463 -14 543 -14 m 436 96 q 536 122 492 96 q 606 194 581 149 q 631 297 631 239 q 605 398 631 353 q 535 469 579 443 q 436 496 492 496 q 349 478 389 496 q 281 428 308 460 q 242 356 253 397 l 242 240 q 279 166 253 199 q 346 115 306 133 q 436 96 386 96 z "},"c":{"ha":633,"x_min":63,"x_max":582,"o":"m 579 53 q 486 4 540 22 q 378 -14 432 -14 q 213 24 283 -14 q 102 128 142 61 q 63 288 63 196 q 105 447 63 379 q 216 552 147 515 q 364 589 285 589 q 488 569 433 589 q 582 517 543 550 l 518 433 q 457 468 493 453 q 375 483 421 483 q 283 458 325 483 q 216 388 240 432 q 192 288 192 343 q 217 190 192 235 q 286 119 242 144 q 388 93 331 93 q 456 104 425 93 q 513 135 488 115 l 579 53 z "},"ć":{"ha":633,"x_min":63,"x_max":582,"o":"m 579 53 q 486 4 540 22 q 378 -14 432 -14 q 213 24 283 -14 q 102 128 142 61 q 63 288 63 196 q 105 447 63 379 q 216 552 147 515 q 364 589 285 589 q 488 569 433 589 q 582 517 543 550 l 518 433 q 457 468 493 453 q 375 483 421 483 q 283 458 325 483 q 216 388 240 432 q 192 288 192 343 q 217 190 192 235 q 286 119 242 144 q 388 93 331 93 q 456 104 425 93 q 513 135 488 115 l 579 53 z "},"č":{"ha":633,"x_min":63,"x_max":593,"o":"m 579 53 q 486 4 540 22 q 378 -14 432 -14 q 213 24 283 -14 q 102 128 142 61 q 63 288 63 196 q 105 447 63 379 q 216 552 147 515 q 364 589 285 589 q 488 569 433 589 q 582 517 543 550 l 518 433 q 457 468 493 453 q 375 483 421 483 q 283 458 325 483 q 216 388 240 432 q 192 288 192 343 q 217 190 192 235 q 286 119 242 144 q 388 93 331 93 q 456 104 425 93 q 513 135 488 115 l 579 53 z "},"ç":{"ha":633,"x_min":63,"x_max":582,"o":"m 579 53 q 486 4 540 22 q 378 -14 432 -14 q 213 24 283 -14 q 102 128 142 61 q 63 288 63 196 q 105 447 63 379 q 216 552 147 515 q 364 589 285 589 q 488 569 433 589 q 582 517 543 550 l 518 433 q 457 468 493 453 q 375 483 421 483 q 283 458 325 483 q 216 388 240 432 q 192 288 192 343 q 217 190 192 235 q 286 119 242 144 q 388 93 331 93 q 456 104 425 93 q 513 135 488 115 l 579 53 z "},"ĉ":{"ha":633,"x_min":63,"x_max":583,"o":"m 579 53 q 486 4 540 22 q 378 -14 432 -14 q 213 24 283 -14 q 102 128 142 61 q 63 288 63 196 q 105 447 63 379 q 216 552 147 515 q 364 589 285 589 q 488 569 433 589 q 582 517 543 550 l 518 433 q 457 468 493 453 q 375 483 421 483 q 283 458 325 483 q 216 388 240 432 q 192 288 192 343 q 217 190 192 235 q 286 119 242 144 q 388 93 331 93 q 456 104 425 93 q 513 135 488 115 l 579 53 z "},"ċ":{"ha":633,"x_min":63,"x_max":582,"o":"m 579 53 q 486 4 540 22 q 378 -14 432 -14 q 213 24 283 -14 q 102 128 142 61 q 63 288 63 196 q 105 447 63 379 q 216 552 147 515 q 364 589 285 589 q 488 569 433 589 q 582 517 543 550 l 518 433 q 457 468 493 453 q 375 483 421 483 q 283 458 325 483 q 216 388 240 432 q 192 288 192 343 q 217 190 192 235 q 286 119 242 144 q 388 93 331 93 q 456 104 425 93 q 513 135 488 115 l 579 53 z "},"d":{"ha":824,"x_min":63,"x_max":711,"o":"m 346 -14 q 202 24 267 -14 q 100 133 138 63 q 63 294 63 203 q 102 458 63 390 q 210 563 142 526 q 363 599 278 599 q 492 569 431 599 q 589 489 554 540 l 583 443 l 583 1075 l 711 1075 l 711 0 l 582 0 l 582 143 l 596 107 q 492 20 556 54 q 346 -14 428 -14 m 386 96 q 478 115 438 96 q 544 167 518 133 q 582 246 571 200 l 582 354 q 542 427 571 396 q 474 477 514 458 q 386 496 435 496 q 290 470 333 496 q 219 400 246 444 q 193 297 193 356 q 219 195 193 240 q 290 123 246 150 q 386 96 335 96 z "},"ð":{"ha":757,"x_min":63,"x_max":694,"o":"m 367 -14 q 213 24 282 -14 q 103 131 143 63 q 63 293 63 200 q 101 449 63 379 q 204 558 139 518 q 349 599 269 599 q 451 575 406 599 q 531 513 497 551 q 583 430 564 475 q 608 340 603 385 l 563 351 q 531 542 558 454 q 456 707 503 631 q 344 851 408 783 q 203 979 281 918 l 297 1064 q 453 925 381 1007 q 579 746 525 843 q 664 545 633 649 q 694 342 694 442 q 672 210 694 274 q 608 95 650 146 q 505 15 565 44 q 367 -14 444 -14 m 378 93 q 474 119 432 93 q 540 191 517 146 q 564 292 564 236 q 540 392 564 347 q 474 465 517 438 q 378 492 432 492 q 283 464 325 492 q 216 391 240 436 q 192 292 192 346 q 217 191 192 236 q 283 119 242 146 q 378 93 325 93 m 590 938 l 263 732 l 218 818 l 546 1021 l 590 938 z "},"ď":{"ha":960,"x_min":63,"x_max":974,"o":"m 346 -14 q 202 24 267 -14 q 100 133 138 63 q 63 294 63 203 q 102 458 63 390 q 210 563 142 526 q 363 599 278 599 q 492 569 431 599 q 589 489 554 540 l 583 443 l 583 1075 l 711 1075 l 711 0 l 582 0 l 582 143 l 596 107 q 492 20 556 54 q 346 -14 428 -14 m 386 96 q 478 115 438 96 q 544 167 518 133 q 582 246 571 200 l 582 354 q 542 427 571 396 q 474 477 514 458 q 386 496 435 496 q 290 470 333 496 q 219 400 246 444 q 193 297 193 356 q 219 195 193 240 q 290 123 246 150 q 386 96 335 96 m 872 844 l 807 878 q 853 954 836 906 q 861 1051 871 1003 l 964 1061 q 961 980 972 1022 q 926 901 950 938 q 872 844 903 865 l 872 844 z "},"đ":{"ha":824,"x_min":63,"x_max":832,"o":"m 346 -14 q 202 24 267 -14 q 100 133 138 63 q 63 294 63 203 q 102 458 63 390 q 210 563 142 526 q 363 599 278 599 q 492 569 431 599 q 589 489 554 540 l 583 443 l 583 1075 l 711 1075 l 711 0 l 582 0 l 582 143 l 596 107 q 492 20 556 54 q 346 -14 428 -14 m 386 96 q 478 115 438 96 q 544 167 518 133 q 582 246 571 200 l 582 354 q 542 427 571 396 q 474 477 514 458 q 386 496 435 496 q 290 470 333 496 q 219 400 246 444 q 193 297 193 356 q 219 195 193 240 q 290 123 246 150 q 386 96 335 96 m 446 940 l 831 940 l 831 819 l 446 819 l 446 940 z "},"ǳ":{"ha":1467,"x_min":63,"x_max":1399,"o":"m 346 -14 q 202 24 267 -14 q 100 133 138 63 q 63 294 63 203 q 102 458 63 390 q 210 563 142 526 q 363 599 278 599 q 492 569 431 599 q 589 489 554 540 l 583 443 l 583 1075 l 711 1075 l 711 0 l 582 0 l 582 143 l 596 107 q 492 20 556 54 q 346 -14 428 -14 m 386 96 q 478 115 438 96 q 544 167 518 133 q 582 246 571 200 l 582 354 q 542 427 571 396 q 474 477 514 458 q 386 496 435 496 q 290 470 333 496 q 219 400 246 444 q 193 297 193 356 q 219 195 193 240 q 290 123 246 150 q 386 96 335 96 m 989 469 q 915 496 946 469 q 885 575 885 522 l 885 629 l 983 629 l 983 611 q 994 582 983 589 q 1031 575 1006 575 l 1399 575 l 1054 79 l 1029 107 l 1394 107 l 1394 0 l 863 0 l 1214 506 l 1236 469 l 989 469 z "},"ǆ":{"ha":1467,"x_min":63,"x_max":1399,"o":"m 346 -14 q 202 24 267 -14 q 100 133 138 63 q 63 294 63 203 q 102 458 63 390 q 210 563 142 526 q 363 599 278 599 q 492 569 431 599 q 589 489 554 540 l 583 443 l 583 1075 l 711 1075 l 711 0 l 582 0 l 582 143 l 596 107 q 492 20 556 54 q 346 -14 428 -14 m 386 96 q 478 115 438 96 q 544 167 518 133 q 582 246 571 200 l 582 354 q 542 427 571 396 q 474 477 514 458 q 386 496 435 496 q 290 470 333 496 q 219 400 246 444 q 193 297 193 356 q 219 195 193 240 q 290 123 246 150 q 386 96 335 96 z "},"e":{"ha":722,"x_min":63,"x_max":672,"o":"m 379 -14 q 210 26 281 -14 q 101 134 139 65 q 63 292 63 203 q 106 446 63 376 q 221 557 149 515 q 382 599 293 599 q 571 532 496 599 q 672 349 646 465 l 199 182 l 168 258 l 557 400 l 529 382 q 474 462 513 428 q 372 496 435 496 q 278 470 319 496 q 213 400 236 444 q 189 299 189 356 q 214 194 189 239 q 283 123 239 149 q 382 97 326 97 q 455 111 419 97 q 521 147 490 125 l 581 51 q 484 4 538 22 q 379 -14 431 -14 z "},"é":{"ha":722,"x_min":63,"x_max":672,"o":"m 379 -14 q 210 26 281 -14 q 101 134 139 65 q 63 292 63 203 q 106 446 63 376 q 221 557 149 515 q 382 599 293 599 q 571 532 496 599 q 672 349 646 465 l 199 182 l 168 258 l 557 400 l 529 382 q 474 462 513 428 q 372 496 435 496 q 278 470 319 496 q 213 400 236 444 q 189 299 189 356 q 214 194 189 239 q 283 123 239 149 q 382 97 326 97 q 455 111 419 97 q 521 147 490 125 l 581 51 q 484 4 538 22 q 379 -14 431 -14 z "},"ĕ":{"ha":722,"x_min":63,"x_max":672,"o":"m 379 -14 q 210 26 281 -14 q 101 134 139 65 q 63 292 63 203 q 106 446 63 376 q 221 557 149 515 q 382 599 293 599 q 571 532 496 599 q 672 349 646 465 l 199 182 l 168 258 l 557 400 l 529 382 q 474 462 513 428 q 372 496 435 496 q 278 470 319 496 q 213 400 236 444 q 189 299 189 356 q 214 194 189 239 q 283 123 239 149 q 382 97 326 97 q 455 111 419 97 q 521 147 490 125 l 581 51 q 484 4 538 22 q 379 -14 431 -14 z "},"ě":{"ha":722,"x_min":63,"x_max":672,"o":"m 379 -14 q 210 26 281 -14 q 101 134 139 65 q 63 292 63 203 q 106 446 63 376 q 221 557 149 515 q 382 599 293 599 q 571 532 496 599 q 672 349 646 465 l 199 182 l 168 258 l 557 400 l 529 382 q 474 462 513 428 q 372 496 435 496 q 278 470 319 496 q 213 400 236 444 q 189 299 189 356 q 214 194 189 239 q 283 123 239 149 q 382 97 326 97 q 455 111 419 97 q 521 147 490 125 l 581 51 q 484 4 538 22 q 379 -14 431 -14 z "},"ê":{"ha":722,"x_min":63,"x_max":672,"o":"m 379 -14 q 210 26 281 -14 q 101 134 139 65 q 63 292 63 203 q 106 446 63 376 q 221 557 149 515 q 382 599 293 599 q 571 532 496 599 q 672 349 646 465 l 199 182 l 168 258 l 557 400 l 529 382 q 474 462 513 428 q 372 496 435 496 q 278 470 319 496 q 213 400 236 444 q 189 299 189 356 q 214 194 189 239 q 283 123 239 149 q 382 97 326 97 q 455 111 419 97 q 521 147 490 125 l 581 51 q 484 4 538 22 q 379 -14 431 -14 z "},"ế":{"ha":722,"x_min":63,"x_max":753,"o":"m 379 -14 q 210 26 281 -14 q 101 134 139 65 q 63 292 63 203 q 106 446 63 376 q 221 557 149 515 q 382 599 293 599 q 571 532 496 599 q 672 349 646 465 l 199 182 l 168 258 l 557 400 l 529 382 q 474 462 513 428 q 372 496 435 496 q 278 470 319 496 q 213 400 236 444 q 189 299 189 356 q 214 194 189 239 q 283 123 239 149 q 382 97 326 97 q 455 111 419 97 q 521 147 490 125 l 581 51 q 484 4 538 22 q 379 -14 431 -14 z "},"ệ":{"ha":722,"x_min":63,"x_max":672,"o":"m 379 -14 q 210 26 281 -14 q 101 134 139 65 q 63 292 63 203 q 106 446 63 376 q 221 557 149 515 q 382 599 293 599 q 571 532 496 599 q 672 349 646 465 l 199 182 l 168 258 l 557 400 l 529 382 q 474 462 513 428 q 372 496 435 496 q 278 470 319 496 q 213 400 236 444 q 189 299 189 356 q 214 194 189 239 q 283 123 239 149 q 382 97 326 97 q 455 111 419 97 q 521 147 490 125 l 581 51 q 484 4 538 22 q 379 -14 431 -14 m 294 -144 q 315 -100 294 -118 q 363 -82 336 -82 q 407 -100 386 -82 q 428 -144 428 -118 q 407 -190 428 -172 q 363 -207 386 -207 q 315 -189 336 -207 q 294 -144 294 -171 z "},"ề":{"ha":722,"x_min":-51,"x_max":672,"o":"m 379 -14 q 210 26 281 -14 q 101 134 139 65 q 63 292 63 203 q 106 446 63 376 q 221 557 149 515 q 382 599 293 599 q 571 532 496 599 q 672 349 646 465 l 199 182 l 168 258 l 557 400 l 529 382 q 474 462 513 428 q 372 496 435 496 q 278 470 319 496 q 213 400 236 444 q 189 299 189 356 q 214 194 189 239 q 283 123 239 149 q 382 97 326 97 q 455 111 419 97 q 521 147 490 125 l 581 51 q 484 4 538 22 q 379 -14 431 -14 z "},"ể":{"ha":722,"x_min":63,"x_max":722,"o":"m 379 -14 q 210 26 281 -14 q 101 134 139 65 q 63 292 63 203 q 106 446 63 376 q 221 557 149 515 q 382 599 293 599 q 571 532 496 599 q 672 349 646 465 l 199 182 l 168 258 l 557 400 l 529 382 q 474 462 513 428 q 372 496 435 496 q 278 470 319 496 q 213 400 236 444 q 189 299 189 356 q 214 194 189 239 q 283 123 239 149 q 382 97 326 97 q 455 111 419 97 q 521 147 490 125 l 581 51 q 484 4 538 22 q 379 -14 431 -14 z "},"ễ":{"ha":722,"x_min":63,"x_max":672,"o":"m 379 -14 q 210 26 281 -14 q 101 134 139 65 q 63 292 63 203 q 106 446 63 376 q 221 557 149 515 q 382 599 293 599 q 571 532 496 599 q 672 349 646 465 l 199 182 l 168 258 l 557 400 l 529 382 q 474 462 513 428 q 372 496 435 496 q 278 470 319 496 q 213 400 236 444 q 189 299 189 356 q 214 194 189 239 q 283 123 239 149 q 382 97 326 97 q 455 111 419 97 q 521 147 490 125 l 581 51 q 484 4 538 22 q 379 -14 431 -14 z "},"ȅ":{"ha":722,"x_min":63,"x_max":672,"o":"m 379 -14 q 210 26 281 -14 q 101 134 139 65 q 63 292 63 203 q 106 446 63 376 q 221 557 149 515 q 382 599 293 599 q 571 532 496 599 q 672 349 646 465 l 199 182 l 168 258 l 557 400 l 529 382 q 474 462 513 428 q 372 496 435 496 q 278 470 319 496 q 213 400 236 444 q 189 299 189 356 q 214 194 189 239 q 283 123 239 149 q 382 97 326 97 q 455 111 419 97 q 521 147 490 125 l 581 51 q 484 4 538 22 q 379 -14 431 -14 z "},"ë":{"ha":722,"x_min":63,"x_max":672,"o":"m 379 -14 q 210 26 281 -14 q 101 134 139 65 q 63 292 63 203 q 106 446 63 376 q 221 557 149 515 q 382 599 293 599 q 571 532 496 599 q 672 349 646 465 l 199 182 l 168 258 l 557 400 l 529 382 q 474 462 513 428 q 372 496 435 496 q 278 470 319 496 q 213 400 236 444 q 189 299 189 356 q 214 194 189 239 q 283 123 239 149 q 382 97 326 97 q 455 111 419 97 q 521 147 490 125 l 581 51 q 484 4 538 22 q 379 -14 431 -14 z "},"ė":{"ha":722,"x_min":63,"x_max":672,"o":"m 379 -14 q 210 26 281 -14 q 101 134 139 65 q 63 292 63 203 q 106 446 63 376 q 221 557 149 515 q 382 599 293 599 q 571 532 496 599 q 672 349 646 465 l 199 182 l 168 258 l 557 400 l 529 382 q 474 462 513 428 q 372 496 435 496 q 278 470 319 496 q 213 400 236 444 q 189 299 189 356 q 214 194 189 239 q 283 123 239 149 q 382 97 326 97 q 455 111 419 97 q 521 147 490 125 l 581 51 q 484 4 538 22 q 379 -14 431 -14 z "},"ẹ":{"ha":722,"x_min":63,"x_max":672,"o":"m 379 -14 q 210 26 281 -14 q 101 134 139 65 q 63 292 63 203 q 106 446 63 376 q 221 557 149 515 q 382 599 293 599 q 571 532 496 599 q 672 349 646 465 l 199 182 l 168 258 l 557 400 l 529 382 q 474 462 513 428 q 372 496 435 496 q 278 470 319 496 q 213 400 236 444 q 189 299 189 356 q 214 194 189 239 q 283 123 239 149 q 382 97 326 97 q 455 111 419 97 q 521 147 490 125 l 581 51 q 484 4 538 22 q 379 -14 431 -14 m 294 -144 q 315 -100 294 -118 q 363 -82 336 -82 q 407 -100 386 -82 q 428 -144 428 -118 q 407 -190 428 -172 q 363 -207 386 -207 q 315 -189 336 -207 q 294 -144 294 -171 z "},"è":{"ha":722,"x_min":63,"x_max":672,"o":"m 379 -14 q 210 26 281 -14 q 101 134 139 65 q 63 292 63 203 q 106 446 63 376 q 221 557 149 515 q 382 599 293 599 q 571 532 496 599 q 672 349 646 465 l 199 182 l 168 258 l 557 400 l 529 382 q 474 462 513 428 q 372 496 435 496 q 278 470 319 496 q 213 400 236 444 q 189 299 189 356 q 214 194 189 239 q 283 123 239 149 q 382 97 326 97 q 455 111 419 97 q 521 147 490 125 l 581 51 q 484 4 538 22 q 379 -14 431 -14 z "},"ẻ":{"ha":722,"x_min":63,"x_max":672,"o":"m 379 -14 q 210 26 281 -14 q 101 134 139 65 q 63 292 63 203 q 106 446 63 376 q 221 557 149 515 q 382 599 293 599 q 571 532 496 599 q 672 349 646 465 l 199 182 l 168 258 l 557 400 l 529 382 q 474 462 513 428 q 372 496 435 496 q 278 470 319 496 q 213 400 236 444 q 189 299 189 356 q 214 194 189 239 q 283 123 239 149 q 382 97 326 97 q 455 111 419 97 q 521 147 490 125 l 581 51 q 484 4 538 22 q 379 -14 431 -14 m 344 700 q 388 740 371 721 q 406 785 406 758 q 394 819 406 806 q 361 833 383 833 q 324 822 339 833 q 296 790 308 810 l 247 822 q 305 888 271 867 q 378 908 339 908 q 435 894 413 908 q 470 854 458 879 q 482 800 482 829 q 451 719 482 751 q 376 660 419 686 l 344 700 z "},"ȇ":{"ha":722,"x_min":63,"x_max":672,"o":"m 379 -14 q 210 26 281 -14 q 101 134 139 65 q 63 292 63 203 q 106 446 63 376 q 221 557 149 515 q 382 599 293 599 q 571 532 496 599 q 672 349 646 465 l 199 182 l 168 258 l 557 400 l 529 382 q 474 462 513 428 q 372 496 435 496 q 278 470 319 496 q 213 400 236 444 q 189 299 189 356 q 214 194 189 239 q 283 123 239 149 q 382 97 326 97 q 455 111 419 97 q 521 147 490 125 l 581 51 q 484 4 538 22 q 379 -14 431 -14 m 378 900 q 480 872 436 900 q 551 788 524 843 q 588 656 578 733 l 500 656 q 479 736 494 701 q 439 791 464 771 q 378 811 414 811 q 317 791 342 811 q 278 736 292 771 q 258 656 264 701 l 169 656 q 206 790 179 735 q 276 872 233 844 q 378 900 319 900 z "},"ē":{"ha":722,"x_min":63,"x_max":672,"o":"m 379 -14 q 210 26 281 -14 q 101 134 139 65 q 63 292 63 203 q 106 446 63 376 q 221 557 149 515 q 382 599 293 599 q 571 532 496 599 q 672 349 646 465 l 199 182 l 168 258 l 557 400 l 529 382 q 474 462 513 428 q 372 496 435 496 q 278 470 319 496 q 213 400 236 444 q 189 299 189 356 q 214 194 189 239 q 283 123 239 149 q 382 97 326 97 q 455 111 419 97 q 521 147 490 125 l 581 51 q 484 4 538 22 q 379 -14 431 -14 z "},"ę":{"ha":725,"x_min":65,"x_max":676,"o":"m 457 -299 q 331 -256 379 -299 q 283 -142 283 -212 q 310 -56 283 -99 q 386 13 336 -14 l 518 32 q 480 8 506 18 q 428 -8 454 -1 q 382 -14 401 -14 q 214 26 285 -14 q 104 134 143 65 q 65 292 65 203 q 108 446 65 376 q 224 557 151 515 q 385 599 296 599 q 574 532 499 599 q 676 349 649 465 l 203 182 l 174 256 l 561 397 l 533 382 q 476 463 514 429 q 375 496 438 496 q 281 470 322 496 q 217 400 240 444 q 193 299 193 356 q 218 193 193 239 q 287 122 243 147 q 385 97 331 97 q 459 111 424 97 q 525 147 494 125 l 585 51 q 517 15 551 31 q 455 -19 483 -1 q 409 -62 426 -37 q 392 -124 392 -86 q 416 -183 392 -161 q 468 -206 440 -206 q 516 -192 494 -206 q 557 -149 538 -178 l 604 -217 q 539 -276 581 -253 q 457 -299 497 -299 z "},"ẽ":{"ha":722,"x_min":63,"x_max":672,"o":"m 379 -14 q 210 26 281 -14 q 101 134 139 65 q 63 292 63 203 q 106 446 63 376 q 221 557 149 515 q 382 599 293 599 q 571 532 496 599 q 672 349 646 465 l 199 182 l 168 258 l 557 400 l 529 382 q 474 462 513 428 q 372 496 435 496 q 278 470 319 496 q 213 400 236 444 q 189 299 189 356 q 214 194 189 239 q 283 123 239 149 q 382 97 326 97 q 455 111 419 97 q 521 147 490 125 l 581 51 q 484 4 538 22 q 379 -14 431 -14 m 479 656 q 406 676 435 656 q 353 718 378 696 q 319 747 336 733 q 282 760 303 760 q 252 747 265 760 q 232 710 239 733 q 225 654 225 686 l 156 654 q 167 752 151 708 q 215 821 183 796 q 289 846 246 846 q 351 826 325 846 q 400 785 378 806 q 438 752 419 767 q 476 738 456 738 q 516 767 504 738 q 528 846 528 796 l 597 846 q 588 744 603 788 q 544 678 574 701 q 479 656 515 656 z "},"ə":{"ha":722,"x_min":50,"x_max":660,"o":"m 343 589 q 512 549 440 589 q 622 440 583 510 q 660 283 660 371 q 617 129 660 199 q 501 18 574 60 q 340 -24 429 -24 q 151 42 226 -24 q 50 226 76 108 l 524 393 l 554 317 l 165 174 l 193 193 q 248 113 210 147 q 350 79 286 79 q 444 105 403 79 q 510 175 486 131 q 533 276 533 219 q 508 381 533 336 q 440 452 483 426 q 340 478 396 478 q 266 465 301 478 q 200 428 231 451 l 140 524 q 238 571 185 553 q 343 589 292 589 z "},"f":{"ha":526,"x_min":61,"x_max":508,"o":"m 160 0 l 160 460 l 61 460 l 61 575 l 160 575 l 160 818 q 216 1010 160 943 q 382 1076 272 1076 q 447 1068 411 1076 q 508 1040 482 1060 l 454 947 q 426 965 442 960 q 396 969 411 969 q 317 935 344 969 q 289 817 289 900 l 289 575 l 471 575 l 471 460 l 289 460 l 289 0 l 160 0 z "},"g":{"ha":831,"x_min":63,"x_max":719,"o":"m 389 -285 q 276 -270 325 -285 q 188 -229 228 -256 q 113 -169 149 -203 l 188 -82 q 281 -149 233 -125 q 386 -172 328 -172 q 497 -151 451 -172 q 565 -91 542 -129 q 589 -3 589 -53 l 590 153 l 601 128 q 511 27 576 68 q 353 -14 446 -14 q 208 26 274 -14 q 102 135 142 67 q 63 290 63 204 q 104 449 63 381 q 214 558 146 518 q 363 599 282 599 q 502 567 439 599 q 594 488 565 536 l 588 464 l 601 575 l 719 575 l 719 -4 q 679 -146 719 -82 q 565 -247 639 -210 q 389 -285 492 -285 m 192 293 q 218 192 192 238 q 290 119 244 146 q 390 93 335 93 q 483 112 442 93 q 551 163 524 131 q 590 239 579 196 l 590 353 q 549 426 578 394 q 479 474 519 457 q 390 492 439 492 q 290 467 335 492 q 218 397 244 442 q 192 293 192 351 z "},"ğ":{"ha":831,"x_min":63,"x_max":719,"o":"m 389 -285 q 276 -270 325 -285 q 188 -229 228 -256 q 113 -169 149 -203 l 188 -82 q 281 -149 233 -125 q 386 -172 328 -172 q 497 -151 451 -172 q 565 -91 542 -129 q 589 -3 589 -53 l 590 153 l 601 128 q 511 27 576 68 q 353 -14 446 -14 q 208 26 274 -14 q 102 135 142 67 q 63 290 63 204 q 104 449 63 381 q 214 558 146 518 q 363 599 282 599 q 502 567 439 599 q 594 488 565 536 l 588 464 l 601 575 l 719 575 l 719 -4 q 679 -146 719 -82 q 565 -247 639 -210 q 389 -285 492 -285 m 192 293 q 218 192 192 238 q 290 119 244 146 q 390 93 335 93 q 483 112 442 93 q 551 163 524 131 q 590 239 579 196 l 590 353 q 549 426 578 394 q 479 474 519 457 q 390 492 439 492 q 290 467 335 492 q 218 397 244 442 q 192 293 192 351 z "},"ǧ":{"ha":831,"x_min":63,"x_max":719,"o":"m 389 -285 q 276 -270 325 -285 q 188 -229 228 -256 q 113 -169 149 -203 l 188 -82 q 281 -149 233 -125 q 386 -172 328 -172 q 497 -151 451 -172 q 565 -91 542 -129 q 589 -3 589 -53 l 590 153 l 601 128 q 511 27 576 68 q 353 -14 446 -14 q 208 26 274 -14 q 102 135 142 67 q 63 290 63 204 q 104 449 63 381 q 214 558 146 518 q 363 599 282 599 q 502 567 439 599 q 594 488 565 536 l 588 464 l 601 575 l 719 575 l 719 -4 q 679 -146 719 -82 q 565 -247 639 -210 q 389 -285 492 -285 m 192 293 q 218 192 192 238 q 290 119 244 146 q 390 93 335 93 q 483 112 442 93 q 551 163 524 131 q 590 239 579 196 l 590 353 q 549 426 578 394 q 479 474 519 457 q 390 492 439 492 q 290 467 335 492 q 218 397 244 442 q 192 293 192 351 z "},"ĝ":{"ha":831,"x_min":63,"x_max":719,"o":"m 389 -285 q 276 -270 325 -285 q 188 -229 228 -256 q 113 -169 149 -203 l 188 -82 q 281 -149 233 -125 q 386 -172 328 -172 q 497 -151 451 -172 q 565 -91 542 -129 q 589 -3 589 -53 l 590 153 l 601 128 q 511 27 576 68 q 353 -14 446 -14 q 208 26 274 -14 q 102 135 142 67 q 63 290 63 204 q 104 449 63 381 q 214 558 146 518 q 363 599 282 599 q 502 567 439 599 q 594 488 565 536 l 588 464 l 601 575 l 719 575 l 719 -4 q 679 -146 719 -82 q 565 -247 639 -210 q 389 -285 492 -285 m 192 293 q 218 192 192 238 q 290 119 244 146 q 390 93 335 93 q 483 112 442 93 q 551 163 524 131 q 590 239 579 196 l 590 353 q 549 426 578 394 q 479 474 519 457 q 390 492 439 492 q 290 467 335 492 q 218 397 244 442 q 192 293 192 351 z "},"ģ":{"ha":788,"x_min":63,"x_max":719,"o":"m 321 704 q 381 850 351 778 q 442 994 411 922 l 546 994 q 492 850 519 922 q 438 704 465 778 l 321 704 m 389 -285 q 276 -270 325 -285 q 188 -229 228 -256 q 113 -169 149 -203 l 188 -82 q 281 -149 233 -125 q 386 -172 328 -172 q 497 -151 451 -172 q 565 -91 542 -129 q 589 -3 589 -53 l 590 153 l 601 128 q 511 27 576 68 q 353 -14 446 -14 q 208 26 274 -14 q 102 135 142 67 q 63 290 63 204 q 104 449 63 381 q 214 558 146 518 q 363 599 282 599 q 502 567 439 599 q 594 488 565 536 l 588 464 l 601 575 l 719 575 l 719 -4 q 679 -146 719 -82 q 565 -247 639 -210 q 389 -285 492 -285 m 192 293 q 218 192 192 238 q 290 119 244 146 q 390 93 335 93 q 483 112 442 93 q 551 163 524 131 q 590 239 579 196 l 590 353 q 549 426 578 394 q 479 474 519 457 q 390 492 439 492 q 290 467 335 492 q 218 397 244 442 q 192 293 192 351 z "},"ġ":{"ha":831,"x_min":63,"x_max":719,"o":"m 389 -285 q 276 -270 325 -285 q 188 -229 228 -256 q 113 -169 149 -203 l 188 -82 q 281 -149 233 -125 q 386 -172 328 -172 q 497 -151 451 -172 q 565 -91 542 -129 q 589 -3 589 -53 l 590 153 l 601 128 q 511 27 576 68 q 353 -14 446 -14 q 208 26 274 -14 q 102 135 142 67 q 63 290 63 204 q 104 449 63 381 q 214 558 146 518 q 363 599 282 599 q 502 567 439 599 q 594 488 565 536 l 588 464 l 601 575 l 719 575 l 719 -4 q 679 -146 719 -82 q 565 -247 639 -210 q 389 -285 492 -285 m 192 293 q 218 192 192 238 q 290 119 244 146 q 390 93 335 93 q 483 112 442 93 q 551 163 524 131 q 590 239 579 196 l 590 353 q 549 426 578 394 q 479 474 519 457 q 390 492 439 492 q 290 467 335 492 q 218 397 244 442 q 192 293 192 351 z "},"h":{"ha":768,"x_min":113,"x_max":656,"o":"m 113 0 l 113 1075 l 239 1075 l 239 442 l 236 465 q 326 560 265 522 q 468 597 386 597 q 602 549 550 597 q 656 425 654 501 l 656 0 l 525 0 l 525 379 q 498 456 524 426 q 418 486 472 486 q 328 458 368 486 q 265 381 288 429 q 242 269 242 332 l 242 0 l 113 0 z "},"ħ":{"ha":768,"x_min":-8,"x_max":656,"o":"m 113 0 l 113 1075 l 239 1075 l 239 442 l 236 465 q 326 560 265 522 q 468 597 386 597 q 602 549 550 597 q 656 425 654 501 l 656 0 l 525 0 l 525 379 q 498 456 524 426 q 418 486 472 486 q 328 458 368 486 q 265 381 288 429 q 242 269 242 332 l 242 0 l 113 0 m -8 892 l 376 892 l 376 771 l -8 771 l -8 892 z "},"ĥ":{"ha":768,"x_min":-65,"x_max":656,"o":"m 113 0 l 113 1075 l 239 1075 l 239 442 l 236 465 q 326 560 265 522 q 468 597 386 597 q 602 549 550 597 q 656 425 654 501 l 656 0 l 525 0 l 525 379 q 498 456 524 426 q 418 486 472 486 q 328 458 368 486 q 265 381 288 429 q 242 269 242 332 l 242 0 l 113 0 z "},"i":{"ha":353,"x_min":103,"x_max":256,"o":"m 113 575 l 242 575 l 242 0 l 113 0 l 113 575 z "},"ı":{"ha":353,"x_min":113,"x_max":242,"o":"m 113 575 l 242 575 l 242 0 l 113 0 l 113 575 z "},"í":{"ha":353,"x_min":78,"x_max":336,"o":"m 113 575 l 242 575 l 242 0 l 113 0 l 113 575 z "},"ĭ":{"ha":353,"x_min":-32,"x_max":388,"o":"m 113 575 l 242 575 l 242 0 l 113 0 l 113 575 z "},"î":{"ha":353,"x_min":-53,"x_max":410,"o":"m 113 575 l 242 575 l 242 0 l 113 0 l 113 575 z "},"ȉ":{"ha":353,"x_min":-111,"x_max":329,"o":"m 113 575 l 242 575 l 242 0 l 113 0 l 113 575 z "},"ï":{"ha":353,"x_min":-25,"x_max":379,"o":"m 113 575 l 242 575 l 242 0 l 113 0 l 113 575 z "},"ị":{"ha":353,"x_min":103,"x_max":256,"o":"m 113 575 l 242 575 l 242 0 l 113 0 l 113 575 m 107 -144 q 128 -100 107 -118 q 175 -82 149 -82 q 219 -100 199 -82 q 240 -144 240 -118 q 219 -190 240 -172 q 175 -207 199 -207 q 128 -189 149 -207 q 107 -144 107 -171 z "},"ì":{"ha":353,"x_min":-24,"x_max":242,"o":"m 113 575 l 242 575 l 242 0 l 113 0 l 113 575 z "},"ỉ":{"ha":353,"x_min":53,"x_max":288,"o":"m 113 575 l 242 575 l 242 0 l 113 0 l 113 575 m 150 681 q 194 720 176 701 q 211 765 211 739 q 200 800 211 786 q 167 814 189 814 q 129 802 144 814 q 101 771 114 790 l 53 803 q 110 868 76 847 q 183 889 144 889 q 241 874 218 889 q 276 835 264 860 q 288 781 288 810 q 256 699 288 732 q 182 640 225 667 l 150 681 z "},"ȋ":{"ha":353,"x_min":-25,"x_max":393,"o":"m 113 575 l 242 575 l 242 0 l 113 0 l 113 575 m 183 882 q 285 853 242 882 q 356 770 329 825 q 393 638 383 715 l 306 638 q 285 718 300 683 q 244 773 269 753 q 183 793 219 793 q 122 773 147 793 q 83 718 97 753 q 64 638 69 683 l -25 638 q 12 772 -15 717 q 82 854 39 826 q 183 882 125 882 z "},"ĳ":{"ha":700,"x_min":103,"x_max":601,"o":"m 113 575 l 242 575 l 242 0 l 113 0 l 113 575 z "},"ī":{"ha":353,"x_min":8,"x_max":349,"o":"m 113 575 l 242 575 l 242 0 l 113 0 l 113 575 z "},"į":{"ha":358,"x_min":-3,"x_max":317,"o":"m 160 -299 q 45 -257 93 -299 q -3 -147 -3 -215 q 32 -54 -3 -99 q 122 15 67 -10 l 218 11 l 243 0 q 142 -62 179 -31 q 106 -137 106 -94 q 126 -190 106 -174 q 172 -206 147 -206 q 224 -188 200 -206 q 267 -140 247 -171 l 317 -206 q 248 -272 292 -246 q 160 -299 204 -299 m 113 575 l 242 575 l 242 0 l 113 0 l 113 575 m 101 764 q 126 815 101 794 q 178 836 150 836 q 231 815 207 836 q 254 764 254 794 q 231 712 254 732 q 178 692 207 692 q 126 712 150 692 q 101 764 101 732 z "},"ĩ":{"ha":353,"x_min":-43,"x_max":408,"o":"m 113 575 l 242 575 l 242 0 l 113 0 l 113 575 m 285 638 q 212 658 240 638 q 158 700 183 678 q 125 728 142 715 q 88 742 108 742 q 58 728 71 742 q 38 692 44 715 q 31 636 31 668 l -39 636 q -27 734 -43 690 q 20 803 -11 778 q 94 828 51 828 q 157 808 131 828 q 206 767 183 788 q 243 734 225 749 q 282 719 261 719 q 322 749 310 719 q 333 828 333 778 l 403 828 q 394 726 408 769 q 350 660 379 683 q 285 638 321 638 z "},"j":{"ha":360,"x_min":43,"x_max":269,"o":"m 119 -276 l 43 -197 q 104 -115 82 -164 q 126 1 126 -65 l 126 575 l 257 575 l 257 -4 q 224 -169 257 -101 q 119 -276 192 -236 z "},"ȷ":{"ha":360,"x_min":43,"x_max":257,"o":"m 119 -276 l 43 -197 q 104 -115 82 -164 q 126 1 126 -65 l 126 575 l 257 575 l 257 -4 q 224 -169 257 -101 q 119 -276 192 -236 z "},"ĵ":{"ha":360,"x_min":-40,"x_max":422,"o":"m 119 -276 l 43 -197 q 104 -115 82 -164 q 126 1 126 -65 l 126 575 l 257 575 l 257 -4 q 224 -169 257 -101 q 119 -276 192 -236 z "},"k":{"ha":692,"x_min":113,"x_max":644,"o":"m 113 0 l 113 1075 l 242 1075 l 242 0 l 113 0 m 381 382 l 644 0 l 493 0 l 294 310 l 381 382 m 201 183 l 189 307 l 538 588 l 617 519 l 201 183 z "},"ķ":{"ha":692,"x_min":113,"x_max":644,"o":"m 113 0 l 113 1075 l 242 1075 l 242 0 l 113 0 m 381 382 l 644 0 l 493 0 l 294 310 l 381 382 m 201 183 l 189 307 l 538 588 l 617 519 l 201 183 m 300 -281 l 233 -235 q 282 -154 268 -207 q 288 -50 296 -101 l 403 -50 q 399 -132 408 -87 q 365 -216 389 -176 q 300 -281 340 -256 z "},"ĸ":{"ha":704,"x_min":113,"x_max":642,"o":"m 231 175 l 211 289 l 483 575 l 640 575 l 231 175 m 242 0 l 113 0 l 113 575 l 242 575 l 242 0 m 369 329 l 642 0 l 490 0 l 271 272 l 369 329 z "},"l":{"ha":353,"x_min":113,"x_max":242,"o":"m 113 1075 l 242 1075 l 242 0 l 113 0 l 113 1075 z "},"ĺ":{"ha":353,"x_min":113,"x_max":394,"o":"m 113 1075 l 242 1075 l 242 0 l 113 0 l 113 1075 z "},"ľ":{"ha":526,"x_min":113,"x_max":517,"o":"m 113 1075 l 242 1075 l 242 0 l 113 0 l 113 1075 m 415 836 l 350 869 q 397 946 379 897 q 404 1043 414 994 l 507 1053 q 504 972 515 1014 q 469 893 493 929 q 415 836 446 857 l 415 836 z "},"ļ":{"ha":353,"x_min":65,"x_max":242,"o":"m 113 1075 l 242 1075 l 242 0 l 113 0 l 113 1075 m 132 -281 l 65 -235 q 114 -154 100 -207 q 119 -50 128 -101 l 235 -50 q 231 -132 240 -87 q 197 -216 221 -176 q 132 -281 172 -256 z "},"ŀ":{"ha":481,"x_min":113,"x_max":490,"o":"m 113 1075 l 242 1075 l 242 0 l 113 0 l 113 1075 z "},"ǉ":{"ha":714,"x_min":113,"x_max":622,"o":"m 113 1075 l 242 1075 l 242 0 l 113 0 l 113 1075 m 472 -276 l 396 -197 q 457 -115 435 -164 q 479 1 479 -65 l 479 575 l 610 575 l 610 -4 q 577 -169 610 -101 q 472 -276 544 -236 z "},"ł":{"ha":371,"x_min":28,"x_max":354,"o":"m 354 540 l 354 428 l 28 340 l 28 453 l 354 540 m 121 1075 l 250 1075 l 250 0 l 121 0 l 121 1075 z "},"m":{"ha":1146,"x_min":113,"x_max":1033,"o":"m 228 575 l 239 446 l 233 457 q 324 560 265 522 q 460 597 383 597 q 546 582 508 597 q 608 538 583 567 q 639 468 632 510 l 632 464 q 724 562 665 526 q 849 597 783 597 q 983 549 933 597 q 1033 425 1032 501 l 1033 0 l 904 0 l 904 379 q 883 453 903 424 q 813 486 863 483 q 723 456 763 486 q 661 377 683 425 q 638 274 639 329 l 638 0 l 508 0 l 508 379 q 485 453 507 424 q 414 486 464 483 q 324 456 363 486 q 263 376 285 425 q 242 272 242 328 l 242 0 l 113 0 l 113 575 l 228 575 z "},"n":{"ha":768,"x_min":113,"x_max":656,"o":"m 228 575 l 239 435 l 233 457 q 324 559 261 521 q 468 597 386 597 q 602 549 550 597 q 656 425 654 501 l 656 0 l 525 0 l 525 379 q 498 456 524 426 q 418 486 472 486 q 328 458 368 486 q 265 382 288 431 q 242 269 242 333 l 242 0 l 113 0 l 113 575 l 228 575 z "},"ń":{"ha":768,"x_min":113,"x_max":656,"o":"m 228 575 l 239 435 l 233 457 q 324 559 261 521 q 468 597 386 597 q 602 549 550 597 q 656 425 654 501 l 656 0 l 525 0 l 525 379 q 498 456 524 426 q 418 486 472 486 q 328 458 368 486 q 265 382 288 431 q 242 269 242 333 l 242 0 l 113 0 l 113 575 l 228 575 z "},"ŉ":{"ha":786,"x_min":-71,"x_max":674,"o":"m -4 568 l -71 614 q -22 694 -36 642 q -17 799 -8 747 l 99 799 q 94 717 104 761 q 60 633 85 672 q -4 568 36 593 m 246 575 l 257 435 l 251 457 q 342 559 279 521 q 486 597 404 597 q 620 549 568 597 q 674 425 672 501 l 674 0 l 543 0 l 543 379 q 516 456 542 426 q 436 486 490 486 q 346 458 386 486 q 283 382 306 431 q 260 269 260 333 l 260 0 l 131 0 l 131 575 l 246 575 z "},"ň":{"ha":768,"x_min":113,"x_max":656,"o":"m 228 575 l 239 435 l 233 457 q 324 559 261 521 q 468 597 386 597 q 602 549 550 597 q 656 425 654 501 l 656 0 l 525 0 l 525 379 q 498 456 524 426 q 418 486 472 486 q 328 458 368 486 q 265 382 288 431 q 242 269 242 333 l 242 0 l 113 0 l 113 575 l 228 575 z "},"ņ":{"ha":768,"x_min":113,"x_max":656,"o":"m 228 575 l 239 435 l 233 457 q 324 559 261 521 q 468 597 386 597 q 602 549 550 597 q 656 425 654 501 l 656 0 l 525 0 l 525 379 q 498 456 524 426 q 418 486 472 486 q 328 458 368 486 q 265 382 288 431 q 242 269 242 333 l 242 0 l 113 0 l 113 575 l 228 575 m 339 -281 l 272 -235 q 321 -154 307 -207 q 326 -50 335 -101 l 442 -50 q 438 -132 447 -87 q 403 -216 428 -176 q 339 -281 379 -256 z "},"ŋ":{"ha":768,"x_min":113,"x_max":656,"o":"m 656 3 q 622 -161 656 -89 q 519 -276 589 -233 l 443 -197 q 503 -115 482 -164 q 525 1 525 -65 l 525 379 q 498 456 524 426 q 418 486 472 486 q 328 458 368 486 q 265 382 288 431 q 242 269 242 333 l 242 0 l 113 0 l 113 575 l 228 575 l 239 457 q 326 559 267 521 q 468 597 386 597 q 602 549 550 597 q 656 425 654 501 l 656 3 z "},"ɲ":{"ha":768,"x_min":32,"x_max":656,"o":"m 108 -276 l 32 -197 q 93 -115 71 -164 q 115 1 115 -65 l 115 63 l 244 63 l 244 -4 q 207 -165 244 -97 q 108 -276 169 -233 m 228 575 l 239 435 l 233 457 q 324 559 261 521 q 468 597 386 597 q 602 549 550 597 q 656 425 654 501 l 656 0 l 525 0 l 525 379 q 498 456 524 426 q 418 486 472 486 q 328 458 368 486 q 265 382 288 431 q 242 269 242 333 l 242 0 l 113 0 l 113 575 l 228 575 z "},"ǌ":{"ha":1118,"x_min":113,"x_max":1019,"o":"m 228 575 l 239 435 l 233 457 q 324 559 261 521 q 468 597 386 597 q 602 549 550 597 q 656 425 654 501 l 656 0 l 525 0 l 525 379 q 498 456 524 426 q 418 486 472 486 q 328 458 368 486 q 265 382 288 431 q 242 269 242 333 l 242 0 l 113 0 l 113 575 l 228 575 m 869 -276 l 793 -197 q 854 -115 832 -164 q 876 1 876 -65 l 876 575 l 1007 575 l 1007 -4 q 974 -169 1007 -101 q 869 -276 942 -236 z "},"ñ":{"ha":768,"x_min":113,"x_max":656,"o":"m 228 575 l 239 435 l 233 457 q 324 559 261 521 q 468 597 386 597 q 602 549 550 597 q 656 425 654 501 l 656 0 l 525 0 l 525 379 q 498 456 524 426 q 418 486 472 486 q 328 458 368 486 q 265 382 288 431 q 242 269 242 333 l 242 0 l 113 0 l 113 575 l 228 575 m 490 646 q 417 666 446 646 q 364 708 389 686 q 331 737 347 724 q 293 750 314 750 q 263 737 276 750 q 243 700 250 724 q 236 644 236 676 l 167 644 q 178 742 163 699 q 226 811 194 786 q 300 836 257 836 q 363 816 336 836 q 411 775 389 796 q 449 742 431 757 q 488 728 467 728 q 527 757 515 728 q 539 836 539 786 l 608 836 q 599 735 614 778 q 556 669 585 692 q 490 646 526 646 z "},"o":{"ha":757,"x_min":63,"x_max":694,"o":"m 63 293 q 103 449 63 379 q 217 558 144 518 q 381 599 289 599 q 546 558 475 599 q 656 449 617 518 q 694 293 694 379 q 656 137 694 207 q 545 26 617 67 q 379 -14 474 -14 q 216 24 288 -14 q 103 131 144 63 q 63 293 63 200 m 192 292 q 217 191 192 236 q 284 119 242 146 q 378 93 326 93 q 474 119 432 93 q 540 191 517 146 q 564 292 564 236 q 540 392 564 347 q 474 465 517 438 q 378 492 432 492 q 283 464 325 492 q 216 391 240 436 q 192 292 192 346 z "},"ó":{"ha":757,"x_min":63,"x_max":694,"o":"m 63 293 q 103 449 63 379 q 217 558 144 518 q 381 599 289 599 q 546 558 475 599 q 656 449 617 518 q 694 293 694 379 q 656 137 694 207 q 545 26 617 67 q 379 -14 474 -14 q 216 24 288 -14 q 103 131 144 63 q 63 293 63 200 m 192 292 q 217 191 192 236 q 284 119 242 146 q 378 93 326 93 q 474 119 432 93 q 540 191 517 146 q 564 292 564 236 q 540 392 564 347 q 474 465 517 438 q 378 492 432 492 q 283 464 325 492 q 216 391 240 436 q 192 292 192 346 z "},"ŏ":{"ha":757,"x_min":63,"x_max":694,"o":"m 63 293 q 103 449 63 379 q 217 558 144 518 q 381 599 289 599 q 546 558 475 599 q 656 449 617 518 q 694 293 694 379 q 656 137 694 207 q 545 26 617 67 q 379 -14 474 -14 q 216 24 288 -14 q 103 131 144 63 q 63 293 63 200 m 192 292 q 217 191 192 236 q 284 119 242 146 q 378 93 326 93 q 474 119 432 93 q 540 191 517 146 q 564 292 564 236 q 540 392 564 347 q 474 465 517 438 q 378 492 432 492 q 283 464 325 492 q 216 391 240 436 q 192 292 192 346 z "},"ô":{"ha":757,"x_min":63,"x_max":694,"o":"m 63 293 q 103 449 63 379 q 217 558 144 518 q 381 599 289 599 q 546 558 475 599 q 656 449 617 518 q 694 293 694 379 q 656 137 694 207 q 545 26 617 67 q 379 -14 474 -14 q 216 24 288 -14 q 103 131 144 63 q 63 293 63 200 m 192 292 q 217 191 192 236 q 284 119 242 146 q 378 93 326 93 q 474 119 432 93 q 540 191 517 146 q 564 292 564 236 q 540 392 564 347 q 474 465 517 438 q 378 492 432 492 q 283 464 325 492 q 216 391 240 436 q 192 292 192 346 z "},"ố":{"ha":757,"x_min":63,"x_max":760,"o":"m 63 293 q 103 449 63 379 q 217 558 144 518 q 381 599 289 599 q 546 558 475 599 q 656 449 617 518 q 694 293 694 379 q 656 137 694 207 q 545 26 617 67 q 379 -14 474 -14 q 216 24 288 -14 q 103 131 144 63 q 63 293 63 200 m 192 292 q 217 191 192 236 q 284 119 242 146 q 378 93 326 93 q 474 119 432 93 q 540 191 517 146 q 564 292 564 236 q 540 392 564 347 q 474 465 517 438 q 378 492 432 492 q 283 464 325 492 q 216 391 240 436 q 192 292 192 346 z "},"ộ":{"ha":757,"x_min":63,"x_max":694,"o":"m 63 293 q 103 449 63 379 q 217 558 144 518 q 381 599 289 599 q 546 558 475 599 q 656 449 617 518 q 694 293 694 379 q 656 137 694 207 q 545 26 617 67 q 379 -14 474 -14 q 216 24 288 -14 q 103 131 144 63 q 63 293 63 200 m 192 292 q 217 191 192 236 q 284 119 242 146 q 378 93 326 93 q 474 119 432 93 q 540 191 517 146 q 564 292 564 236 q 540 392 564 347 q 474 465 517 438 q 378 492 432 492 q 283 464 325 492 q 216 391 240 436 q 192 292 192 346 m 311 -144 q 332 -100 311 -118 q 379 -82 353 -82 q 424 -100 403 -82 q 444 -144 444 -118 q 424 -190 444 -172 q 379 -207 403 -207 q 332 -189 353 -207 q 311 -144 311 -171 z "},"ồ":{"ha":757,"x_min":-44,"x_max":694,"o":"m 63 293 q 103 449 63 379 q 217 558 144 518 q 381 599 289 599 q 546 558 475 599 q 656 449 617 518 q 694 293 694 379 q 656 137 694 207 q 545 26 617 67 q 379 -14 474 -14 q 216 24 288 -14 q 103 131 144 63 q 63 293 63 200 m 192 292 q 217 191 192 236 q 284 119 242 146 q 378 93 326 93 q 474 119 432 93 q 540 191 517 146 q 564 292 564 236 q 540 392 564 347 q 474 465 517 438 q 378 492 432 492 q 283 464 325 492 q 216 391 240 436 q 192 292 192 346 z "},"ổ":{"ha":757,"x_min":63,"x_max":729,"o":"m 63 293 q 103 449 63 379 q 217 558 144 518 q 381 599 289 599 q 546 558 475 599 q 656 449 617 518 q 694 293 694 379 q 656 137 694 207 q 545 26 617 67 q 379 -14 474 -14 q 216 24 288 -14 q 103 131 144 63 q 63 293 63 200 m 192 292 q 217 191 192 236 q 284 119 242 146 q 378 93 326 93 q 474 119 432 93 q 540 191 517 146 q 564 292 564 236 q 540 392 564 347 q 474 465 517 438 q 378 492 432 492 q 283 464 325 492 q 216 391 240 436 q 192 292 192 346 z "},"ỗ":{"ha":757,"x_min":63,"x_max":694,"o":"m 63 293 q 103 449 63 379 q 217 558 144 518 q 381 599 289 599 q 546 558 475 599 q 656 449 617 518 q 694 293 694 379 q 656 137 694 207 q 545 26 617 67 q 379 -14 474 -14 q 216 24 288 -14 q 103 131 144 63 q 63 293 63 200 m 192 292 q 217 191 192 236 q 284 119 242 146 q 378 93 326 93 q 474 119 432 93 q 540 191 517 146 q 564 292 564 236 q 540 392 564 347 q 474 465 517 438 q 378 492 432 492 q 283 464 325 492 q 216 391 240 436 q 192 292 192 346 z "},"ȍ":{"ha":757,"x_min":63,"x_max":694,"o":"m 63 293 q 103 449 63 379 q 217 558 144 518 q 381 599 289 599 q 546 558 475 599 q 656 449 617 518 q 694 293 694 379 q 656 137 694 207 q 545 26 617 67 q 379 -14 474 -14 q 216 24 288 -14 q 103 131 144 63 q 63 293 63 200 m 192 292 q 217 191 192 236 q 284 119 242 146 q 378 93 326 93 q 474 119 432 93 q 540 191 517 146 q 564 292 564 236 q 540 392 564 347 q 474 465 517 438 q 378 492 432 492 q 283 464 325 492 q 216 391 240 436 q 192 292 192 346 z "},"ö":{"ha":757,"x_min":63,"x_max":694,"o":"m 63 293 q 103 449 63 379 q 217 558 144 518 q 381 599 289 599 q 546 558 475 599 q 656 449 617 518 q 694 293 694 379 q 656 137 694 207 q 545 26 617 67 q 379 -14 474 -14 q 216 24 288 -14 q 103 131 144 63 q 63 293 63 200 m 192 292 q 217 191 192 236 q 284 119 242 146 q 378 93 326 93 q 474 119 432 93 q 540 191 517 146 q 564 292 564 236 q 540 392 564 347 q 474 465 517 438 q 378 492 432 492 q 283 464 325 492 q 216 391 240 436 q 192 292 192 346 z "},"ȫ":{"ha":757,"x_min":63,"x_max":694,"o":"m 63 293 q 103 449 63 379 q 217 558 144 518 q 381 599 289 599 q 546 558 475 599 q 656 449 617 518 q 694 293 694 379 q 656 137 694 207 q 545 26 617 67 q 379 -14 474 -14 q 216 24 288 -14 q 103 131 144 63 q 63 293 63 200 m 192 292 q 217 191 192 236 q 284 119 242 146 q 378 93 326 93 q 474 119 432 93 q 540 191 517 146 q 564 292 564 236 q 540 392 564 347 q 474 465 517 438 q 378 492 432 492 q 283 464 325 492 q 216 391 240 436 q 192 292 192 346 z "},"ȱ":{"ha":757,"x_min":63,"x_max":694,"o":"m 63 293 q 103 449 63 379 q 217 558 144 518 q 381 599 289 599 q 546 558 475 599 q 656 449 617 518 q 694 293 694 379 q 656 137 694 207 q 545 26 617 67 q 379 -14 474 -14 q 216 24 288 -14 q 103 131 144 63 q 63 293 63 200 m 192 292 q 217 191 192 236 q 284 119 242 146 q 378 93 326 93 q 474 119 432 93 q 540 191 517 146 q 564 292 564 236 q 540 392 564 347 q 474 465 517 438 q 378 492 432 492 q 283 464 325 492 q 216 391 240 436 q 192 292 192 346 z "},"ọ":{"ha":757,"x_min":63,"x_max":694,"o":"m 63 293 q 103 449 63 379 q 217 558 144 518 q 381 599 289 599 q 546 558 475 599 q 656 449 617 518 q 694 293 694 379 q 656 137 694 207 q 545 26 617 67 q 379 -14 474 -14 q 216 24 288 -14 q 103 131 144 63 q 63 293 63 200 m 192 292 q 217 191 192 236 q 284 119 242 146 q 378 93 326 93 q 474 119 432 93 q 540 191 517 146 q 564 292 564 236 q 540 392 564 347 q 474 465 517 438 q 378 492 432 492 q 283 464 325 492 q 216 391 240 436 q 192 292 192 346 m 311 -144 q 332 -100 311 -118 q 379 -82 353 -82 q 424 -100 403 -82 q 444 -144 444 -118 q 424 -190 444 -172 q 379 -207 403 -207 q 332 -189 353 -207 q 311 -144 311 -171 z "},"ò":{"ha":757,"x_min":63,"x_max":694,"o":"m 63 293 q 103 449 63 379 q 217 558 144 518 q 381 599 289 599 q 546 558 475 599 q 656 449 617 518 q 694 293 694 379 q 656 137 694 207 q 545 26 617 67 q 379 -14 474 -14 q 216 24 288 -14 q 103 131 144 63 q 63 293 63 200 m 192 292 q 217 191 192 236 q 284 119 242 146 q 378 93 326 93 q 474 119 432 93 q 540 191 517 146 q 564 292 564 236 q 540 392 564 347 q 474 465 517 438 q 378 492 432 492 q 283 464 325 492 q 216 391 240 436 q 192 292 192 346 z "},"ỏ":{"ha":757,"x_min":63,"x_max":694,"o":"m 63 293 q 103 449 63 379 q 217 558 144 518 q 381 599 289 599 q 546 558 475 599 q 656 449 617 518 q 694 293 694 379 q 656 137 694 207 q 545 26 617 67 q 379 -14 474 -14 q 216 24 288 -14 q 103 131 144 63 q 63 293 63 200 m 192 292 q 217 191 192 236 q 284 119 242 146 q 378 93 326 93 q 474 119 432 93 q 540 191 517 146 q 564 292 564 236 q 540 392 564 347 q 474 465 517 438 q 378 492 432 492 q 283 464 325 492 q 216 391 240 436 q 192 292 192 346 m 351 699 q 395 738 378 719 q 413 783 413 757 q 401 818 413 804 q 368 832 390 832 q 331 820 346 832 q 303 789 315 808 l 254 821 q 312 886 278 865 q 385 907 346 907 q 442 892 419 907 q 477 853 465 878 q 489 799 489 828 q 458 717 489 750 q 383 658 426 685 l 351 699 z "},"ơ":{"ha":757,"x_min":63,"x_max":713,"o":"m 63 293 q 103 449 63 379 q 217 558 144 518 q 381 599 289 599 q 546 558 475 599 q 656 449 617 518 q 694 293 694 379 q 656 137 694 207 q 545 26 617 67 q 379 -14 474 -14 q 216 24 288 -14 q 103 131 144 63 q 63 293 63 200 m 192 292 q 217 191 192 236 q 284 119 242 146 q 378 93 326 93 q 474 119 432 93 q 540 191 517 146 q 564 292 564 236 q 540 392 564 347 q 474 465 517 438 q 378 492 432 492 q 283 464 325 492 q 216 391 240 436 q 192 292 192 346 m 488 575 q 576 605 546 575 q 615 704 607 635 l 713 704 q 672 574 703 619 q 594 513 640 529 q 488 496 547 496 l 488 575 z "},"ớ":{"ha":757,"x_min":63,"x_max":713,"o":"m 63 293 q 103 449 63 379 q 217 558 144 518 q 381 599 289 599 q 546 558 475 599 q 656 449 617 518 q 694 293 694 379 q 656 137 694 207 q 545 26 617 67 q 379 -14 474 -14 q 216 24 288 -14 q 103 131 144 63 q 63 293 63 200 m 192 292 q 217 191 192 236 q 284 119 242 146 q 378 93 326 93 q 474 119 432 93 q 540 191 517 146 q 564 292 564 236 q 540 392 564 347 q 474 465 517 438 q 378 492 432 492 q 283 464 325 492 q 216 391 240 436 q 192 292 192 346 m 488 575 q 576 605 546 575 q 615 704 607 635 l 713 704 q 672 574 703 619 q 594 513 640 529 q 488 496 547 496 l 488 575 z "},"ợ":{"ha":757,"x_min":63,"x_max":713,"o":"m 63 293 q 103 449 63 379 q 217 558 144 518 q 381 599 289 599 q 546 558 475 599 q 656 449 617 518 q 694 293 694 379 q 656 137 694 207 q 545 26 617 67 q 379 -14 474 -14 q 216 24 288 -14 q 103 131 144 63 q 63 293 63 200 m 192 292 q 217 191 192 236 q 284 119 242 146 q 378 93 326 93 q 474 119 432 93 q 540 191 517 146 q 564 292 564 236 q 540 392 564 347 q 474 465 517 438 q 378 492 432 492 q 283 464 325 492 q 216 391 240 436 q 192 292 192 346 m 488 575 q 576 605 546 575 q 615 704 607 635 l 713 704 q 672 574 703 619 q 594 513 640 529 q 488 496 547 496 l 488 575 m 311 -144 q 332 -100 311 -118 q 379 -82 353 -82 q 424 -100 403 -82 q 444 -144 444 -118 q 424 -190 444 -172 q 379 -207 403 -207 q 332 -189 353 -207 q 311 -144 311 -171 z "},"ờ":{"ha":757,"x_min":63,"x_max":713,"o":"m 63 293 q 103 449 63 379 q 217 558 144 518 q 381 599 289 599 q 546 558 475 599 q 656 449 617 518 q 694 293 694 379 q 656 137 694 207 q 545 26 617 67 q 379 -14 474 -14 q 216 24 288 -14 q 103 131 144 63 q 63 293 63 200 m 192 292 q 217 191 192 236 q 284 119 242 146 q 378 93 326 93 q 474 119 432 93 q 540 191 517 146 q 564 292 564 236 q 540 392 564 347 q 474 465 517 438 q 378 492 432 492 q 283 464 325 492 q 216 391 240 436 q 192 292 192 346 m 488 575 q 576 605 546 575 q 615 704 607 635 l 713 704 q 672 574 703 619 q 594 513 640 529 q 488 496 547 496 l 488 575 z "},"ở":{"ha":757,"x_min":63,"x_max":713,"o":"m 63 293 q 103 449 63 379 q 217 558 144 518 q 381 599 289 599 q 546 558 475 599 q 656 449 617 518 q 694 293 694 379 q 656 137 694 207 q 545 26 617 67 q 379 -14 474 -14 q 216 24 288 -14 q 103 131 144 63 q 63 293 63 200 m 192 292 q 217 191 192 236 q 284 119 242 146 q 378 93 326 93 q 474 119 432 93 q 540 191 517 146 q 564 292 564 236 q 540 392 564 347 q 474 465 517 438 q 378 492 432 492 q 283 464 325 492 q 216 391 240 436 q 192 292 192 346 m 488 575 q 576 605 546 575 q 615 704 607 635 l 713 704 q 672 574 703 619 q 594 513 640 529 q 488 496 547 496 l 488 575 m 351 699 q 395 738 378 719 q 413 783 413 757 q 401 818 413 804 q 368 832 390 832 q 331 820 346 832 q 303 789 315 808 l 254 821 q 312 886 278 865 q 385 907 346 907 q 442 892 419 907 q 477 853 465 878 q 489 799 489 828 q 458 717 489 750 q 383 658 426 685 l 351 699 z "},"ỡ":{"ha":757,"x_min":63,"x_max":713,"o":"m 454 661 q 390 679 415 661 q 343 717 364 697 q 313 742 328 731 q 279 753 299 753 q 251 742 263 753 q 233 710 239 731 q 226 660 226 689 l 167 660 q 178 747 165 708 q 219 806 192 785 q 285 828 247 828 q 340 810 317 828 q 383 774 363 793 q 416 744 400 757 q 453 732 432 732 q 488 758 476 732 q 499 829 499 783 l 558 829 q 551 739 564 776 q 512 681 538 701 q 454 661 486 661 m 63 293 q 103 449 63 379 q 217 558 144 518 q 381 599 289 599 q 546 558 475 599 q 656 449 617 518 q 694 293 694 379 q 656 137 694 207 q 545 26 617 67 q 379 -14 474 -14 q 216 24 288 -14 q 103 131 144 63 q 63 293 63 200 m 192 292 q 217 191 192 236 q 284 119 242 146 q 378 93 326 93 q 474 119 432 93 q 540 191 517 146 q 564 292 564 236 q 540 392 564 347 q 474 465 517 438 q 378 492 432 492 q 283 464 325 492 q 216 391 240 436 q 192 292 192 346 m 488 575 q 576 605 544 575 q 615 704 607 635 l 713 704 q 672 574 703 619 q 594 513 640 529 q 488 496 547 496 l 488 575 z "},"ő":{"ha":757,"x_min":63,"x_max":694,"o":"m 63 293 q 103 449 63 379 q 217 558 144 518 q 381 599 289 599 q 546 558 475 599 q 656 449 617 518 q 694 293 694 379 q 656 137 694 207 q 545 26 617 67 q 379 -14 474 -14 q 216 24 288 -14 q 103 131 144 63 q 63 293 63 200 m 192 292 q 217 191 192 236 q 284 119 242 146 q 378 93 326 93 q 474 119 432 93 q 540 191 517 146 q 564 292 564 236 q 540 392 564 347 q 474 465 517 438 q 378 492 432 492 q 283 464 325 492 q 216 391 240 436 q 192 292 192 346 z "},"ȏ":{"ha":757,"x_min":63,"x_max":694,"o":"m 63 293 q 103 449 63 379 q 217 558 144 518 q 381 599 289 599 q 546 558 475 599 q 656 449 617 518 q 694 293 694 379 q 656 137 694 207 q 545 26 617 67 q 379 -14 474 -14 q 216 24 288 -14 q 103 131 144 63 q 63 293 63 200 m 192 292 q 217 191 192 236 q 284 119 242 146 q 378 93 326 93 q 474 119 432 93 q 540 191 517 146 q 564 292 564 236 q 540 392 564 347 q 474 465 517 438 q 378 492 432 492 q 283 464 325 492 q 216 391 240 436 q 192 292 192 346 m 385 900 q 487 872 443 900 q 558 788 531 843 q 594 656 585 733 l 507 656 q 486 736 501 701 q 446 791 471 771 q 385 811 421 811 q 324 791 349 811 q 285 736 299 771 q 265 656 271 701 l 176 656 q 213 790 186 735 q 283 872 240 844 q 385 900 326 900 z "},"ō":{"ha":757,"x_min":63,"x_max":694,"o":"m 63 293 q 103 449 63 379 q 217 558 144 518 q 381 599 289 599 q 546 558 475 599 q 656 449 617 518 q 694 293 694 379 q 656 137 694 207 q 545 26 617 67 q 379 -14 474 -14 q 216 24 288 -14 q 103 131 144 63 q 63 293 63 200 m 192 292 q 217 191 192 236 q 284 119 242 146 q 378 93 326 93 q 474 119 432 93 q 540 191 517 146 q 564 292 564 236 q 540 392 564 347 q 474 465 517 438 q 378 492 432 492 q 283 464 325 492 q 216 391 240 436 q 192 292 192 346 z "},"ǫ":{"ha":763,"x_min":65,"x_max":697,"o":"m 486 -299 q 409 -280 444 -299 q 351 -226 374 -261 q 329 -140 329 -192 q 364 -39 329 -83 q 454 33 399 6 l 508 35 q 452 1 486 15 q 382 -14 418 -14 q 219 24 290 -14 q 106 131 147 63 q 65 293 65 200 q 106 448 65 379 q 219 558 147 517 q 383 599 292 599 q 549 558 478 599 q 658 449 619 518 q 697 293 697 379 q 659 144 697 213 q 556 29 621 76 q 472 -45 506 -10 q 438 -131 438 -81 q 458 -186 438 -167 q 504 -206 479 -206 q 556 -188 532 -206 q 599 -140 579 -171 l 649 -206 q 578 -272 624 -246 q 486 -299 533 -299 m 381 93 q 477 119 435 93 q 543 191 519 146 q 567 292 567 236 q 543 392 567 347 q 477 465 519 438 q 381 492 435 492 q 285 464 328 492 q 219 391 243 436 q 194 292 194 346 q 219 191 194 236 q 286 119 244 146 q 381 93 328 93 z "},"ø":{"ha":724,"x_min":63,"x_max":694,"o":"m 658 561 l 142 -32 l 79 26 l 592 617 l 658 561 m 63 293 q 103 449 63 379 q 217 558 144 518 q 381 599 289 599 q 546 558 475 599 q 656 449 617 518 q 694 293 694 379 q 656 137 694 207 q 545 26 617 67 q 379 -14 474 -14 q 216 24 288 -14 q 103 131 144 63 q 63 293 63 200 m 192 292 q 217 191 192 236 q 284 119 242 146 q 378 93 326 93 q 474 119 432 93 q 540 191 517 146 q 564 292 564 236 q 540 392 564 347 q 474 465 517 438 q 378 492 432 492 q 283 464 325 492 q 216 391 240 436 q 192 292 192 346 z "},"ǿ":{"ha":724,"x_min":63,"x_max":694,"o":"m 658 561 l 142 -32 l 79 26 l 592 617 l 658 561 m 63 293 q 103 449 63 379 q 217 558 144 518 q 381 599 289 599 q 546 558 475 599 q 656 449 617 518 q 694 293 694 379 q 656 137 694 207 q 545 26 617 67 q 379 -14 474 -14 q 216 24 288 -14 q 103 131 144 63 q 63 293 63 200 m 192 292 q 217 191 192 236 q 284 119 242 146 q 378 93 326 93 q 474 119 432 93 q 540 191 517 146 q 564 292 564 236 q 540 392 564 347 q 474 465 517 438 q 378 492 432 492 q 283 464 325 492 q 216 391 240 436 q 192 292 192 346 z "},"õ":{"ha":757,"x_min":63,"x_max":694,"o":"m 63 293 q 103 449 63 379 q 217 558 144 518 q 381 599 289 599 q 546 558 475 599 q 656 449 617 518 q 694 293 694 379 q 656 137 694 207 q 545 26 617 67 q 379 -14 474 -14 q 216 24 288 -14 q 103 131 144 63 q 63 293 63 200 m 192 292 q 217 191 192 236 q 284 119 242 146 q 378 93 326 93 q 474 119 432 93 q 540 191 517 146 q 564 292 564 236 q 540 392 564 347 q 474 465 517 438 q 378 492 432 492 q 283 464 325 492 q 216 391 240 436 q 192 292 192 346 m 486 656 q 413 676 442 656 q 360 718 385 696 q 326 747 343 733 q 289 760 310 760 q 259 747 272 760 q 239 710 246 733 q 232 654 232 686 l 163 654 q 174 752 158 708 q 222 821 190 796 q 296 846 253 846 q 358 826 332 846 q 407 785 385 806 q 444 752 426 767 q 483 738 463 738 q 523 767 511 738 q 535 846 535 796 l 604 846 q 595 744 610 788 q 551 678 581 701 q 486 656 522 656 z "},"ȭ":{"ha":757,"x_min":63,"x_max":694,"o":"m 63 293 q 103 449 63 379 q 217 558 144 518 q 381 599 289 599 q 546 558 475 599 q 656 449 617 518 q 694 293 694 379 q 656 137 694 207 q 545 26 617 67 q 379 -14 474 -14 q 216 24 288 -14 q 103 131 144 63 q 63 293 63 200 m 192 292 q 217 191 192 236 q 284 119 242 146 q 378 93 326 93 q 474 119 432 93 q 540 191 517 146 q 564 292 564 236 q 540 392 564 347 q 474 465 517 438 q 378 492 432 492 q 283 464 325 492 q 216 391 240 436 q 192 292 192 346 m 486 656 q 413 676 442 656 q 360 718 385 696 q 326 747 343 733 q 289 760 310 760 q 259 747 272 760 q 239 710 246 733 q 232 654 232 686 l 163 654 q 174 752 158 708 q 222 821 190 796 q 296 846 253 846 q 358 826 332 846 q 407 785 385 806 q 444 752 426 767 q 483 738 463 738 q 523 767 511 738 q 535 846 535 796 l 604 846 q 595 744 610 788 q 551 678 581 701 q 486 656 522 656 z "},"œ":{"ha":1110,"x_min":63,"x_max":1060,"o":"m 579 53 q 486 4 540 22 q 378 -14 432 -14 q 213 24 283 -14 q 102 128 142 61 q 63 288 63 196 q 105 447 63 379 q 216 552 147 515 q 364 589 285 589 q 488 569 433 589 q 582 517 543 550 l 518 433 q 457 468 493 453 q 375 483 421 483 q 283 458 325 483 q 216 388 240 432 q 192 288 192 343 q 217 190 192 235 q 286 119 242 144 q 388 93 331 93 q 456 104 425 93 q 513 135 488 115 l 579 53 m 767 -14 q 597 26 668 -14 q 488 134 526 65 q 450 292 450 203 q 493 446 450 376 q 608 557 536 515 q 769 599 681 599 q 958 532 883 599 q 1060 349 1033 465 l 586 182 l 556 258 l 944 400 l 917 382 q 861 462 900 428 q 760 496 822 496 q 665 470 707 496 q 600 400 624 444 q 576 299 576 356 q 601 194 576 239 q 670 123 626 149 q 769 97 714 97 q 842 111 807 97 q 908 147 878 125 l 968 51 q 872 4 925 22 q 767 -14 818 -14 z "},"p":{"ha":824,"x_min":113,"x_max":761,"o":"m 451 -14 q 326 17 386 -14 q 232 99 265 47 l 240 139 l 240 -276 l 113 -276 l 113 583 l 224 583 l 242 436 l 228 476 q 333 564 269 529 q 476 599 397 599 q 622 560 557 599 q 724 451 686 521 q 761 289 761 382 q 721 128 761 196 q 610 23 681 60 q 451 -14 540 -14 m 426 89 q 528 115 482 89 q 603 185 575 140 q 631 288 631 231 q 604 391 631 346 q 534 463 578 436 q 436 489 490 489 q 346 469 386 489 q 279 416 306 450 q 242 338 253 382 l 242 242 q 275 163 249 197 q 341 108 301 128 q 426 89 381 89 z "},"þ":{"ha":811,"x_min":110,"x_max":758,"o":"m 449 -14 q 363 1 406 -14 q 287 40 321 15 q 233 100 253 65 l 238 149 l 238 -276 l 110 -276 l 110 1075 l 239 1075 l 239 439 l 224 469 q 287 535 249 507 q 373 581 325 564 q 474 599 421 599 q 619 560 556 599 q 721 451 683 521 q 758 289 758 382 q 718 128 758 196 q 608 23 678 60 q 449 -14 538 -14 m 425 90 q 526 116 481 90 q 600 186 572 142 q 628 288 628 231 q 601 390 628 344 q 530 463 574 436 q 433 489 486 489 q 343 469 383 489 q 276 416 303 450 q 239 338 250 382 l 239 238 q 274 161 247 194 q 339 109 300 128 q 425 90 378 90 z "},"q":{"ha":824,"x_min":63,"x_max":711,"o":"m 343 -14 q 203 24 267 -14 q 101 128 139 61 q 63 288 63 196 q 103 451 63 382 q 213 560 144 521 q 364 599 282 599 q 501 565 442 599 q 597 476 561 531 l 582 436 l 582 583 l 711 583 l 711 -276 l 583 -276 l 583 147 l 589 93 q 490 16 556 46 q 343 -14 425 -14 m 386 89 q 478 108 436 89 q 547 162 519 128 q 582 240 574 196 l 582 338 q 544 416 571 382 q 478 469 518 450 q 386 489 438 489 q 290 463 335 489 q 219 390 246 436 q 193 288 193 344 q 219 186 193 231 q 290 115 246 142 q 386 89 335 89 z "},"r":{"ha":522,"x_min":113,"x_max":468,"o":"m 228 575 l 240 408 l 233 431 q 298 520 256 483 q 387 577 340 557 q 468 597 433 597 l 461 469 q 347 444 396 474 q 269 367 297 415 q 240 263 240 318 l 240 0 l 113 0 l 113 575 l 228 575 z "},"ŕ":{"ha":522,"x_min":113,"x_max":468,"o":"m 228 575 l 240 408 l 233 431 q 298 520 256 483 q 387 577 340 557 q 468 597 433 597 l 461 469 q 347 444 396 474 q 269 367 297 415 q 240 263 240 318 l 240 0 l 113 0 l 113 575 l 228 575 z "},"ř":{"ha":522,"x_min":29,"x_max":492,"o":"m 228 575 l 240 408 l 233 431 q 298 520 256 483 q 387 577 340 557 q 468 597 433 597 l 461 469 q 347 444 396 474 q 269 367 297 415 q 240 263 240 318 l 240 0 l 113 0 l 113 575 l 228 575 z "},"ŗ":{"ha":522,"x_min":82,"x_max":468,"o":"m 228 575 l 240 408 l 233 431 q 298 520 256 483 q 387 577 340 557 q 468 597 433 597 l 461 469 q 347 444 396 474 q 269 367 297 415 q 240 263 240 318 l 240 0 l 113 0 l 113 575 l 228 575 m 149 -281 l 82 -235 q 131 -154 117 -207 q 136 -50 144 -101 l 251 -50 q 247 -132 257 -87 q 213 -216 238 -176 q 149 -281 189 -256 z "},"ȑ":{"ha":522,"x_min":-39,"x_max":468,"o":"m 228 575 l 240 408 l 233 431 q 298 520 256 483 q 387 577 340 557 q 468 597 433 597 l 461 469 q 347 444 396 474 q 269 367 297 415 q 240 263 240 318 l 240 0 l 113 0 l 113 575 l 228 575 z "},"ȓ":{"ha":522,"x_min":49,"x_max":468,"o":"m 228 575 l 240 408 l 233 431 q 298 520 256 483 q 387 577 340 557 q 468 597 433 597 l 461 469 q 347 444 396 474 q 269 367 297 415 q 240 263 240 318 l 240 0 l 113 0 l 113 575 l 228 575 m 257 882 q 359 853 315 882 q 430 770 403 825 q 467 638 457 715 l 379 638 q 358 718 374 683 q 318 773 343 753 q 257 793 293 793 q 196 773 221 793 q 157 718 171 753 q 138 638 143 683 l 49 638 q 85 772 58 717 q 156 854 113 826 q 257 882 199 882 z "},"s":{"ha":565,"x_min":60,"x_max":497,"o":"m 274 -11 q 155 10 213 -11 q 60 75 97 32 l 114 150 q 188 98 150 115 q 264 81 226 81 q 315 88 292 81 q 353 110 339 94 q 368 154 368 126 q 348 203 368 185 q 297 232 328 221 q 231 253 265 243 q 122 318 160 276 q 85 419 85 360 q 108 505 85 465 q 176 569 131 544 q 288 594 221 594 q 394 580 347 594 q 483 532 442 565 l 432 451 q 372 490 407 478 q 310 504 338 503 q 265 497 286 506 q 229 474 243 489 q 215 438 215 458 q 235 390 215 408 q 285 362 254 372 q 347 340 317 351 q 424 307 390 328 q 477 256 457 286 q 497 179 497 225 q 473 84 497 128 q 399 15 449 40 q 274 -11 350 -11 z "},"ś":{"ha":565,"x_min":60,"x_max":497,"o":"m 274 -11 q 155 10 213 -11 q 60 75 97 32 l 114 150 q 188 98 150 115 q 264 81 226 81 q 315 88 292 81 q 353 110 339 94 q 368 154 368 126 q 348 203 368 185 q 297 232 328 221 q 231 253 265 243 q 122 318 160 276 q 85 419 85 360 q 108 505 85 465 q 176 569 131 544 q 288 594 221 594 q 394 580 347 594 q 483 532 442 565 l 432 451 q 372 490 407 478 q 310 504 338 503 q 265 497 286 506 q 229 474 243 489 q 215 438 215 458 q 235 390 215 408 q 285 362 254 372 q 347 340 317 351 q 424 307 390 328 q 477 256 457 286 q 497 179 497 225 q 473 84 497 128 q 399 15 449 40 q 274 -11 350 -11 z "},"š":{"ha":565,"x_min":60,"x_max":525,"o":"m 274 -11 q 155 10 213 -11 q 60 75 97 32 l 114 150 q 188 98 150 115 q 264 81 226 81 q 315 88 292 81 q 353 110 339 94 q 368 154 368 126 q 348 203 368 185 q 297 232 328 221 q 231 253 265 243 q 122 318 160 276 q 85 419 85 360 q 108 505 85 465 q 176 569 131 544 q 288 594 221 594 q 394 580 347 594 q 483 532 442 565 l 432 451 q 372 490 407 478 q 310 504 338 503 q 265 497 286 506 q 229 474 243 489 q 215 438 215 458 q 235 390 215 408 q 285 362 254 372 q 347 340 317 351 q 424 307 390 328 q 477 256 457 286 q 497 179 497 225 q 473 84 497 128 q 399 15 449 40 q 274 -11 350 -11 z "},"ş":{"ha":565,"x_min":60,"x_max":497,"o":"m 274 -11 q 155 10 213 -11 q 60 75 97 32 l 114 150 q 188 98 150 115 q 264 81 226 81 q 315 88 292 81 q 353 110 339 94 q 368 154 368 126 q 348 203 368 185 q 297 232 328 221 q 231 253 265 243 q 122 318 160 276 q 85 419 85 360 q 108 505 85 465 q 176 569 131 544 q 288 594 221 594 q 394 580 347 594 q 483 532 442 565 l 432 451 q 372 490 407 478 q 310 504 338 503 q 265 497 286 506 q 229 474 243 489 q 215 438 215 458 q 235 390 215 408 q 285 362 254 372 q 347 340 317 351 q 424 307 390 328 q 477 256 457 286 q 497 179 497 225 q 473 84 497 128 q 399 15 449 40 q 274 -11 350 -11 z "},"ŝ":{"ha":565,"x_min":53,"x_max":515,"o":"m 274 -11 q 155 10 213 -11 q 60 75 97 32 l 114 150 q 188 98 150 115 q 264 81 226 81 q 315 88 292 81 q 353 110 339 94 q 368 154 368 126 q 348 203 368 185 q 297 232 328 221 q 231 253 265 243 q 122 318 160 276 q 85 419 85 360 q 108 505 85 465 q 176 569 131 544 q 288 594 221 594 q 394 580 347 594 q 483 532 442 565 l 432 451 q 372 490 407 478 q 310 504 338 503 q 265 497 286 506 q 229 474 243 489 q 215 438 215 458 q 235 390 215 408 q 285 362 254 372 q 347 340 317 351 q 424 307 390 328 q 477 256 457 286 q 497 179 497 225 q 473 84 497 128 q 399 15 449 40 q 274 -11 350 -11 z "},"ș":{"ha":565,"x_min":60,"x_max":497,"o":"m 274 -11 q 155 10 213 -11 q 60 75 97 32 l 114 150 q 188 98 150 115 q 264 81 226 81 q 315 88 292 81 q 353 110 339 94 q 368 154 368 126 q 348 203 368 185 q 297 232 328 221 q 231 253 265 243 q 122 318 160 276 q 85 419 85 360 q 108 505 85 465 q 176 569 131 544 q 288 594 221 594 q 394 580 347 594 q 483 532 442 565 l 432 451 q 372 490 407 478 q 310 504 338 503 q 265 497 286 506 q 229 474 243 489 q 215 438 215 458 q 235 390 215 408 q 285 362 254 372 q 347 340 317 351 q 424 307 390 328 q 477 256 457 286 q 497 179 497 225 q 473 84 497 128 q 399 15 449 40 q 274 -11 350 -11 m 233 -289 l 167 -243 q 215 -162 201 -215 q 221 -58 229 -110 l 336 -58 q 332 -140 342 -96 q 298 -224 322 -185 q 233 -289 274 -264 z "},"ß":{"ha":835,"x_min":61,"x_max":767,"o":"m 151 628 q 189 787 151 721 q 291 888 226 853 q 436 924 356 924 q 581 897 522 924 q 670 825 640 869 q 700 728 700 781 q 674 620 700 668 q 596 547 647 572 q 685 494 646 529 q 745 404 724 458 q 767 272 767 350 q 731 118 767 182 q 634 21 696 54 q 492 -12 572 -12 q 394 3 435 -12 q 333 36 354 19 l 385 115 q 430 92 407 99 q 478 85 453 85 q 565 111 529 85 q 619 182 600 138 q 638 279 638 226 q 616 388 638 342 q 556 458 594 433 q 464 481 517 482 l 457 481 l 456 594 q 538 623 506 594 q 569 699 569 651 q 554 760 569 733 q 510 803 539 788 q 438 818 481 818 q 317 757 353 818 q 281 588 281 696 l 281 0 l 151 0 l 151 476 l 61 476 l 61 583 l 151 583 l 151 628 z "},"t":{"ha":499,"x_min":63,"x_max":456,"o":"m 168 828 l 297 828 l 297 572 l 456 572 l 456 471 l 297 471 l 297 0 l 168 0 l 168 471 l 63 471 l 63 572 l 168 572 l 168 828 z "},"ŧ":{"ha":499,"x_min":46,"x_max":456,"o":"m 168 828 l 297 828 l 297 572 l 456 572 l 456 471 l 297 471 l 297 0 l 168 0 l 168 471 l 63 471 l 63 572 l 168 572 l 168 828 m 46 328 l 431 328 l 431 207 l 46 207 l 46 328 z "},"ť":{"ha":499,"x_min":63,"x_max":525,"o":"m 168 828 l 297 828 l 297 572 l 456 572 l 456 471 l 297 471 l 297 0 l 168 0 l 168 471 l 63 471 l 63 572 l 168 572 l 168 828 m 417 676 l 350 722 q 399 803 385 750 q 404 907 413 856 l 519 907 q 515 825 525 869 q 481 741 506 781 q 417 676 457 701 z "},"ţ":{"ha":499,"x_min":63,"x_max":456,"o":"m 168 828 l 297 828 l 297 572 l 456 572 l 456 471 l 297 471 l 297 0 l 168 0 l 168 471 l 63 471 l 63 572 l 168 572 l 168 828 z "},"ț":{"ha":499,"x_min":63,"x_max":456,"o":"m 168 828 l 297 828 l 297 572 l 456 572 l 456 471 l 297 471 l 297 0 l 168 0 l 168 471 l 63 471 l 63 572 l 168 572 l 168 828 m 181 -281 l 114 -235 q 163 -154 149 -207 q 168 -50 176 -101 l 283 -50 q 279 -132 289 -87 q 245 -216 269 -176 q 181 -281 221 -256 z "},"u":{"ha":758,"x_min":113,"x_max":647,"o":"m 294 -22 q 166 26 217 -22 q 113 150 115 74 l 113 575 l 242 575 l 242 196 q 269 119 244 149 q 346 89 293 90 q 433 117 394 89 q 494 195 471 146 q 518 307 518 244 l 518 575 l 647 575 l 647 0 l 529 0 l 518 142 l 525 117 q 474 45 508 76 q 394 -4 440 14 q 294 -22 349 -22 z "},"ú":{"ha":758,"x_min":113,"x_max":647,"o":"m 294 -22 q 166 26 217 -22 q 113 150 115 74 l 113 575 l 242 575 l 242 196 q 269 119 244 149 q 346 89 293 90 q 433 117 394 89 q 494 195 471 146 q 518 307 518 244 l 518 575 l 647 575 l 647 0 l 529 0 l 518 142 l 525 117 q 474 45 508 76 q 394 -4 440 14 q 294 -22 349 -22 z "},"ŭ":{"ha":758,"x_min":113,"x_max":647,"o":"m 294 -22 q 166 26 217 -22 q 113 150 115 74 l 113 575 l 242 575 l 242 196 q 269 119 244 149 q 346 89 293 90 q 433 117 394 89 q 494 195 471 146 q 518 307 518 244 l 518 575 l 647 575 l 647 0 l 529 0 l 518 142 l 525 117 q 474 45 508 76 q 394 -4 440 14 q 294 -22 349 -22 z "},"û":{"ha":758,"x_min":113,"x_max":647,"o":"m 294 -22 q 166 26 217 -22 q 113 150 115 74 l 113 575 l 242 575 l 242 196 q 269 119 244 149 q 346 89 293 90 q 433 117 394 89 q 494 195 471 146 q 518 307 518 244 l 518 575 l 647 575 l 647 0 l 529 0 l 518 142 l 525 117 q 474 45 508 76 q 394 -4 440 14 q 294 -22 349 -22 z "},"ȕ":{"ha":758,"x_min":92,"x_max":647,"o":"m 294 -22 q 166 26 217 -22 q 113 150 115 74 l 113 575 l 242 575 l 242 196 q 269 119 244 149 q 346 89 293 90 q 433 117 394 89 q 494 195 471 146 q 518 307 518 244 l 518 575 l 647 575 l 647 0 l 529 0 l 518 142 l 525 117 q 474 45 508 76 q 394 -4 440 14 q 294 -22 349 -22 z "},"ü":{"ha":758,"x_min":113,"x_max":647,"o":"m 294 -22 q 166 26 217 -22 q 113 150 115 74 l 113 575 l 242 575 l 242 196 q 269 119 244 149 q 346 89 293 90 q 433 117 394 89 q 494 195 471 146 q 518 307 518 244 l 518 575 l 647 575 l 647 0 l 529 0 l 518 142 l 525 117 q 474 45 508 76 q 394 -4 440 14 q 294 -22 349 -22 z "},"ụ":{"ha":758,"x_min":113,"x_max":647,"o":"m 294 -22 q 166 26 217 -22 q 113 150 115 74 l 113 575 l 242 575 l 242 196 q 269 119 244 149 q 346 89 293 90 q 433 117 394 89 q 494 195 471 146 q 518 307 518 244 l 518 575 l 647 575 l 647 0 l 529 0 l 518 142 l 525 117 q 474 45 508 76 q 394 -4 440 14 q 294 -22 349 -22 m 311 -144 q 332 -100 311 -118 q 379 -82 353 -82 q 424 -100 403 -82 q 444 -144 444 -118 q 424 -190 444 -172 q 379 -207 403 -207 q 332 -189 353 -207 q 311 -144 311 -171 z "},"ù":{"ha":758,"x_min":113,"x_max":647,"o":"m 294 -22 q 166 26 217 -22 q 113 150 115 74 l 113 575 l 242 575 l 242 196 q 269 119 244 149 q 346 89 293 90 q 433 117 394 89 q 494 195 471 146 q 518 307 518 244 l 518 575 l 647 575 l 647 0 l 529 0 l 518 142 l 525 117 q 474 45 508 76 q 394 -4 440 14 q 294 -22 349 -22 z "},"ủ":{"ha":758,"x_min":113,"x_max":647,"o":"m 294 -22 q 166 26 217 -22 q 113 150 115 74 l 113 575 l 242 575 l 242 196 q 269 119 244 149 q 346 89 293 90 q 433 117 394 89 q 494 195 471 146 q 518 307 518 244 l 518 575 l 647 575 l 647 0 l 529 0 l 518 142 l 525 117 q 474 45 508 76 q 394 -4 440 14 q 294 -22 349 -22 m 353 699 q 397 738 379 719 q 414 783 414 757 q 403 818 414 804 q 369 832 392 832 q 332 820 347 832 q 304 789 317 808 l 256 821 q 313 886 279 865 q 386 907 347 907 q 444 892 421 907 q 478 853 467 878 q 490 799 490 828 q 459 717 490 750 q 385 658 428 685 l 353 699 z "},"ư":{"ha":775,"x_min":113,"x_max":797,"o":"m 294 -22 q 166 26 217 -22 q 113 150 115 74 l 113 575 l 242 575 l 242 196 q 269 119 244 149 q 346 89 293 90 q 433 117 394 89 q 494 195 471 146 q 518 307 518 244 l 518 575 l 647 575 l 647 0 l 529 0 l 518 142 l 525 117 q 474 45 508 76 q 394 -4 440 14 q 294 -22 349 -22 m 572 575 q 661 605 631 575 q 700 704 692 635 l 797 704 q 756 574 788 619 q 678 513 725 529 q 572 496 632 496 l 572 575 z "},"ứ":{"ha":775,"x_min":113,"x_max":797,"o":"m 294 -22 q 166 26 217 -22 q 113 150 115 74 l 113 575 l 242 575 l 242 196 q 269 119 244 149 q 346 89 293 90 q 433 117 394 89 q 494 195 471 146 q 518 307 518 244 l 518 575 l 647 575 l 647 0 l 529 0 l 518 142 l 525 117 q 474 45 508 76 q 394 -4 440 14 q 294 -22 349 -22 m 572 575 q 661 605 631 575 q 700 704 692 635 l 797 704 q 756 574 788 619 q 678 513 725 529 q 572 496 632 496 l 572 575 z "},"ự":{"ha":775,"x_min":113,"x_max":797,"o":"m 294 -22 q 166 26 217 -22 q 113 150 115 74 l 113 575 l 242 575 l 242 196 q 269 119 244 149 q 346 89 293 90 q 433 117 394 89 q 494 195 471 146 q 518 307 518 244 l 518 575 l 647 575 l 647 0 l 529 0 l 518 142 l 525 117 q 474 45 508 76 q 394 -4 440 14 q 294 -22 349 -22 m 572 575 q 661 605 631 575 q 700 704 692 635 l 797 704 q 756 574 788 619 q 678 513 725 529 q 572 496 632 496 l 572 575 m 311 -144 q 332 -100 311 -118 q 379 -82 353 -82 q 424 -100 403 -82 q 444 -144 444 -118 q 424 -190 444 -172 q 379 -207 403 -207 q 332 -189 353 -207 q 311 -144 311 -171 z "},"ừ":{"ha":775,"x_min":113,"x_max":797,"o":"m 294 -22 q 166 26 217 -22 q 113 150 115 74 l 113 575 l 242 575 l 242 196 q 269 119 244 149 q 346 89 293 90 q 433 117 394 89 q 494 195 471 146 q 518 307 518 244 l 518 575 l 647 575 l 647 0 l 529 0 l 518 142 l 525 117 q 474 45 508 76 q 394 -4 440 14 q 294 -22 349 -22 m 572 575 q 661 605 631 575 q 700 704 692 635 l 797 704 q 756 574 788 619 q 678 513 725 529 q 572 496 632 496 l 572 575 z "},"ử":{"ha":775,"x_min":113,"x_max":797,"o":"m 294 -22 q 166 26 217 -22 q 113 150 115 74 l 113 575 l 242 575 l 242 196 q 269 119 244 149 q 346 89 293 90 q 433 117 394 89 q 494 195 471 146 q 518 307 518 244 l 518 575 l 647 575 l 647 0 l 529 0 l 518 142 l 525 117 q 474 45 508 76 q 394 -4 440 14 q 294 -22 349 -22 m 572 575 q 661 605 631 575 q 700 704 692 635 l 797 704 q 756 574 788 619 q 678 513 725 529 q 572 496 632 496 l 572 575 m 353 699 q 397 738 379 719 q 414 783 414 757 q 403 818 414 804 q 369 832 392 832 q 332 820 347 832 q 304 789 317 808 l 256 821 q 313 886 279 865 q 386 907 347 907 q 444 892 421 907 q 478 853 467 878 q 490 799 490 828 q 459 717 490 750 q 385 658 428 685 l 353 699 z "},"ữ":{"ha":775,"x_min":113,"x_max":797,"o":"m 294 -22 q 166 26 217 -22 q 113 150 115 74 l 113 575 l 242 575 l 242 196 q 269 119 244 149 q 346 89 293 90 q 433 117 394 89 q 494 195 471 146 q 518 307 518 244 l 518 575 l 647 575 l 647 0 l 529 0 l 518 142 l 525 117 q 474 45 508 76 q 394 -4 440 14 q 294 -22 349 -22 m 572 575 q 661 605 631 575 q 700 704 692 635 l 797 704 q 756 574 788 619 q 678 513 725 529 q 572 496 632 496 l 572 575 m 488 656 q 415 676 443 656 q 361 718 386 696 q 328 747 344 733 q 290 760 311 760 q 260 747 274 760 q 240 710 247 733 q 233 654 233 686 l 164 654 q 176 752 160 708 q 223 821 192 796 q 297 846 254 846 q 360 826 333 846 q 408 785 386 806 q 446 752 428 767 q 485 738 464 738 q 524 767 513 738 q 536 846 536 796 l 606 846 q 597 744 611 788 q 553 678 582 701 q 488 656 524 656 z "},"ű":{"ha":758,"x_min":113,"x_max":682,"o":"m 294 -22 q 166 26 217 -22 q 113 150 115 74 l 113 575 l 242 575 l 242 196 q 269 119 244 149 q 346 89 293 90 q 433 117 394 89 q 494 195 471 146 q 518 307 518 244 l 518 575 l 647 575 l 647 0 l 529 0 l 518 142 l 525 117 q 474 45 508 76 q 394 -4 440 14 q 294 -22 349 -22 z "},"ȗ":{"ha":758,"x_min":113,"x_max":647,"o":"m 294 -22 q 166 26 217 -22 q 113 150 115 74 l 113 575 l 242 575 l 242 196 q 269 119 244 149 q 346 89 293 90 q 433 117 394 89 q 494 195 471 146 q 518 307 518 244 l 518 575 l 647 575 l 647 0 l 529 0 l 518 142 l 525 117 q 474 45 508 76 q 394 -4 440 14 q 294 -22 349 -22 m 386 900 q 488 872 444 900 q 559 788 532 843 q 596 656 586 733 l 508 656 q 488 736 503 701 q 447 791 472 771 q 386 811 422 811 q 325 791 350 811 q 286 736 300 771 q 267 656 272 701 l 178 656 q 215 790 188 735 q 285 872 242 844 q 386 900 328 900 z "},"ū":{"ha":758,"x_min":113,"x_max":647,"o":"m 294 -22 q 166 26 217 -22 q 113 150 115 74 l 113 575 l 242 575 l 242 196 q 269 119 244 149 q 346 89 293 90 q 433 117 394 89 q 494 195 471 146 q 518 307 518 244 l 518 575 l 647 575 l 647 0 l 529 0 l 518 142 l 525 117 q 474 45 508 76 q 394 -4 440 14 q 294 -22 349 -22 z "},"ų":{"ha":764,"x_min":113,"x_max":732,"o":"m 576 -299 q 460 -257 508 -299 q 413 -147 413 -215 q 446 -56 413 -100 q 533 14 479 -11 l 604 22 l 650 0 q 556 -62 592 -29 q 521 -137 521 -94 q 542 -190 521 -174 q 589 -206 563 -206 q 640 -188 617 -206 q 682 -140 663 -171 l 732 -206 q 664 -272 708 -246 q 576 -299 619 -299 m 294 -22 q 166 26 217 -22 q 113 150 115 74 l 113 575 l 242 575 l 242 196 q 269 119 244 149 q 346 89 293 90 q 433 117 394 89 q 494 195 471 146 q 518 307 518 244 l 518 575 l 647 575 l 647 0 l 529 0 l 518 142 l 525 117 q 474 45 508 76 q 394 -4 440 14 q 294 -22 349 -22 z "},"ů":{"ha":758,"x_min":113,"x_max":647,"o":"m 294 -22 q 166 26 217 -22 q 113 150 115 74 l 113 575 l 242 575 l 242 196 q 269 119 244 149 q 346 89 293 90 q 433 117 394 89 q 494 195 471 146 q 518 307 518 244 l 518 575 l 647 575 l 647 0 l 529 0 l 518 142 l 525 117 q 474 45 508 76 q 394 -4 440 14 q 294 -22 349 -22 z "},"ũ":{"ha":758,"x_min":113,"x_max":647,"o":"m 294 -22 q 166 26 217 -22 q 113 150 115 74 l 113 575 l 242 575 l 242 196 q 269 119 244 149 q 346 89 293 90 q 433 117 394 89 q 494 195 471 146 q 518 307 518 244 l 518 575 l 647 575 l 647 0 l 529 0 l 518 142 l 525 117 q 474 45 508 76 q 394 -4 440 14 q 294 -22 349 -22 m 488 656 q 415 676 443 656 q 361 718 386 696 q 328 747 344 733 q 290 760 311 760 q 260 747 274 760 q 240 710 247 733 q 233 654 233 686 l 164 654 q 176 752 160 708 q 223 821 192 796 q 297 846 254 846 q 360 826 333 846 q 408 785 386 806 q 446 752 428 767 q 485 738 464 738 q 524 767 513 738 q 536 846 536 796 l 606 846 q 597 744 611 788 q 553 678 582 701 q 488 656 524 656 z "},"v":{"ha":686,"x_min":26,"x_max":660,"o":"m 346 -17 l 26 575 l 179 575 l 396 118 l 317 121 l 515 575 l 660 575 l 353 -17 l 346 -17 z "},"w":{"ha":936,"x_min":26,"x_max":910,"o":"m 481 575 l 650 188 l 625 185 l 783 575 l 910 575 l 646 -35 l 461 360 l 293 -35 l 26 575 l 153 575 l 332 169 l 288 178 l 415 475 l 369 575 l 481 575 z "},"ẃ":{"ha":936,"x_min":26,"x_max":910,"o":"m 481 575 l 650 188 l 625 185 l 783 575 l 910 575 l 646 -35 l 461 360 l 293 -35 l 26 575 l 153 575 l 332 169 l 288 178 l 415 475 l 369 575 l 481 575 z "},"ŵ":{"ha":936,"x_min":26,"x_max":910,"o":"m 481 575 l 650 188 l 625 185 l 783 575 l 910 575 l 646 -35 l 461 360 l 293 -35 l 26 575 l 153 575 l 332 169 l 288 178 l 415 475 l 369 575 l 481 575 z "},"ẅ":{"ha":936,"x_min":26,"x_max":910,"o":"m 481 575 l 650 188 l 625 185 l 783 575 l 910 575 l 646 -35 l 461 360 l 293 -35 l 26 575 l 153 575 l 332 169 l 288 178 l 415 475 l 369 575 l 481 575 z "},"ẁ":{"ha":936,"x_min":26,"x_max":910,"o":"m 481 575 l 650 188 l 625 185 l 783 575 l 910 575 l 646 -35 l 461 360 l 293 -35 l 26 575 l 153 575 l 332 169 l 288 178 l 415 475 l 369 575 l 481 575 z "},"x":{"ha":646,"x_min":26,"x_max":619,"o":"m 329 361 l 467 575 l 597 575 l 376 267 l 329 361 m 619 0 l 464 0 l 26 575 l 186 575 l 619 0 m 315 214 l 164 0 l 33 0 l 253 300 l 315 214 z "},"y":{"ha":686,"x_min":26,"x_max":660,"o":"m 161 -276 l 540 575 l 660 575 l 289 -276 l 161 -276 m 303 -4 l 26 575 l 172 575 l 404 61 l 303 -4 z "},"ý":{"ha":686,"x_min":26,"x_max":660,"o":"m 161 -276 l 540 575 l 660 575 l 289 -276 l 161 -276 m 303 -4 l 26 575 l 172 575 l 404 61 l 303 -4 z "},"ŷ":{"ha":686,"x_min":26,"x_max":660,"o":"m 161 -276 l 540 575 l 660 575 l 289 -276 l 161 -276 m 303 -4 l 26 575 l 172 575 l 404 61 l 303 -4 z "},"ÿ":{"ha":686,"x_min":26,"x_max":660,"o":"m 161 -276 l 540 575 l 660 575 l 289 -276 l 161 -276 m 303 -4 l 26 575 l 172 575 l 404 61 l 303 -4 z "},"ỵ":{"ha":686,"x_min":26,"x_max":660,"o":"m 161 -276 l 540 575 l 660 575 l 289 -276 l 161 -276 m 303 -4 l 26 575 l 172 575 l 404 61 l 303 -4 m 481 -153 q 501 -108 481 -126 q 549 -90 522 -90 q 593 -108 572 -90 q 614 -153 614 -126 q 593 -198 614 -181 q 549 -215 572 -215 q 501 -197 522 -215 q 481 -153 481 -179 z "},"ỳ":{"ha":686,"x_min":26,"x_max":660,"o":"m 161 -276 l 540 575 l 660 575 l 289 -276 l 161 -276 m 303 -4 l 26 575 l 172 575 l 404 61 l 303 -4 z "},"ỷ":{"ha":686,"x_min":26,"x_max":660,"o":"m 161 -276 l 540 575 l 660 575 l 289 -276 l 161 -276 m 303 -4 l 26 575 l 172 575 l 404 61 l 303 -4 m 324 681 q 367 720 350 701 q 385 765 385 739 q 374 800 385 786 q 340 814 363 814 q 303 802 318 814 q 275 771 288 790 l 226 803 q 284 868 250 847 q 357 889 318 889 q 415 874 392 889 q 449 835 438 860 q 461 781 461 810 q 430 699 461 732 q 356 640 399 667 l 324 681 z "},"ȳ":{"ha":686,"x_min":26,"x_max":660,"o":"m 161 -276 l 540 575 l 660 575 l 289 -276 l 161 -276 m 303 -4 l 26 575 l 172 575 l 404 61 l 303 -4 z "},"ỹ":{"ha":686,"x_min":26,"x_max":660,"o":"m 161 -276 l 540 575 l 660 575 l 289 -276 l 161 -276 m 303 -4 l 26 575 l 172 575 l 404 61 l 303 -4 m 458 638 q 385 658 414 638 q 332 700 357 678 q 299 728 315 715 q 261 742 282 742 q 231 728 244 742 q 211 692 218 715 q 204 636 204 668 l 135 636 q 147 734 131 690 q 194 803 163 778 q 268 828 225 828 q 331 808 304 828 q 379 767 357 788 q 417 734 399 749 q 456 719 435 719 q 495 749 483 719 q 507 828 507 778 l 576 828 q 567 726 582 769 q 524 660 553 683 q 458 638 494 638 z "},"z":{"ha":643,"x_min":39,"x_max":575,"o":"m 165 469 q 92 496 122 469 q 61 575 61 522 l 61 629 l 160 629 l 160 611 q 171 582 160 589 q 207 575 182 575 l 575 575 l 231 79 l 206 107 l 571 107 l 571 0 l 39 0 l 390 506 l 413 469 l 165 469 z "},"ź":{"ha":643,"x_min":39,"x_max":575,"o":"m 165 469 q 92 496 122 469 q 61 575 61 522 l 61 629 l 160 629 l 160 611 q 171 582 160 589 q 207 575 182 575 l 575 575 l 231 79 l 206 107 l 571 107 l 571 0 l 39 0 l 390 506 l 413 469 l 165 469 z "},"ž":{"ha":643,"x_min":39,"x_max":575,"o":"m 165 469 q 92 496 122 469 q 61 575 61 522 l 61 629 l 160 629 l 160 611 q 171 582 160 589 q 207 575 182 575 l 575 575 l 231 79 l 206 107 l 571 107 l 571 0 l 39 0 l 390 506 l 413 469 l 165 469 z "},"ż":{"ha":643,"x_min":39,"x_max":575,"o":"m 165 469 q 92 496 122 469 q 61 575 61 522 l 61 629 l 160 629 l 160 611 q 171 582 160 589 q 207 575 182 575 l 575 575 l 231 79 l 206 107 l 571 107 l 571 0 l 39 0 l 390 506 l 413 469 l 165 469 z "},"ﬀ":{"ha":944,"x_min":61,"x_max":933,"o":"m 160 0 l 160 460 l 61 460 l 61 575 l 160 575 l 160 818 q 216 1010 160 943 q 382 1076 272 1076 q 447 1068 411 1076 q 508 1040 482 1060 l 454 947 q 426 965 442 960 q 396 969 411 969 q 317 935 344 969 q 289 817 289 900 l 289 575 l 471 575 l 471 460 l 289 460 l 289 0 l 160 0 m 583 0 l 583 460 l 485 460 l 485 575 l 583 575 l 583 818 q 640 1010 583 943 q 806 1076 696 1076 q 870 1068 835 1076 q 932 1040 906 1060 l 878 947 q 850 965 865 960 q 819 969 835 969 q 740 935 768 969 q 713 817 713 900 l 713 575 l 894 575 l 894 460 l 713 460 l 713 0 l 583 0 z "},"ﬁ":{"ha":806,"x_min":61,"x_max":708,"o":"m 160 0 l 160 460 l 61 460 l 61 575 l 160 575 l 160 818 q 216 1010 160 943 q 382 1076 272 1076 q 447 1068 411 1076 q 508 1040 482 1060 l 454 947 q 427 965 442 960 q 396 969 413 969 q 317 935 344 969 q 289 817 289 900 l 289 575 l 453 575 l 453 460 l 289 460 l 289 0 l 160 0 m 564 575 l 693 575 l 693 0 l 564 0 l 564 575 m 554 783 q 579 834 554 814 q 633 854 604 854 q 685 834 661 854 q 708 782 708 814 q 685 730 708 750 q 633 710 661 710 q 579 731 604 710 q 554 783 554 751 z "},"ﬂ":{"ha":806,"x_min":61,"x_max":693,"o":"m 160 0 l 160 460 l 61 460 l 61 575 l 160 575 l 160 818 q 216 1010 160 943 q 382 1076 272 1076 q 447 1068 411 1076 q 508 1040 482 1060 l 454 947 q 426 965 442 960 q 396 969 411 969 q 317 935 344 969 q 289 817 289 900 l 289 575 l 453 575 l 453 460 l 289 460 l 289 0 l 160 0 m 564 1075 l 693 1075 l 693 0 l 564 0 l 564 1075 z "},"ª":{"ha":556,"x_min":46,"x_max":469,"o":"m 229 586 q 136 610 178 586 q 70 680 94 633 q 46 793 46 726 q 71 907 46 860 q 138 980 96 954 q 226 1006 179 1006 q 319 984 282 1006 q 376 928 357 963 l 369 907 l 378 992 l 469 992 l 469 594 l 371 594 l 371 692 l 382 672 q 354 638 375 658 q 302 601 333 617 q 229 586 271 586 m 260 667 q 312 679 289 667 q 351 714 335 692 q 371 765 367 736 l 371 833 q 331 899 361 872 q 258 925 300 925 q 178 890 211 925 q 146 797 146 856 q 161 731 146 761 q 202 684 176 701 q 260 667 228 667 z "},"º":{"ha":524,"x_min":46,"x_max":478,"o":"m 46 793 q 74 900 46 853 q 151 975 101 947 q 263 1003 200 1003 q 375 975 326 1003 q 451 900 424 947 q 478 793 478 853 q 451 685 478 733 q 375 610 424 638 q 263 582 326 582 q 151 608 200 582 q 74 682 101 635 q 46 793 46 729 m 147 792 q 163 730 147 758 q 203 685 178 701 q 261 669 229 669 q 321 685 294 669 q 362 730 347 701 q 376 792 376 758 q 361 854 376 826 q 320 899 346 882 q 261 915 294 915 q 203 898 228 915 q 163 853 178 881 q 147 792 147 825 z "},"Δ":{"ha":1025,"x_min":44,"x_max":981,"o":"m 44 0 l 508 1046 l 515 1046 l 981 0 l 44 0 m 811 64 l 454 888 l 568 872 l 204 51 l 131 129 l 881 129 l 811 64 z "},"μ":{"ha":758,"x_min":113,"x_max":647,"o":"m 294 -22 q 166 26 217 -22 q 113 150 115 74 l 113 575 l 242 575 l 242 196 q 269 119 244 149 q 346 89 293 90 q 433 117 394 89 q 494 195 471 146 q 518 307 518 244 l 518 575 l 647 575 l 647 0 l 529 0 l 518 142 l 525 117 q 474 45 508 76 q 394 -4 440 14 q 294 -22 349 -22 m 113 524 l 229 524 l 229 -326 l 113 -326 l 113 524 z "},"π":{"ha":531,"x_min":10,"x_max":517,"o":"m 10 486 l 517 486 l 517 374 l 442 374 l 442 0 l 326 0 l 326 374 l 204 374 l 204 0 l 88 0 l 88 374 l 10 374 l 10 486 z "},"¹":{"ha":375,"x_min":63,"x_max":267,"o":"m 63 917 l 267 917 l 267 400 l 146 400 l 146 801 l 63 801 l 63 917 z "},"²":{"ha":560,"x_min":94,"x_max":483,"o":"m 94 883 q 169 942 118 918 q 275 965 221 965 q 411 918 360 964 q 463 790 463 872 q 434 685 463 735 q 361 594 406 636 q 270 514 317 551 q 188 446 224 476 l 204 533 l 483 533 l 483 425 l 106 425 l 106 496 q 178 551 140 521 q 251 614 217 581 q 306 683 285 647 q 328 756 328 719 q 305 833 328 810 q 242 856 282 856 q 179 839 208 856 q 135 799 150 822 l 94 883 z "},"³":{"ha":542,"x_min":76,"x_max":426,"o":"m 229 421 q 135 442 174 421 q 76 486 97 464 l 114 561 q 153 526 128 547 q 215 507 179 506 q 283 533 257 507 q 308 606 308 558 q 281 678 308 656 q 214 700 253 700 q 173 696 189 700 q 146 686 157 692 l 139 699 l 263 883 l 292 861 l 96 861 l 96 956 l 401 956 l 257 707 l 172 729 q 212 753 189 743 q 265 763 235 763 q 340 747 303 764 q 401 694 376 729 q 426 610 426 660 q 402 514 426 557 q 333 446 378 471 q 229 421 289 421 z "},"⁴":{"ha":536,"x_min":50,"x_max":464,"o":"m 464 625 l 464 550 l 51 550 l 50 585 l 324 940 l 403 940 l 403 413 l 290 413 l 290 804 l 319 807 l 144 579 l 126 625 l 464 625 z "},"⁄":{"ha":786,"x_min":17,"x_max":703,"o":"m 703 951 l 138 0 l 17 0 l 582 951 l 703 951 z "},"½":{"ha":1217,"x_min":68,"x_max":1122,"o":"m 68 921 l 272 921 l 272 404 l 151 404 l 151 806 l 68 806 l 68 921 m 733 450 q 808 508 757 485 q 914 532 860 532 q 1050 485 999 531 q 1101 357 1101 439 q 1073 252 1101 301 q 1000 160 1044 203 q 909 81 956 118 q 826 13 863 43 l 843 100 l 1122 100 l 1122 -8 l 744 -8 l 744 63 q 817 117 779 88 q 890 181 856 147 q 945 250 924 214 q 967 322 967 286 q 944 399 967 376 q 881 422 921 422 q 818 406 847 422 q 774 365 789 389 l 733 450 m 874 951 l 308 0 l 188 0 l 753 951 l 874 951 z "},"¼":{"ha":1126,"x_min":68,"x_max":1078,"o":"m 885 950 l 319 0 l 197 0 l 763 950 l 885 950 m 68 917 l 271 917 l 271 400 l 150 400 l 150 801 l 68 801 l 68 917 m 1078 213 l 1078 139 l 665 139 l 663 172 l 938 528 l 1017 528 l 1017 0 l 904 0 l 904 393 l 933 394 l 758 167 l 740 213 l 1078 213 z "},"¾":{"ha":1144,"x_min":69,"x_max":1069,"o":"m 222 421 q 128 442 167 421 q 69 486 90 464 l 107 561 q 147 526 121 547 q 208 507 172 506 q 276 533 250 507 q 301 606 301 558 q 274 678 301 656 q 207 700 246 700 q 166 696 182 700 q 139 686 150 692 l 132 699 l 256 883 l 285 861 l 89 861 l 89 956 l 394 956 l 250 707 l 165 729 q 205 753 182 743 q 258 763 228 763 q 333 747 296 764 q 394 694 369 729 q 419 610 419 660 q 395 514 419 557 q 326 446 371 471 q 222 421 282 421 m 914 951 l 349 0 l 228 0 l 793 951 l 914 951 m 1069 214 l 1069 139 l 657 139 l 656 174 l 929 529 l 1008 529 l 1008 1 l 896 1 l 896 393 l 925 396 l 750 168 l 732 214 l 1069 214 z "},"*":{"ha":465,"x_min":42,"x_max":426,"o":"m 193 729 q 139 698 167 714 q 83 667 111 682 q 63 703 74 685 q 42 738 53 721 q 98 769 71 753 q 153 800 125 785 q 99 833 126 817 q 43 867 71 850 q 62 899 53 883 q 81 932 71 915 q 137 900 108 917 q 193 867 165 883 l 193 1000 l 276 1000 q 275 933 275 967 q 274 867 275 900 q 332 899 303 883 q 389 931 361 915 q 408 898 399 914 q 426 865 417 882 q 370 832 399 849 q 313 799 342 815 l 313 799 q 368 766 340 782 q 425 733 396 750 q 405 699 415 717 q 383 663 394 681 q 328 696 356 679 q 272 729 300 713 q 272 666 272 697 q 271 603 271 635 l 193 603 l 193 729 z "},"\\":{"ha":540,"x_min":0,"x_max":522,"o":"m 132 1035 q 327 504 229 769 q 522 -26 425 239 l 392 -26 q 196 504 293 239 q 0 1035 99 769 l 132 1035 z "},"·":{"ha":236,"x_min":47,"x_max":192,"o":"m 47 397 q 70 449 47 428 q 121 471 93 471 q 169 449 146 471 q 192 397 192 428 q 169 344 192 364 q 121 324 146 324 q 70 344 93 324 q 47 397 47 364 l 47 397 z "},"•":{"ha":672,"x_min":160,"x_max":515,"o":"m 160 422 q 183 513 160 472 q 247 578 207 554 q 336 601 288 601 q 427 578 386 601 q 492 513 468 554 q 515 422 515 472 q 492 333 515 374 q 427 268 468 292 q 336 244 386 244 q 247 268 288 244 q 183 332 207 292 q 160 422 160 372 l 160 422 z "},":":{"ha":246,"x_min":47,"x_max":192,"o":"m 47 451 q 70 503 47 482 q 119 525 93 525 q 169 504 146 525 q 192 451 192 483 q 169 398 192 418 q 119 378 146 378 q 70 398 93 378 q 47 451 47 418 l 47 451 m 47 74 q 70 126 47 104 q 119 147 93 147 q 169 126 146 147 q 192 74 192 104 q 169 20 192 40 q 119 0 146 0 q 70 20 93 0 q 47 74 47 40 l 47 74 z "},",":{"ha":282,"x_min":4,"x_max":229,"o":"m 229 121 q 169 -23 199 49 q 108 -168 139 -94 l 4 -168 q 58 -23 32 -94 q 113 121 85 49 l 229 121 z "},"…":{"ha":729,"x_min":47,"x_max":686,"o":"m 47 74 q 70 126 47 104 q 119 147 93 147 q 169 126 146 147 q 192 74 192 104 q 169 20 192 40 q 119 0 146 0 q 70 20 93 0 q 47 74 47 40 l 47 74 m 294 74 q 317 126 294 104 q 368 147 340 147 q 416 126 393 147 q 439 74 439 104 q 416 20 439 40 q 368 0 393 0 q 317 20 340 0 q 294 74 294 40 l 294 74 m 542 74 q 565 126 542 104 q 615 147 588 147 q 664 126 642 147 q 686 74 686 104 q 664 20 686 40 q 615 0 642 0 q 565 20 588 0 q 542 74 542 40 l 542 74 z "},"!":{"ha":279,"x_min":58,"x_max":222,"o":"m 79 1054 l 196 1054 l 196 260 l 79 260 l 79 1054 m 140 6 q 82 26 106 6 q 58 79 58 47 q 82 133 58 111 q 140 154 106 154 q 199 133 176 154 q 222 79 222 111 q 199 26 222 47 q 140 6 176 6 z "},"¡":{"ha":281,"x_min":58,"x_max":222,"o":"m 79 -294 l 196 -294 l 196 500 l 79 500 l 79 -294 m 140 754 q 82 733 106 754 q 58 681 58 713 q 82 627 58 649 q 140 606 106 606 q 199 627 176 606 q 222 681 222 649 q 199 733 222 713 q 140 754 176 754 z "},"#":{"ha":803,"x_min":35,"x_max":728,"o":"m 360 904 q 342 769 350 836 q 325 635 335 703 l 468 635 q 484 769 475 703 q 500 904 493 836 l 618 904 q 601 769 610 836 q 585 635 593 703 l 728 635 q 723 579 725 607 q 717 522 721 551 l 572 522 q 564 451 568 488 q 556 378 560 414 l 699 378 q 691 322 694 350 q 685 264 688 293 l 540 264 q 526 133 533 199 q 510 0 518 67 l 393 0 q 408 133 400 67 q 424 264 417 199 l 282 264 q 267 133 275 199 q 251 0 258 67 l 133 0 q 149 133 142 67 q 164 264 157 199 l 35 264 q 42 322 39 293 q 49 378 46 350 l 179 378 q 188 451 183 414 q 196 522 192 488 l 67 522 q 73 579 71 551 q 79 635 75 607 l 208 635 q 225 769 217 703 q 242 904 233 836 l 360 904 m 313 522 q 305 451 310 488 q 296 378 300 414 l 438 378 q 447 451 443 414 q 454 522 450 488 l 313 522 z "},".":{"ha":233,"x_min":47,"x_max":192,"o":"m 47 74 q 70 126 47 104 q 121 147 93 147 q 169 126 146 147 q 192 74 192 104 q 169 20 192 40 q 121 0 146 0 q 70 20 93 0 q 47 74 47 40 l 47 74 z "},"?":{"ha":638,"x_min":25,"x_max":600,"o":"m 232 257 l 232 344 q 250 453 232 413 q 297 522 268 494 q 357 576 326 550 q 431 652 400 613 q 463 756 463 692 q 441 836 463 801 q 385 890 419 871 q 310 910 350 910 q 228 890 264 910 q 169 837 193 869 q 132 765 146 804 l 25 815 q 58 883 35 846 q 117 953 81 919 q 204 1008 153 986 q 322 1029 256 1029 q 464 999 401 1029 q 563 910 526 968 q 600 767 600 851 q 581 656 600 700 q 531 578 561 611 q 467 513 501 544 q 413 463 438 488 q 375 405 389 439 q 361 315 361 371 l 361 257 l 232 257 m 299 6 q 239 26 263 6 q 215 81 215 47 q 239 133 215 111 q 299 154 263 154 q 356 133 333 154 q 379 81 379 111 q 356 26 379 47 q 299 6 333 6 z "},"¿":{"ha":606,"x_min":40,"x_max":615,"o":"m 408 492 l 408 404 q 390 296 408 338 q 344 227 372 254 q 283 172 315 200 q 209 97 240 136 q 178 -7 178 58 q 199 -87 178 -53 q 256 -142 221 -122 q 331 -161 292 -161 q 412 -141 376 -161 q 471 -88 447 -121 q 508 -17 494 -56 l 615 -67 q 583 -134 606 -97 q 524 -204 560 -171 q 436 -259 488 -237 q 318 -281 385 -281 q 177 -250 240 -281 q 77 -161 114 -219 q 40 -18 40 -103 q 60 93 40 49 q 110 172 79 138 q 174 236 140 206 q 227 285 203 261 q 265 344 251 310 q 279 433 279 378 l 279 492 l 408 492 m 342 743 q 401 722 378 743 q 425 668 425 701 q 401 616 425 638 q 342 594 378 594 q 284 616 307 594 q 261 668 261 638 q 284 722 261 701 q 342 743 307 743 z "},"\"":{"ha":471,"x_min":88,"x_max":392,"o":"m 204 1013 q 201 838 203 925 q 199 663 200 751 l 88 663 l 88 1013 l 204 1013 m 392 1013 q 389 838 390 925 q 386 663 388 751 l 275 663 l 275 1013 l 392 1013 z "},"'":{"ha":228,"x_min":60,"x_max":176,"o":"m 176 1013 q 174 838 175 925 q 171 663 172 751 l 60 663 l 60 1013 l 176 1013 z "},";":{"ha":282,"x_min":-17,"x_max":235,"o":"m 90 425 q 113 477 90 456 q 163 499 136 499 q 213 478 190 499 q 235 425 235 457 q 213 372 235 392 q 163 351 190 351 q 113 372 136 351 q 90 425 90 392 l 90 425 m 210 121 q 149 -23 179 49 q 89 -168 119 -94 l -17 -168 q 38 -24 11 -96 q 92 121 65 49 l 210 121 z "},"/":{"ha":533,"x_min":24,"x_max":532,"o":"m 532 1035 q 338 504 435 769 q 142 -26 240 239 l 24 -26 q 219 504 122 239 q 415 1035 317 769 l 532 1035 z "},"_":{"ha":843,"x_min":140,"x_max":703,"o":"m 140 113 l 703 113 l 703 0 l 140 0 l 140 113 z "},"{":{"ha":490,"x_min":46,"x_max":426,"o":"m 365 935 q 320 924 336 935 q 298 882 304 913 q 292 790 292 851 l 292 628 q 277 521 292 563 q 242 456 263 479 q 200 421 221 433 q 240 385 219 408 q 276 325 261 363 q 292 231 292 288 l 292 49 q 298 -42 292 -11 q 320 -85 304 -74 q 365 -96 336 -96 l 426 -96 l 426 -210 l 338 -210 q 271 -208 303 -210 q 213 -190 239 -206 q 172 -137 188 -175 q 157 -25 157 -99 l 157 194 q 146 274 157 235 q 110 339 135 313 q 46 365 86 365 l 46 365 l 46 479 q 110 506 86 481 q 146 572 135 532 q 157 651 157 611 l 157 882 q 172 982 157 947 q 213 1031 188 1017 q 272 1047 239 1044 q 338 1049 304 1049 l 426 1049 l 426 935 l 365 935 z "},"}":{"ha":515,"x_min":89,"x_max":469,"o":"m 151 -96 q 196 -85 181 -96 q 217 -42 211 -74 q 224 49 224 -11 l 224 231 q 240 326 224 289 q 277 386 256 364 q 315 418 299 408 q 276 454 299 432 q 239 515 254 476 q 224 610 224 553 l 224 792 q 217 883 224 853 q 196 924 211 914 q 151 935 181 935 l 89 935 l 89 1049 l 176 1049 q 242 1047 210 1049 q 300 1032 274 1046 q 342 983 326 1018 q 358 883 358 949 l 358 664 q 363 603 358 636 q 380 542 368 571 q 414 494 392 513 q 469 474 436 475 l 469 474 l 469 360 q 414 340 436 360 q 380 292 392 321 q 363 231 368 264 q 358 169 358 199 l 358 -43 q 343 -143 358 -108 q 301 -192 328 -178 q 243 -208 275 -206 q 176 -210 211 -210 l 89 -210 l 89 -96 l 151 -96 z "},"[":{"ha":503,"x_min":144,"x_max":433,"o":"m 144 1049 l 433 1049 l 433 928 l 281 928 l 281 -89 l 433 -89 l 433 -210 l 144 -210 l 144 1049 z "},"]":{"ha":503,"x_min":71,"x_max":358,"o":"m 358 -210 l 71 -210 l 71 -89 l 224 -89 l 224 929 l 71 929 l 71 1049 l 358 1049 l 358 -210 z "},"(":{"ha":560,"x_min":142,"x_max":475,"o":"m 142 410 q 175 672 142 550 q 262 890 208 794 q 374 1049 315 986 l 475 992 q 376 843 421 929 q 303 647 331 757 q 276 408 276 538 q 303 170 276 279 q 376 -24 331 61 q 475 -172 421 -110 l 374 -231 q 262 -72 315 -168 q 175 147 208 25 q 142 410 142 268 l 142 410 z "},")":{"ha":563,"x_min":101,"x_max":435,"o":"m 435 408 q 401 146 435 268 q 315 -72 367 24 q 203 -231 263 -168 l 101 -172 q 201 -25 156 -111 q 273 170 246 61 q 300 408 300 279 q 273 647 300 538 q 201 843 246 757 q 101 990 156 929 l 203 1049 q 315 890 263 986 q 401 672 367 793 q 435 408 435 550 l 435 408 z "},"—":{"ha":985,"x_min":139,"x_max":844,"o":"m 139 350 l 844 350 l 844 236 l 139 236 l 139 350 z "},"–":{"ha":715,"x_min":140,"x_max":564,"o":"m 140 350 l 564 350 l 564 236 l 140 236 l 140 350 z "},"-":{"ha":422,"x_min":74,"x_max":333,"o":"m 74 356 l 333 356 l 333 242 l 74 242 l 74 356 z "},"­":{"ha":833,"x_min":74,"x_max":333,"o":"m 74 356 l 333 356 l 333 242 l 74 242 l 74 356 z "},"«":{"ha":842,"x_min":74,"x_max":690,"o":"m 74 336 q 104 363 81 343 q 160 410 128 383 q 228 467 193 438 q 297 524 264 496 q 353 571 329 551 q 383 597 376 590 l 383 479 q 353 451 375 471 q 305 408 331 431 q 258 366 279 386 q 228 336 238 346 q 258 306 238 326 q 305 263 279 286 q 353 220 331 240 q 383 190 375 200 l 383 74 l 74 336 m 381 336 q 411 363 388 343 q 467 410 435 383 q 535 467 499 438 q 603 524 571 496 q 660 571 636 551 q 690 597 683 590 l 690 479 q 659 451 681 471 q 612 408 638 431 q 565 366 586 386 q 535 336 544 346 q 565 306 544 326 q 612 263 586 286 q 659 220 638 240 q 690 190 681 200 l 690 74 l 381 336 z "},"»":{"ha":842,"x_min":131,"x_max":747,"o":"m 747 336 q 717 363 740 343 q 660 410 693 383 q 592 467 628 438 q 523 524 556 496 q 467 571 490 551 q 436 597 444 590 l 436 479 q 467 451 446 471 q 515 408 489 431 q 561 366 540 386 q 592 336 582 346 q 561 306 582 326 q 515 263 540 286 q 467 220 489 240 q 436 190 446 200 l 436 74 l 747 336 m 440 336 q 410 363 433 343 q 353 410 386 383 q 285 467 321 438 q 217 524 250 496 q 161 571 185 551 q 131 597 138 590 l 131 479 q 160 451 139 471 q 208 408 182 431 q 255 366 233 386 q 285 336 276 346 q 255 306 276 326 q 208 263 233 286 q 160 220 182 240 q 131 190 139 200 l 131 74 l 440 336 z "},"‹":{"ha":515,"x_min":74,"x_max":383,"o":"m 74 336 q 104 363 81 343 q 160 410 128 383 q 228 467 193 438 q 297 524 264 496 q 353 571 329 551 q 383 597 376 590 l 383 479 q 353 451 375 471 q 305 408 331 431 q 258 366 279 386 q 228 336 238 346 q 258 306 238 326 q 305 263 279 286 q 353 220 331 240 q 383 190 375 200 l 383 74 l 74 336 z "},"›":{"ha":507,"x_min":131,"x_max":440,"o":"m 440 336 q 410 363 433 343 q 353 410 386 383 q 285 467 321 438 q 217 524 250 496 q 161 571 185 551 q 131 597 138 590 l 131 479 q 160 451 139 471 q 208 408 182 431 q 255 366 233 386 q 285 336 276 346 q 255 306 276 326 q 208 263 233 286 q 160 220 182 240 q 131 190 139 200 l 131 74 l 440 336 z "},"„":{"ha":419,"x_min":49,"x_max":378,"o":"z "},"“":{"ha":407,"x_min":49,"x_max":388,"o":"m 321 1017 l 388 983 q 340 903 357 950 q 332 810 324 856 l 229 800 q 231 888 221 847 q 266 962 242 929 q 321 1017 290 994 m 149 1017 l 215 983 q 168 903 185 950 q 160 810 151 856 l 57 800 q 59 888 49 847 q 94 962 69 929 q 149 1017 118 994 z "},"”":{"ha":403,"x_min":49,"x_max":378,"o":"m 114 783 l 49 817 q 95 893 78 844 q 103 990 113 942 l 206 1000 q 203 919 214 961 q 168 840 192 876 q 114 783 144 804 l 114 783 m 276 783 l 211 817 q 258 893 240 844 q 265 990 275 942 l 368 1000 q 365 919 376 961 q 331 840 354 876 q 276 783 307 804 l 276 783 z "},"‘":{"ha":251,"x_min":42,"x_max":208,"o":"m 142 1017 l 208 983 q 161 903 178 950 q 153 810 144 856 l 50 800 q 52 888 42 847 q 87 962 63 929 q 142 1017 111 994 z "},"’":{"ha":257,"x_min":49,"x_max":214,"o":"m 114 783 l 49 817 q 95 893 78 844 q 103 990 113 942 l 206 1000 q 203 919 214 961 q 168 840 192 876 q 114 783 144 804 l 114 783 z "},"‚":{"ha":257,"x_min":49,"x_max":214,"o":"m 114 -118 l 49 -85 q 95 -8 78 -57 q 103 89 113 40 l 206 99 q 203 17 214 60 q 168 -61 192 -25 q 114 -118 144 -97 l 114 -118 z "}," ":{"ha":439,"x_min":0,"x_max":0,"o":""}," ":{"ha":439,"x_min":0,"x_max":0,"o":""},"\r":{"ha":439,"x_min":0,"x_max":0,"o":""},"₵":{"ha":964,"x_min":82,"x_max":882,"o":"m 882 75 q 814 38 857 58 q 713 3 771 17 q 588 -11 656 -11 q 377 31 471 -10 q 218 140 283 71 q 117 301 153 210 q 82 494 82 392 q 119 702 82 607 q 222 867 156 797 q 380 976 289 938 q 579 1015 471 1015 q 743 991 669 1015 q 869 933 817 967 l 815 808 q 715 861 774 836 q 583 886 656 886 q 444 857 510 886 q 329 775 379 828 q 251 652 279 722 q 222 501 222 582 q 248 349 222 419 q 322 228 274 279 q 438 147 369 176 q 590 118 506 118 q 726 142 667 118 q 825 194 786 165 l 882 75 m 501 1133 l 619 1133 l 619 -178 l 501 -178 l 501 1133 z "},"¢":{"ha":633,"x_min":63,"x_max":582,"o":"m 329 668 l 410 668 l 410 -94 l 329 -94 l 329 668 m 579 53 q 486 4 540 22 q 378 -14 432 -14 q 213 24 283 -14 q 102 128 142 61 q 63 288 63 196 q 105 447 63 379 q 216 552 147 515 q 364 589 285 589 q 488 569 433 589 q 582 517 543 550 l 518 433 q 457 468 493 453 q 375 483 421 483 q 283 458 325 483 q 216 388 240 432 q 192 288 192 343 q 217 190 192 235 q 286 119 242 144 q 388 93 331 93 q 456 104 425 93 q 513 135 488 115 l 579 53 z "},"₡":{"ha":964,"x_min":82,"x_max":957,"o":"m 739 1093 l 307 -76 l 190 -76 l 622 1093 l 739 1093 m 957 1094 l 526 -75 l 408 -75 l 840 1094 l 957 1094 m 882 75 q 814 38 857 58 q 713 3 771 17 q 588 -11 656 -11 q 377 31 471 -10 q 218 140 283 71 q 117 301 153 210 q 82 494 82 392 q 119 702 82 607 q 222 867 156 797 q 380 976 289 938 q 579 1015 471 1015 q 743 991 669 1015 q 869 933 817 967 l 815 808 q 715 861 774 836 q 583 886 656 886 q 444 857 510 886 q 329 775 379 828 q 251 652 279 722 q 222 501 222 582 q 248 349 222 419 q 322 228 274 279 q 438 147 369 176 q 590 118 506 118 q 726 142 667 118 q 825 194 786 165 l 882 75 z "},"¤":{"ha":700,"x_min":135,"x_max":561,"o":"m 522 615 q 558 501 558 564 q 548 438 558 468 q 519 383 538 408 l 561 342 l 506 286 q 484 307 494 296 q 461 329 474 318 q 347 294 413 294 q 287 303 315 294 q 235 328 258 313 l 235 328 l 192 285 l 135 340 l 176 382 q 150 438 160 407 q 140 501 140 468 l 140 501 q 149 562 140 533 q 175 615 158 590 q 155 635 164 625 q 135 656 146 644 l 192 711 l 232 671 q 286 698 257 688 q 347 708 315 708 q 410 698 381 708 q 464 671 439 688 l 464 671 l 504 711 l 561 654 l 522 615 m 219 501 q 238 436 219 465 q 285 390 256 407 q 349 372 314 372 q 414 390 385 372 q 460 436 443 407 q 478 501 478 465 q 460 567 478 538 q 413 613 442 596 q 349 631 385 631 q 284 613 314 631 q 237 567 254 596 q 219 501 219 538 l 219 501 z "},"$":{"ha":788,"x_min":68,"x_max":726,"o":"m 361 -94 l 361 514 l 389 558 l 389 1096 l 469 1096 l 469 540 l 443 482 l 443 -94 l 361 -94 m 664 825 q 551 871 613 851 q 432 890 490 890 q 303 853 351 890 q 256 753 256 815 q 286 673 256 706 q 367 617 317 640 q 471 572 417 593 q 564 532 518 554 q 647 476 610 510 q 705 394 683 443 q 726 274 726 346 q 687 129 726 194 q 574 26 647 64 q 399 -11 500 -11 q 272 4 332 -11 q 160 44 211 19 q 68 94 108 68 l 128 200 q 204 155 161 176 q 294 120 247 133 q 386 107 342 107 q 480 124 433 107 q 557 178 526 142 q 588 274 588 214 q 560 359 588 325 q 489 417 533 393 q 394 461 444 442 q 299 501 347 479 q 208 553 250 522 q 142 631 167 585 q 117 742 117 676 q 155 880 117 821 q 260 973 193 939 q 413 1010 326 1007 q 584 986 510 1010 q 715 928 658 963 l 664 825 z "},"₫":{"ha":861,"x_min":103,"x_max":808,"o":"m 460 994 l 808 994 l 808 904 l 460 904 l 460 994 m 125 92 l 772 92 l 772 0 l 125 0 l 125 92 m 379 185 q 239 223 301 185 q 140 331 176 261 q 103 493 103 401 q 142 657 103 589 q 247 761 181 725 q 396 797 314 797 q 522 766 461 797 q 615 683 583 735 l 607 642 l 607 1086 l 735 1086 l 735 199 l 606 199 l 606 340 l 619 304 q 519 218 582 251 q 379 185 457 185 m 419 294 q 507 313 469 294 q 570 365 544 332 q 606 443 596 399 l 606 553 q 569 626 596 594 q 503 675 542 657 q 419 693 465 693 q 327 668 369 693 q 260 599 285 643 q 235 496 235 554 q 260 394 235 439 q 327 322 285 349 q 419 294 369 294 z "},"€":{"ha":1039,"x_min":82,"x_max":957,"o":"m 82 640 l 590 640 l 590 533 l 82 533 l 82 640 m 83 447 l 590 447 l 590 342 l 83 342 l 83 447 m 957 75 q 890 38 933 58 q 788 3 846 17 q 663 -11 731 -11 q 452 31 546 -10 q 293 140 358 71 q 192 301 228 210 q 157 494 157 392 q 194 702 157 607 q 297 867 231 797 q 455 976 364 938 q 654 1015 546 1015 q 818 991 744 1015 q 944 933 892 967 l 890 808 q 790 861 849 836 q 658 886 731 886 q 520 857 586 886 q 404 775 454 828 q 326 652 354 722 q 297 501 297 582 q 323 349 297 419 q 397 228 349 279 q 513 147 446 176 q 665 118 581 118 q 801 142 742 118 q 900 194 861 165 l 957 75 z "},"ƒ":{"ha":464,"x_min":-76,"x_max":479,"o":"m 133 717 q 178 915 133 836 q 300 1033 222 993 q 479 1075 378 1072 l 479 947 q 362 915 408 943 q 292 835 315 886 q 268 715 268 785 l 268 575 l 451 575 l 451 451 l 268 451 l 268 126 q 229 -71 268 8 q 113 -190 190 -150 q -76 -233 36 -229 l -76 -104 q 41 -72 -6 -101 q 110 8 88 -43 q 133 129 133 58 l 133 451 l 36 451 l 36 575 l 133 575 l 133 717 z "},"₣":{"ha":815,"x_min":50,"x_max":740,"o":"m 144 1004 l 740 1004 l 740 875 l 279 875 l 279 554 l 683 554 l 683 426 l 279 426 l 279 0 l 144 0 l 144 1004 m 50 263 l 392 263 l 392 171 l 50 171 l 50 263 z "},"₲":{"ha":1043,"x_min":82,"x_max":931,"o":"m 931 86 q 872 51 910 68 q 790 19 835 33 q 697 -3 744 6 q 607 -11 649 -11 q 390 26 486 -11 q 224 131 293 64 q 119 288 156 197 q 82 483 82 378 q 123 708 82 608 q 235 876 164 807 q 400 980 307 944 q 597 1015 493 1015 q 760 994 685 1015 q 892 942 835 974 l 846 818 q 777 849 818 835 q 693 872 736 863 q 613 881 650 881 q 451 853 524 881 q 328 776 379 826 q 249 653 276 725 q 221 493 221 582 q 249 343 221 411 q 328 226 276 275 q 451 149 379 176 q 608 122 522 122 q 710 133 660 122 q 796 163 760 143 l 796 363 l 596 363 l 596 492 l 931 492 l 931 86 m 500 1132 l 618 1132 l 618 -179 l 500 -179 l 500 1132 z "},"₭":{"ha":957,"x_min":49,"x_max":919,"o":"m 49 608 l 788 608 l 788 479 l 49 479 l 49 608 m 299 600 l 294 550 l 311 575 l 722 1004 l 896 1004 l 481 574 l 919 0 l 750 0 l 382 488 l 297 406 l 299 0 l 163 0 l 163 1004 l 299 1004 l 299 600 z "},"₤":{"ha":883,"x_min":79,"x_max":807,"o":"m 546 603 l 546 482 l 119 482 l 119 603 l 546 603 m 546 399 l 546 279 l 119 279 l 119 399 l 546 399 m 214 747 q 251 863 214 813 q 353 942 288 914 q 504 971 418 971 q 669 933 603 971 q 768 829 735 894 l 671 763 q 653 785 664 772 q 626 810 643 797 q 581 833 610 824 q 507 842 551 842 q 415 825 450 842 q 364 776 379 808 q 349 700 349 744 l 349 246 l 349 246 q 348 238 349 251 q 344 203 347 225 q 336 160 342 181 q 319 129 331 139 l 300 129 l 593 129 q 666 143 643 129 q 689 190 689 157 l 689 249 l 807 250 l 807 160 q 799 96 807 125 q 769 45 790 67 q 713 12 749 24 q 622 0 676 0 l 79 0 l 79 129 l 140 129 q 187 140 171 129 q 208 181 203 150 q 214 271 214 211 l 214 747 z "},"₺":{"ha":917,"x_min":32,"x_max":835,"o":"m 826 444 q 833 402 831 425 q 835 356 835 379 q 796 190 833 257 q 694 81 758 122 q 544 19 629 39 q 364 0 460 0 l 231 0 l 231 1004 l 364 1004 l 364 56 l 353 131 q 490 142 428 131 q 597 180 551 154 q 667 249 642 206 q 692 358 692 293 q 691 385 692 372 q 688 410 690 399 l 826 444 m 610 617 l 663 535 l 142 244 l 89 326 l 610 617 m 551 793 l 603 711 l 83 424 l 32 506 l 551 793 z "},"₼":{"ha":1042,"x_min":144,"x_max":897,"o":"m 464 1154 l 581 1154 l 581 0 l 464 0 l 464 1154 m 764 644 q 731 766 764 713 q 644 850 699 819 q 522 881 589 881 q 397 850 453 881 q 310 766 342 819 q 278 644 278 713 l 278 -4 l 144 -4 l 144 647 q 195 840 144 758 q 331 966 246 921 q 522 1011 417 1011 l 522 1011 q 713 966 628 1011 q 847 840 797 921 q 897 647 897 758 l 897 -4 l 764 -4 l 764 644 z "},"₦":{"ha":1163,"x_min":21,"x_max":1138,"o":"m 604 564 l 1138 564 l 1138 472 l 604 472 l 604 564 m 579 472 l 21 472 l 21 564 l 579 564 l 579 472 m 1014 -32 l 238 763 l 278 746 l 281 0 l 144 0 l 144 1035 l 151 1035 l 919 238 l 886 251 l 883 1004 l 1018 1004 l 1018 -32 l 1014 -32 z "}}}
